<svg width="130" height="112" viewBox="0 0 130 112" fill="none" xmlns="http://www.w3.org/2000/svg">
<path d="M51.7509 15.7813C52.9199 11.4395 59.0801 11.4395 60.2491 15.7813L63.598 28.2193C66.2483 38.0628 73.9372 45.7517 83.7807 48.402L96.2187 51.7509C100.561 52.9199 100.561 59.0801 96.2187 60.2491L83.7807 63.598C73.9372 66.2483 66.2483 73.9372 63.598 83.7807L60.2491 96.2187C59.0801 100.561 52.9199 100.561 51.7509 96.2187L48.402 83.7807C45.7517 73.9372 38.0628 66.2483 28.2193 63.598L15.7813 60.2491C11.4395 59.0801 11.4395 52.9199 15.7813 51.7509L28.2193 48.402C38.0628 45.7517 45.7517 38.0628 48.402 28.2193L51.7509 15.7813Z" fill="#637381"/>
<path d="M106.331 6.1998C106.79 4.49409 109.21 4.49409 109.669 6.1998L110.985 11.0862C112.026 14.9532 115.047 17.9739 118.914 19.0151L123.8 20.3307C125.506 20.79 125.506 23.21 123.8 23.6693L118.914 24.9849C115.047 26.0261 112.026 29.0468 110.985 32.9138L109.669 37.8002C109.21 39.5059 106.79 39.5059 106.331 37.8002L105.015 32.9138C103.974 29.0468 100.953 26.0261 97.0862 24.9849L92.1998 23.6693C90.4941 23.21 90.4941 20.79 92.1998 20.3307L97.0862 19.0151C100.953 17.9739 103.974 14.9532 105.015 11.0862L106.331 6.1998Z" fill="#A8B3BD"/>
</svg>
