<svg width="580" height="720" viewBox="0 0 580 720" fill="none" xmlns="http://www.w3.org/2000/svg">
<g filter="url(#filter0_d_763_1060)">
<g clip-path="url(#clip0_763_1060)">
<rect x="10.7539" y="-45" width="520.395" height="284.507" rx="25.2695" transform="rotate(13.8598 10.7539 -45)" fill="#FCBB51"/>
<rect x="45.4785" y="74.8467" width="61.2025" height="48.962" rx="9.41577" transform="rotate(13.8598 45.4785 74.8467)" fill="#FCCD27"/>
<path d="M25.0157 102.771L28.6246 88.144L12.9874 92.5616L25.0157 102.771Z" fill="white"/>
<path opacity="0.4" d="M282.544 234.905C283.506 229.527 290.964 228.885 292.832 234.019L297.845 247.8C302.08 259.44 312.189 267.946 324.382 270.128L338.817 272.712C344.195 273.674 344.837 281.131 339.703 282.999L325.922 288.013C314.282 292.248 305.776 302.357 303.594 314.55L301.01 328.985C300.048 334.363 292.591 335.005 290.723 329.871L285.709 316.09C281.474 304.45 271.365 295.944 259.172 293.762L244.737 291.178C239.359 290.216 238.717 282.758 243.851 280.89L257.632 275.877C269.272 271.642 277.778 261.533 279.96 249.34L282.544 234.905Z" fill="#FCBB51"/>
<path opacity="0.5" d="M448.601 183.664C449.79 177.026 458.994 176.233 461.3 182.57L467.489 199.581C472.716 213.949 485.195 224.449 500.245 227.142L518.063 230.332C524.702 231.52 525.494 240.725 519.157 243.03L502.146 249.219C487.778 254.446 477.278 266.925 474.585 281.975L471.396 299.793C470.208 306.432 461.003 307.225 458.697 300.887L452.508 283.876C447.281 269.508 434.802 259.009 419.752 256.315L401.934 253.126C395.296 251.938 394.503 242.733 400.84 240.427L417.851 234.239C432.219 229.011 442.719 216.532 445.412 201.483L448.601 183.664Z" fill="#FCEBD0"/>
<path opacity="0.5" d="M268.069 -14.6465C269.257 -21.2848 278.462 -22.0776 280.768 -15.7402L286.957 1.27069C292.184 15.6385 304.663 26.1384 319.713 28.8319L337.531 32.021C344.169 33.2091 344.962 42.4141 338.625 44.7197L321.614 50.9084C307.246 56.1355 296.746 68.6144 294.053 83.6644L290.864 101.483C289.675 108.121 280.47 108.914 278.165 102.577L271.976 85.5657C266.749 71.1979 254.27 60.698 239.22 58.0044L221.402 54.8154C214.763 53.6273 213.971 44.4223 220.308 42.1167L237.319 35.928C251.687 30.7009 262.187 18.2219 264.88 3.17199L268.069 -14.6465Z" fill="#FCEBD0"/>
<path opacity="0.4" d="M22.5156 190.087C23.4781 184.71 30.9354 184.067 32.8032 189.201L37.8169 202.982C42.0515 214.622 52.1611 223.129 64.3536 225.311L78.7889 227.894C84.1668 228.857 84.809 236.314 79.6749 238.182L65.8939 243.196C54.2541 247.43 45.7477 257.54 43.5656 269.732L40.9821 284.168C40.0195 289.545 32.5623 290.188 30.6945 285.054L25.6808 271.273C21.4462 259.633 11.3366 251.126 -0.855858 248.944L-15.2912 246.361C-20.6691 245.398 -21.3114 237.941 -16.1772 236.073L-2.39616 231.059C9.24364 226.825 17.7499 216.715 19.9321 204.523L22.5156 190.087Z" fill="#FCBB51"/>
<path opacity="0.4" d="M356.553 139.146C358.103 136.894 361.634 138.142 361.424 140.867L360.862 148.184C360.388 154.363 363.238 160.328 368.344 163.841L374.389 168.001C376.641 169.551 375.393 173.082 372.667 172.872L365.351 172.31C359.171 171.836 353.206 174.686 349.693 179.792L345.534 185.837C343.984 188.089 340.453 186.841 340.662 184.115L341.224 176.799C341.699 170.619 338.849 164.654 333.743 161.141L327.698 156.981C325.446 155.432 326.694 151.901 329.419 152.11L336.736 152.672C342.915 153.147 348.88 150.297 352.393 145.191L356.553 139.146Z" fill="#FCEBD0"/>
<path d="M374.178 94.7588L371.713 94.1365L373.184 88.3136L375.648 88.9359L376.875 84.0778L383.912 85.8546L382.685 90.7126L386.328 91.6325L384.858 97.4554L381.215 96.5355L379.52 103.25C379.249 104.322 379.596 104.904 380.775 105.201L382.811 105.716L381.305 111.681L378.269 110.914C373.84 109.796 371.058 107.118 372.51 101.367L374.179 94.759L374.178 94.7588Z" fill="#FCEBD0"/>
<path d="M395.252 93.6196C398.11 94.3413 399.795 96.0959 400.38 98.1439L401.083 95.3579L408.085 97.1257L403.025 117.164L396.024 115.396L396.727 112.61C395.241 114.134 392.889 114.871 390.067 114.158C385.316 112.959 382.513 108.11 384.127 101.715C385.742 95.321 390.502 92.4194 395.253 93.6188L395.252 93.6196ZM395.96 100.296C393.96 99.7905 391.956 100.804 391.27 103.519C390.585 106.234 391.858 108.113 393.859 108.618C395.86 109.123 397.872 108.073 398.557 105.359C399.243 102.644 397.925 100.791 395.96 100.296Z" fill="#FCEBD0"/>
<path d="M417.298 99.4529L411.743 121.457C410.3 127.172 406.607 128.253 402.178 127.135L399.642 126.495L401.148 120.529L402.648 120.908C403.863 121.215 404.444 120.867 404.714 119.796L410.297 97.6852L417.298 99.4529ZM411.061 92.1024C411.575 90.0659 413.588 88.8652 416.088 89.4964C418.589 90.1277 419.755 92.1321 419.241 94.1677C418.727 96.2033 416.731 97.3337 414.267 96.7115C411.802 96.0892 410.556 94.1024 411.061 92.1024Z" fill="#FCEBD0"/>
<path d="M426.933 101.62C429.791 102.341 431.476 104.096 432.061 106.144L432.764 103.358L439.765 105.126L434.706 125.164L427.705 123.396L428.408 120.61C426.921 122.134 424.57 122.871 421.747 122.158C416.997 120.959 414.194 116.11 415.808 109.715C417.422 103.321 422.183 100.419 426.933 101.619L426.933 101.62ZM427.641 108.296C425.641 107.791 423.636 108.804 422.951 111.519C422.266 114.234 423.539 116.113 425.54 116.618C427.541 117.123 429.553 116.073 430.238 113.359C430.923 110.644 429.605 108.792 427.641 108.296Z" fill="#FCEBD0"/>
<path d="M470.924 114.19C470.862 114.438 470.742 114.652 470.565 114.834C470.388 115.016 470.177 115.141 469.932 115.211C469.688 115.28 469.442 115.283 469.195 115.221C468.949 115.158 468.736 115.039 468.553 114.863C468.371 114.685 468.245 114.475 468.175 114.23C468.106 113.986 468.102 113.74 468.164 113.493C468.227 113.247 468.346 113.033 468.524 112.851C468.701 112.668 468.912 112.542 469.157 112.473C469.401 112.403 469.646 112.4 469.892 112.462C470.138 112.525 470.354 112.645 470.536 112.821C470.718 112.998 470.844 113.209 470.914 113.454C470.983 113.699 470.986 113.944 470.924 114.19ZM470.657 114.123C470.735 113.815 470.692 113.526 470.529 113.253C470.366 112.98 470.131 112.805 469.824 112.727C469.517 112.649 469.227 112.692 468.954 112.855C468.681 113.018 468.506 113.253 468.429 113.56C468.351 113.867 468.393 114.157 468.556 114.43C468.719 114.703 468.954 114.878 469.261 114.956C469.569 115.033 469.858 114.991 470.132 114.828C470.404 114.666 470.579 114.43 470.657 114.123ZM469.104 112.946L469.764 113.113C469.95 113.16 470.076 113.231 470.141 113.328C470.205 113.425 470.222 113.536 470.19 113.663C470.165 113.762 470.111 113.839 470.03 113.896C469.948 113.953 469.834 113.98 469.688 113.977C469.739 114.013 469.775 114.046 469.795 114.077C469.824 114.12 469.851 114.18 469.875 114.257C469.876 114.263 469.919 114.424 470.006 114.744L469.572 114.634C469.502 114.318 469.45 114.125 469.415 114.058C469.381 113.992 469.339 113.952 469.291 113.939C469.28 113.937 469.264 113.935 469.244 113.933L469.098 114.513L468.73 114.421L469.103 112.945L469.104 112.946ZM469.313 113.664L469.472 113.704C469.578 113.731 469.657 113.733 469.709 113.71C469.761 113.686 469.794 113.647 469.808 113.593C469.821 113.539 469.812 113.49 469.779 113.445C469.746 113.399 469.68 113.365 469.579 113.34L469.405 113.296L469.312 113.665L469.313 113.664Z" fill="#E35B33"/>
<path d="M444.001 109.435L440.709 115.714C439.863 117.328 440.167 119.354 441.547 120.546C442.004 120.942 442.557 121.238 443.183 121.396C445.327 121.938 447.504 120.638 448.046 118.494C447.504 120.638 448.804 122.815 450.948 123.357C453.092 123.898 455.27 122.599 455.811 120.454C455.27 122.599 456.57 124.776 458.714 125.318C459.339 125.475 459.968 125.477 460.557 125.346C462.337 124.952 463.566 123.313 463.588 121.49L463.671 114.401C463.694 112.539 462.435 110.904 460.629 110.447L448.556 107.399C446.749 106.943 444.867 107.785 444.001 109.435Z" fill="#FB5E13"/>
</g>
</g>
<g filter="url(#filter1_ddddd_763_1060)">
<g clip-path="url(#clip1_763_1060)">
<rect x="-159.977" y="-32.75" width="520.395" height="284.507" rx="25.2695" transform="rotate(15.9167 -159.977 -32.75)" fill="black"/>
<path d="M333.595 185.271C337.252 181.213 343.924 184.606 342.799 189.952L336.572 219.538C334.021 231.659 338.113 244.221 347.314 252.513L369.775 272.754C373.833 276.411 370.44 283.083 365.094 281.958L335.508 275.731C323.387 273.18 310.825 277.272 302.533 286.473L282.292 308.934C278.635 312.992 271.963 309.599 273.088 304.253L279.315 274.667C281.866 262.546 277.774 249.984 268.573 241.692L246.112 221.451C242.054 217.794 245.447 211.122 250.793 212.247L280.379 218.474C292.5 221.025 305.062 216.933 313.354 207.731L333.595 185.271Z" fill="#FCBB51"/>
<path d="M110.262 -14.6944C113.919 -18.7529 120.591 -15.3601 119.466 -10.0139L113.876 16.5462C111.325 28.6668 115.417 41.2291 124.619 49.521L144.781 67.691C148.84 71.3485 145.447 78.0202 140.101 76.895L113.541 71.3049C101.42 68.7539 88.8579 72.8466 80.566 82.0478L62.3959 102.211C58.7385 106.269 52.0668 102.876 53.192 97.53L58.782 70.9699C61.333 58.8493 57.2404 46.287 48.0392 37.9951L27.8764 19.8251C23.8179 16.1676 27.2107 9.49592 32.557 10.6211L59.1171 16.2112C71.2377 18.7622 83.8 14.6695 92.0918 5.4683L110.262 -14.6944Z" fill="#FCBB51"/>
<path d="M41.2824 271.017C44.9398 266.958 51.6116 270.351 50.4863 275.697L47.4661 290.048C44.915 302.168 49.0077 314.731 58.2089 323.022L69.1028 332.84C73.1613 336.497 69.7685 343.169 64.4223 342.044L50.0719 339.023C37.9513 336.472 25.389 340.565 17.0972 349.766L7.27995 360.66C3.62252 364.719 -3.0492 361.326 -1.92399 355.98L1.09629 341.629C3.64729 329.509 -0.445377 316.946 -9.64659 308.654L-20.5404 298.837C-24.5989 295.18 -21.2061 288.508 -15.8599 289.633L-1.5096 292.654C10.611 295.205 23.1733 291.112 31.4652 281.911L41.2824 271.017Z" fill="#FCBB51"/>
<path d="M151.036 185.72C153.541 184.626 155.88 187.55 154.263 189.754L149.922 195.67C146.256 200.667 145.526 207.238 148.006 212.918L150.943 219.642C152.037 222.147 149.112 224.487 146.908 222.87L140.992 218.529C135.995 214.862 129.425 214.132 123.745 216.613L117.021 219.549C114.515 220.644 112.176 217.719 113.793 215.515L118.134 209.599C121.8 204.602 122.53 198.031 120.05 192.352L117.113 185.627C116.019 183.122 118.944 180.782 121.148 182.4L127.064 186.741C132.061 190.407 138.631 191.137 144.311 188.657L151.036 185.72Z" fill="#FCEBD0"/>
<g clip-path="url(#clip2_763_1060)">
<path d="M190.235 119.928L187.588 119.162L189.397 112.907L192.044 113.673L193.554 108.454L201.113 110.641L199.604 115.859L203.517 116.991L201.708 123.246L197.794 122.114L195.708 129.327C195.375 130.479 195.73 131.122 196.996 131.488L199.183 132.121L197.33 138.529L194.069 137.586C189.311 136.21 186.396 133.204 188.183 127.027L190.236 119.928L190.235 119.928Z" fill="#FCEBD0"/>
<path d="M213.111 119.476C216.182 120.364 217.942 122.327 218.5 124.568L219.365 121.576L226.886 123.751L220.66 145.276L213.139 143.101L214.005 140.108C212.337 141.705 209.762 142.415 206.73 141.539C201.627 140.063 198.769 134.704 200.756 127.835C202.743 120.966 208.009 117.999 213.112 119.475L213.111 119.476ZM213.631 126.736C211.482 126.114 209.273 127.138 208.429 130.054C207.586 132.971 208.896 135.054 211.045 135.676C213.195 136.297 215.414 135.235 216.257 132.319C217.101 129.402 215.741 127.346 213.631 126.736Z" fill="#FCEBD0"/>
<path d="M236.79 126.614L229.954 150.251C228.178 156.39 224.136 157.425 219.378 156.049L216.654 155.261L218.508 148.853L220.119 149.319C221.424 149.697 222.067 149.342 222.4 148.191L229.269 124.439L236.79 126.614ZM230.304 118.418C230.937 116.23 233.163 115.004 235.849 115.781C238.535 116.558 239.724 118.773 239.091 120.96C238.459 123.146 236.255 124.297 233.607 123.531C230.959 122.766 229.683 120.566 230.304 118.418Z" fill="#FCEBD0"/>
<path d="M247.149 129.32C250.219 130.208 251.979 132.172 252.537 134.413L253.402 131.42L260.923 133.596L254.697 155.121L247.176 152.946L248.042 149.953C246.374 151.549 243.799 152.26 240.767 151.383C235.664 149.907 232.806 144.549 234.793 137.68C236.78 130.811 242.046 127.843 247.149 129.319L247.149 129.32ZM247.668 136.58C245.52 135.959 243.31 136.983 242.466 139.899C241.623 142.815 242.933 144.899 245.082 145.52C247.232 146.142 249.451 145.079 250.294 142.163C251.138 139.247 249.778 137.191 247.668 136.58Z" fill="#FCEBD0"/>
<path d="M294.345 144.573C294.268 144.839 294.13 145.067 293.932 145.257C293.733 145.449 293.5 145.576 293.232 145.642C292.964 145.709 292.698 145.702 292.433 145.626C292.168 145.549 291.942 145.412 291.75 145.214C291.559 145.015 291.43 144.783 291.364 144.515C291.298 144.247 291.303 143.981 291.38 143.716C291.457 143.451 291.594 143.224 291.793 143.033C291.992 142.841 292.225 142.713 292.493 142.647C292.761 142.581 293.026 142.587 293.29 142.663C293.554 142.739 293.784 142.878 293.974 143.075C294.166 143.274 294.294 143.507 294.36 143.775C294.426 144.043 294.421 144.309 294.345 144.573ZM294.058 144.49C294.153 144.16 294.118 143.845 293.951 143.543C293.785 143.242 293.537 143.043 293.207 142.947C292.877 142.852 292.561 142.887 292.259 143.053C291.957 143.22 291.759 143.468 291.664 143.798C291.568 144.128 291.603 144.444 291.77 144.745C291.936 145.047 292.184 145.245 292.514 145.341C292.845 145.436 293.16 145.401 293.462 145.235C293.764 145.069 293.962 144.82 294.058 144.49ZM292.418 143.158L293.127 143.363C293.328 143.421 293.462 143.503 293.528 143.61C293.594 143.717 293.608 143.839 293.569 143.975C293.538 144.081 293.477 144.163 293.386 144.221C293.295 144.28 293.171 144.305 293.013 144.296C293.067 144.337 293.104 144.374 293.126 144.409C293.155 144.457 293.182 144.522 293.205 144.607C293.206 144.613 293.247 144.79 293.329 145.139L292.863 145.004C292.799 144.659 292.749 144.448 292.714 144.375C292.68 144.301 292.636 144.256 292.584 144.241C292.573 144.238 292.555 144.235 292.534 144.232L292.354 144.856L291.959 144.742L292.417 143.157L292.418 143.158ZM292.618 143.944L292.789 143.993C292.903 144.026 292.988 144.03 293.046 144.007C293.103 143.984 293.14 143.943 293.157 143.885C293.174 143.827 293.165 143.773 293.131 143.723C293.097 143.673 293.027 143.633 292.918 143.602L292.732 143.548L292.617 143.944L292.618 143.944Z" fill="#E35B33"/>
<path d="M266.465 138.391L262.665 145.073C261.688 146.791 261.942 148.998 263.393 150.34C263.874 150.786 264.462 151.128 265.134 151.322C267.437 151.988 269.845 150.661 270.511 148.357C269.845 150.661 271.172 153.068 273.476 153.735C275.779 154.401 278.187 153.073 278.853 150.77C278.187 153.073 279.514 155.481 281.818 156.147C282.489 156.342 283.17 156.367 283.814 156.247C285.757 155.886 287.15 154.156 287.241 152.181L287.595 144.502C287.688 142.485 286.385 140.667 284.445 140.106L271.476 136.354C269.535 135.793 267.464 136.636 266.465 138.391Z" fill="#E35B33"/>
</g>
</g>
</g>
<defs>
<filter id="filter0_d_763_1060" x="-57.3984" y="-45" width="1058.57" height="887.321" filterUnits="userSpaceOnUse" color-interpolation-filters="sRGB">
<feFlood flood-opacity="0" result="BackgroundImageFix"/>
<feColorMatrix in="SourceAlpha" type="matrix" values="0 0 0 0 0 0 0 0 0 0 0 0 0 0 0 0 0 0 127 0" result="hardAlpha"/>
<feOffset dx="347.456" dy="348.72"/>
<feGaussianBlur stdDeviation="68.8595"/>
<feColorMatrix type="matrix" values="0 0 0 0 0 0 0 0 0 0 0 0 0 0 0 0 0 0 0.01 0"/>
<feBlend mode="normal" in2="BackgroundImageFix" result="effect1_dropShadow_763_1060"/>
<feBlend mode="normal" in="SourceGraphic" in2="effect1_dropShadow_763_1060" result="shape"/>
</filter>
<filter id="filter1_ddddd_763_1060" x="-268.323" y="-55.4926" width="865.277" height="768.823" filterUnits="userSpaceOnUse" color-interpolation-filters="sRGB">
<feFlood flood-opacity="0" result="BackgroundImageFix"/>
<feColorMatrix in="SourceAlpha" type="matrix" values="0 0 0 0 0 0 0 0 0 0 0 0 0 0 0 0 0 0 127 0" result="hardAlpha"/>
<feOffset/>
<feColorMatrix type="matrix" values="0 0 0 0 0 0 0 0 0 0 0 0 0 0 0 0 0 0 0.22 0"/>
<feBlend mode="normal" in2="BackgroundImageFix" result="effect1_dropShadow_763_1060"/>
<feColorMatrix in="SourceAlpha" type="matrix" values="0 0 0 0 0 0 0 0 0 0 0 0 0 0 0 0 0 0 127 0" result="hardAlpha"/>
<feOffset dx="8.84434" dy="13.8982"/>
<feGaussianBlur stdDeviation="18.3204"/>
<feColorMatrix type="matrix" values="0 0 0 0 0 0 0 0 0 0 0 0 0 0 0 0 0 0 0.21 0"/>
<feBlend mode="normal" in2="effect1_dropShadow_763_1060" result="effect2_dropShadow_763_1060"/>
<feColorMatrix in="SourceAlpha" type="matrix" values="0 0 0 0 0 0 0 0 0 0 0 0 0 0 0 0 0 0 127 0" result="hardAlpha"/>
<feOffset dx="36.6408" dy="55.593"/>
<feGaussianBlur stdDeviation="33.4821"/>
<feColorMatrix type="matrix" values="0 0 0 0 0 0 0 0 0 0 0 0 0 0 0 0 0 0 0.19 0"/>
<feBlend mode="normal" in2="effect2_dropShadow_763_1060" result="effect3_dropShadow_763_1060"/>
<feColorMatrix in="SourceAlpha" type="matrix" values="0 0 0 0 0 0 0 0 0 0 0 0 0 0 0 0 0 0 127 0" result="hardAlpha"/>
<feOffset dx="83.3895" dy="125.084"/>
<feGaussianBlur stdDeviation="44.8534"/>
<feColorMatrix type="matrix" values="0 0 0 0 0 0 0 0 0 0 0 0 0 0 0 0 0 0 0.11 0"/>
<feBlend mode="normal" in2="effect3_dropShadow_763_1060" result="effect4_dropShadow_763_1060"/>
<feColorMatrix in="SourceAlpha" type="matrix" values="0 0 0 0 0 0 0 0 0 0 0 0 0 0 0 0 0 0 127 0" result="hardAlpha"/>
<feOffset dx="149.09" dy="222.372"/>
<feGaussianBlur stdDeviation="53.6978"/>
<feColorMatrix type="matrix" values="0 0 0 0 0 0 0 0 0 0 0 0 0 0 0 0 0 0 0.03 0"/>
<feBlend mode="normal" in2="effect4_dropShadow_763_1060" result="effect5_dropShadow_763_1060"/>
<feBlend mode="normal" in="SourceGraphic" in2="effect5_dropShadow_763_1060" result="shape"/>
</filter>
<clipPath id="clip0_763_1060">
<rect x="10.7539" y="-45" width="520.395" height="284.507" rx="25.2695" transform="rotate(13.8598 10.7539 -45)" fill="white"/>
</clipPath>
<clipPath id="clip1_763_1060">
<rect x="-159.977" y="-32.75" width="520.395" height="284.507" rx="25.2695" transform="rotate(15.9167 -159.977 -32.75)" fill="white"/>
</clipPath>
<clipPath id="clip2_763_1060">
<rect width="136.768" height="89.7936" fill="white" transform="translate(180.781 75.4248) rotate(16.1319)"/>
</clipPath>
</defs>
</svg>
