<svg width="374" height="372" viewBox="0 0 374 372" fill="none" xmlns="http://www.w3.org/2000/svg">
<g clip-path="url(#clip0_670_7646)">
<rect x="0.324219" width="373.676" height="808.467" rx="26.0459" fill="white"/>
<g clip-path="url(#clip1_670_7646)">
<path d="M25.5319 137.992L21.8022 123.282H25.6367L27.753 133.99L30.3723 123.282H34.3116L36.826 133.99L38.9633 123.282H42.8188L38.9843 137.992H34.6468L32.3 128.311L29.8694 137.992H25.5319ZM44.6158 137.992V122.486H48.1989V127.871C48.9113 126.865 50.1895 126.174 51.8029 126.174C54.4641 126.174 56.2451 128.018 56.2451 131.161V137.992H52.683V131.643C52.683 130.05 51.8029 129.17 50.4409 129.17C49.0789 129.17 48.1989 130.05 48.1989 131.643V137.992H44.6158ZM58.0226 132.125C58.0226 128.437 60.3066 126.132 63.1772 126.132C64.9164 126.132 66.1527 126.928 66.7813 127.955V126.299H70.3644V137.992H66.7813V136.336C66.1317 137.363 64.8954 138.159 63.1563 138.159C60.3066 138.159 58.0226 135.813 58.0226 132.125ZM66.7813 132.146C66.7813 130.281 65.5869 129.254 64.2249 129.254C62.8839 129.254 61.6686 130.26 61.6686 132.125C61.6686 133.99 62.8839 135.037 64.2249 135.037C65.5869 135.037 66.7813 134.01 66.7813 132.146ZM73.5223 133.927V129.275H72.0975V126.299H73.5223V123.45H77.1054V126.299H79.4523V129.275H77.1054V133.969C77.1054 134.66 77.3988 134.953 78.195 134.953H79.4732V137.992H77.6502C75.2196 137.992 73.5223 136.965 73.5223 133.927ZM87.8791 137.992L84.6942 126.299H88.2773L89.9326 134.66L91.9023 126.299H95.6949L97.6855 134.618L99.3199 126.299H102.693L99.5294 137.992H95.5692L93.7252 130.406L91.8184 137.992H87.8791ZM109.382 138.159C105.946 138.159 103.347 135.854 103.347 132.146C103.347 128.437 106.009 126.132 109.424 126.132C112.86 126.132 115.501 128.437 115.501 132.146C115.501 135.854 112.819 138.159 109.382 138.159ZM109.382 135.058C110.66 135.058 111.855 134.115 111.855 132.146C111.855 130.155 110.681 129.233 109.424 129.233C108.125 129.233 106.993 130.155 106.993 132.146C106.993 134.115 108.083 135.058 109.382 135.058ZM120.859 126.299V132.648C120.859 134.241 121.76 135.121 123.101 135.121C124.484 135.121 125.364 134.241 125.364 132.648V126.299H128.947V137.992H125.364V136.399C124.652 137.405 123.394 138.117 121.823 138.117C119.12 138.117 117.297 136.253 117.297 133.13V126.299H120.859ZM131.521 137.992V122.486H135.104V137.992H131.521ZM136.988 132.125C136.988 128.437 139.272 126.132 142.143 126.132C143.693 126.132 145.034 126.844 145.747 127.913V122.486H149.33V137.992H145.747V136.315C145.097 137.384 143.861 138.159 142.143 138.159C139.272 138.159 136.988 135.813 136.988 132.125ZM145.747 132.146C145.747 130.281 144.552 129.254 143.19 129.254C141.849 129.254 140.634 130.26 140.634 132.125C140.634 133.99 141.849 135.037 143.19 135.037C144.552 135.037 145.747 134.01 145.747 132.146ZM161.748 133.612L164.43 126.299H168.306L160.972 143.544H157.117L159.799 137.594L155.042 126.299H159.045L161.748 133.612ZM174.924 138.159C171.488 138.159 168.889 135.854 168.889 132.146C168.889 128.437 171.551 126.132 174.966 126.132C178.402 126.132 181.043 128.437 181.043 132.146C181.043 135.854 178.361 138.159 174.924 138.159ZM174.924 135.058C176.202 135.058 177.397 134.115 177.397 132.146C177.397 130.155 176.223 129.233 174.966 129.233C173.667 129.233 172.535 130.155 172.535 132.146C172.535 134.115 173.625 135.058 174.924 135.058ZM186.401 126.299V132.648C186.401 134.241 187.302 135.121 188.643 135.121C190.026 135.121 190.906 134.241 190.906 132.648V126.299H194.489V137.992H190.906V136.399C190.194 137.405 188.936 138.117 187.365 138.117C184.662 138.117 182.839 136.253 182.839 133.13V126.299H186.401ZM201.503 137.992V122.486H205.086V137.992H201.503ZM209.485 125.084C208.207 125.084 207.348 124.225 207.348 123.156C207.348 122.067 208.207 121.208 209.485 121.208C210.742 121.208 211.601 122.067 211.601 123.156C211.601 124.225 210.742 125.084 209.485 125.084ZM207.683 137.992V126.299H211.266V137.992H207.683ZM213.863 137.992V122.486H217.446V131.056L220.987 126.299H225.408L220.547 132.167L225.45 137.992H221.008L217.446 133.089V137.992H213.863ZM237.565 134.115C236.999 136.399 234.925 138.159 232.012 138.159C228.576 138.159 226.103 135.854 226.103 132.146C226.103 128.437 228.534 126.132 232.012 126.132C235.428 126.132 237.837 128.395 237.837 131.957C237.837 132.292 237.816 132.648 237.774 133.005H229.665C229.791 134.534 230.734 135.247 231.886 135.247C232.892 135.247 233.458 134.744 233.751 134.115H237.565ZM231.97 129.003C230.797 129.003 229.896 129.715 229.686 131.014H234.17C234.17 129.736 233.165 129.003 231.97 129.003ZM23.1432 161.927V157.275H21.7183V154.299H23.1432V151.45H26.7263V154.299H29.0731V157.275H26.7263V161.969C26.7263 162.66 27.0197 162.953 27.8159 162.953H29.0941V165.992H27.2711C24.8405 165.992 23.1432 164.965 23.1432 161.927ZM36.4122 166.159C32.9758 166.159 30.3775 163.854 30.3775 160.146C30.3775 156.437 33.0386 154.132 36.4541 154.132C39.8905 154.132 42.5307 156.437 42.5307 160.146C42.5307 163.854 39.8486 166.159 36.4122 166.159ZM36.4122 163.058C37.6904 163.058 38.8847 162.115 38.8847 160.146C38.8847 158.155 37.7113 157.233 36.4541 157.233C35.155 157.233 34.0235 158.155 34.0235 160.146C34.0235 162.115 35.1131 163.058 36.4122 163.058ZM53.6285 166.159C50.5064 166.159 48.411 164.42 48.2434 162.157H51.7846C51.8684 162.974 52.6018 163.519 53.5866 163.519C54.5086 163.519 54.9905 163.1 54.9905 162.576C54.9905 160.69 48.6206 162.052 48.6206 157.757C48.6206 155.766 50.3178 154.132 53.3771 154.132C56.3944 154.132 58.0707 155.808 58.3012 158.113H54.9905C54.8857 157.317 54.2781 156.793 53.2723 156.793C52.4342 156.793 51.9732 157.128 51.9732 157.694C51.9732 159.559 58.3012 158.239 58.3641 162.597C58.3641 164.63 56.5621 166.159 53.6285 166.159ZM60.5562 165.992V150.486H64.1393V155.871C64.8517 154.865 66.1299 154.174 67.7434 154.174C70.4045 154.174 72.1856 156.018 72.1856 159.161V165.992H68.6234V159.643C68.6234 158.05 67.7434 157.17 66.3814 157.17C65.0194 157.17 64.1393 158.05 64.1393 159.643V165.992H60.5562ZM79.9977 166.159C76.5613 166.159 73.963 163.854 73.963 160.146C73.963 156.437 76.6242 154.132 80.0396 154.132C83.4761 154.132 86.1162 156.437 86.1162 160.146C86.1162 163.854 83.4341 166.159 79.9977 166.159ZM79.9977 163.058C81.2759 163.058 82.4703 162.115 82.4703 160.146C82.4703 158.155 81.2969 157.233 80.0396 157.233C78.7405 157.233 77.609 158.155 77.609 160.146C77.609 162.115 78.6986 163.058 79.9977 163.058ZM91.6002 155.955C92.2498 154.928 93.4861 154.132 95.2043 154.132C98.075 154.132 100.359 156.437 100.359 160.125C100.359 163.813 98.075 166.159 95.2043 166.159C93.4861 166.159 92.2498 165.342 91.6002 164.357V171.565H88.0171V154.299H91.6002V155.955ZM96.713 160.125C96.713 158.26 95.4976 157.254 94.1356 157.254C92.7946 157.254 91.5793 158.281 91.5793 160.146C91.5793 162.01 92.7946 163.037 94.1356 163.037C95.4976 163.037 96.713 161.99 96.713 160.125ZM107.245 161.927V157.275H105.82V154.299H107.245V151.45H110.828V154.299H113.175V157.275H110.828V161.969C110.828 162.66 111.121 162.953 111.918 162.953H113.196V165.992H111.373C108.942 165.992 107.245 164.965 107.245 161.927ZM120.514 166.159C117.077 166.159 114.479 163.854 114.479 160.146C114.479 156.437 117.14 154.132 120.556 154.132C123.992 154.132 126.632 156.437 126.632 160.146C126.632 163.854 123.95 166.159 120.514 166.159ZM120.514 163.058C121.792 163.058 122.986 162.115 122.986 160.146C122.986 158.155 121.813 157.233 120.556 157.233C119.257 157.233 118.125 158.155 118.125 160.146C118.125 162.115 119.215 163.058 120.514 163.058ZM127.821 160.125C127.821 156.437 130.105 154.132 132.975 154.132C134.526 154.132 135.867 154.844 136.58 155.913V150.486H140.163V165.992H136.58V164.315C135.93 165.384 134.694 166.159 132.975 166.159C130.105 166.159 127.821 163.813 127.821 160.125ZM136.58 160.146C136.58 158.281 135.385 157.254 134.023 157.254C132.682 157.254 131.467 158.26 131.467 160.125C131.467 161.99 132.682 163.037 134.023 163.037C135.385 163.037 136.58 162.01 136.58 160.146ZM142.042 160.125C142.042 156.437 144.326 154.132 147.197 154.132C148.936 154.132 150.172 154.928 150.801 155.955V154.299H154.384V165.992H150.801V164.336C150.152 165.363 148.915 166.159 147.176 166.159C144.326 166.159 142.042 163.813 142.042 160.125ZM150.801 160.146C150.801 158.281 149.607 157.254 148.245 157.254C146.904 157.254 145.688 158.26 145.688 160.125C145.688 161.99 146.904 163.037 148.245 163.037C149.607 163.037 150.801 162.01 150.801 160.146ZM162.362 161.612L165.044 154.299H168.92L161.586 171.544H157.731L160.413 165.594L155.656 154.299H159.658L162.362 161.612ZM174.511 150.465C177.424 150.465 179.456 152.036 179.456 154.949C179.456 157.652 177.508 159.119 174.763 159.14L174.658 160.711H171.515L171.41 156.814H172.667C174.637 156.814 175.999 156.458 175.978 154.928C175.978 153.985 175.391 153.398 174.469 153.398C173.443 153.398 172.877 154.027 172.877 154.991H169.503C169.44 152.477 171.201 150.465 174.511 150.465ZM173.107 166.159C171.829 166.159 170.97 165.3 170.97 164.232C170.97 163.121 171.829 162.262 173.107 162.262C174.365 162.262 175.224 163.121 175.224 164.232C175.224 165.3 174.365 166.159 173.107 166.159Z" fill="#111111"/>
<path d="M42.7783 217.323C46.2138 217.323 48.9989 214.538 48.9989 211.102C48.9989 207.667 46.2138 204.882 42.7783 204.882C39.3427 204.882 36.5576 207.667 36.5576 211.102C36.5576 214.538 39.3427 217.323 42.7783 217.323Z" stroke="#CBD1D7" stroke-width="1.30961" stroke-linecap="round" stroke-linejoin="round"/>
<path d="M49.6534 217.978L48.3438 216.668" stroke="#CBD1D7" stroke-width="1.30961" stroke-linecap="round" stroke-linejoin="round"/>
<path d="M66.3707 213.997C66.3707 215.743 64.9738 217.07 62.5431 217.07C60.1265 217.07 58.6597 215.743 58.534 213.745H60.0985C60.1684 215.016 60.9786 215.841 62.5152 215.841C63.7864 215.841 64.7363 215.24 64.7363 214.206C64.7363 213.368 64.1915 212.949 63.0321 212.698L61.5793 212.418C60.1684 212.139 58.8832 211.426 58.8832 209.722C58.8832 208.032 60.3639 206.761 62.4453 206.761C64.5268 206.761 66.1053 208.032 66.231 210.029H64.6664C64.5826 208.828 63.7165 207.99 62.4593 207.99C61.1602 207.99 60.4478 208.758 60.4478 209.624C60.4478 210.574 61.2719 210.909 62.2079 211.105L63.6886 211.398C65.4068 211.748 66.3707 212.502 66.3707 213.997ZM71.0831 217.07C68.9458 217.07 67.507 215.519 67.507 213.186C67.507 210.993 69.0017 209.387 71.0412 209.387C73.2483 209.387 74.7151 211.175 74.4637 213.578H68.9458C69.0576 215.086 69.8119 215.966 71.0552 215.966C72.1029 215.966 72.8293 215.394 73.0667 214.43H74.4637C74.1005 216.078 72.8293 217.07 71.0831 217.07ZM71.0133 210.448C69.8818 210.448 69.1135 211.259 68.9598 212.642H72.969C72.8991 211.273 72.1587 210.448 71.0133 210.448ZM80.4478 216.93V215.785C79.9868 216.609 79.1627 217.07 78.0731 217.07C76.5364 217.07 75.5307 216.19 75.5307 214.835C75.5307 213.382 76.6901 212.628 78.8972 212.628C79.3303 212.628 79.6795 212.642 80.2802 212.711V212.167C80.2802 211.105 79.7075 210.504 78.7296 210.504C77.6959 210.504 77.0673 211.119 77.0254 212.153H75.7402C75.81 210.49 76.9974 209.387 78.7296 209.387C80.5596 209.387 81.6212 210.421 81.6212 212.181V216.93H80.4478ZM76.8717 214.793C76.8717 215.561 77.4444 216.064 78.3524 216.064C79.5398 216.064 80.2802 215.324 80.2802 214.192V213.592C79.7354 213.522 79.3443 213.508 78.9811 213.508C77.5702 213.508 76.8717 213.927 76.8717 214.793ZM84.9185 213.145V216.93H83.5076V209.527H84.8207V211.091C85.3376 210.071 86.4551 209.429 87.6704 209.429V210.895C86.078 210.812 84.9185 211.51 84.9185 213.145ZM91.6793 217.084C89.6537 217.084 88.2289 215.491 88.2289 213.228C88.2289 210.993 89.6817 209.387 91.6793 209.387C93.5092 209.387 94.8363 210.602 95.1017 212.53H93.621C93.4673 211.342 92.727 210.63 91.6932 210.63C90.4779 210.63 89.6817 211.664 89.6817 213.228C89.6817 214.807 90.4779 215.827 91.6932 215.827C92.7409 215.827 93.4673 215.128 93.635 213.927H95.1017C94.8503 215.882 93.5372 217.084 91.6793 217.084ZM97.9328 212.753V216.93H96.5219V206.9H97.9328V210.714C98.4217 209.918 99.176 209.387 100.196 209.387C101.718 209.387 102.724 210.365 102.724 212.139V216.93H101.313V212.614C101.313 211.342 100.755 210.63 99.7069 210.63C98.743 210.63 97.9328 211.44 97.9328 212.753ZM112.001 216.93V215.785C111.54 216.609 110.716 217.07 109.627 217.07C108.09 217.07 107.084 216.19 107.084 214.835C107.084 213.382 108.244 212.628 110.451 212.628C110.884 212.628 111.233 212.642 111.834 212.711V212.167C111.834 211.105 111.261 210.504 110.283 210.504C109.249 210.504 108.621 211.119 108.579 212.153H107.294C107.364 210.49 108.551 209.387 110.283 209.387C112.113 209.387 113.175 210.421 113.175 212.181V216.93H112.001ZM108.425 214.793C108.425 215.561 108.998 216.064 109.906 216.064C111.093 216.064 111.834 215.324 111.834 214.192V213.592C111.289 213.522 110.898 213.508 110.535 213.508C109.124 213.508 108.425 213.927 108.425 214.793ZM116.472 212.753V216.93H115.061V209.527H116.374V210.756C116.877 209.932 117.715 209.387 118.735 209.387C120.258 209.387 121.263 210.365 121.263 212.139V216.93H119.853V212.614C119.853 211.342 119.294 210.63 118.246 210.63C117.282 210.63 116.472 211.44 116.472 212.753ZM129.011 209.527L125.309 219.626H123.772L124.834 216.832L121.914 209.527H123.437L125.588 215.17L127.586 209.527H129.011ZM134.462 215.561V216.804C134.029 217 133.652 217.07 133.205 217.07C131.836 217.07 130.886 216.33 130.886 214.695V210.728H129.252V209.527H130.886V207.333H132.297V209.527H134.532V210.728H132.297V214.374C132.297 215.394 132.786 215.757 133.54 215.757C133.875 215.757 134.169 215.701 134.462 215.561ZM137.289 212.753V216.93H135.878V206.9H137.289V210.714C137.778 209.918 138.533 209.387 139.552 209.387C141.075 209.387 142.081 210.365 142.081 212.139V216.93H140.67V212.614C140.67 211.342 140.111 210.63 139.063 210.63C138.1 210.63 137.289 211.44 137.289 212.753ZM145.673 207.808C145.673 208.339 145.254 208.744 144.653 208.744C144.052 208.744 143.619 208.339 143.619 207.808C143.619 207.263 144.052 206.872 144.653 206.872C145.254 206.872 145.673 207.263 145.673 207.808ZM145.365 216.93H143.954V209.527H145.365V216.93ZM148.735 212.753V216.93H147.324V209.527H148.637V210.756C149.14 209.932 149.978 209.387 150.998 209.387C152.52 209.387 153.526 210.365 153.526 212.139V216.93H152.115V212.614C152.115 211.342 151.557 210.63 150.509 210.63C149.545 210.63 148.735 211.44 148.735 212.753ZM158.361 219.78C156.42 219.78 155.162 218.746 155.079 217.07H156.448C156.531 218.104 157.202 218.662 158.347 218.662C159.619 218.662 160.289 217.978 160.289 216.707V215.366C159.87 216.26 159.032 216.777 158.026 216.777C156.182 216.777 154.869 215.254 154.869 213.075C154.869 210.868 156.126 209.387 157.984 209.387C159.046 209.387 159.884 209.904 160.387 210.84V209.527H161.7V216.679C161.7 218.62 160.457 219.78 158.361 219.78ZM156.294 213.075C156.294 214.611 157.048 215.547 158.278 215.547C159.479 215.547 160.289 214.583 160.289 213.117C160.289 211.58 159.493 210.602 158.278 210.602C157.062 210.602 156.294 211.552 156.294 213.075ZM168.486 215.924C168.486 216.553 168.053 217 167.411 217C166.782 217 166.335 216.553 166.335 215.924C166.335 215.268 166.782 214.821 167.411 214.821C168.053 214.821 168.486 215.268 168.486 215.924ZM172.115 215.924C172.115 216.553 171.682 217 171.039 217C170.411 217 169.964 216.553 169.964 215.924C169.964 215.268 170.411 214.821 171.039 214.821C171.682 214.821 172.115 215.268 172.115 215.924ZM175.744 215.924C175.744 216.553 175.311 217 174.668 217C174.039 217 173.592 216.553 173.592 215.924C173.592 215.268 174.039 214.821 174.668 214.821C175.311 214.821 175.744 215.268 175.744 215.924Z" fill="#637381"/>
<rect x="21.7149" y="187.42" width="243.272" height="48.0191" rx="10.0404" stroke="#D7DBE0" stroke-width="0.873075"/>
<rect x="272.845" y="187.397" width="79.7653" height="48.0653" rx="10.0404" fill="#F3F5F6"/>
<path d="M301.73 209.254V208.156C301.73 205.959 299.933 204.154 297.728 204.154C295.531 204.154 293.727 205.951 293.727 208.156V209.254" stroke="#CBD1D7" stroke-width="1.30961" stroke-linecap="round" stroke-linejoin="round"/>
<path d="M293.727 213.613V214.704C293.727 216.908 295.524 218.706 297.728 218.706C299.925 218.706 301.73 216.908 301.73 214.704V213.613" stroke="#CBD1D7" stroke-width="1.30961" stroke-linecap="round" stroke-linejoin="round"/>
<path opacity="0.4" d="M297.728 214.34V208.52" stroke="#CBD1D7" stroke-width="1.30961" stroke-linecap="round" stroke-linejoin="round"/>
<path d="M318.192 206.9V213.326C318.192 215.631 316.711 217.14 314.308 217.14C311.906 217.14 310.439 215.631 310.439 213.326V206.9H311.976V213.368C311.976 214.821 312.828 215.757 314.308 215.757C315.803 215.757 316.655 214.821 316.655 213.368V206.9H318.192ZM321.867 216.93H320.33V206.9H324.074C326.379 206.9 327.762 208.032 327.762 210.029C327.762 211.468 326.854 212.572 325.331 212.935L328.055 216.93H326.211L323.711 213.158H321.867V216.93ZM321.867 208.185V211.873H323.976C325.401 211.873 326.211 211.245 326.211 210.029C326.211 208.828 325.401 208.185 323.976 208.185H321.867ZM335.615 216.93H329.538V206.9H331.075V215.547H335.615V216.93Z" fill="#637381"/>
<rect x="272.845" y="187.397" width="79.7653" height="48.0653" rx="10.0404" stroke="#D7DBE0" stroke-width="0.873075"/>
<rect x="21.2793" y="256.853" width="48.8922" height="48.8922" rx="24.4461" fill="#EEF0F2"/>
<path d="M45.8115 285.138C49.056 285.369 51.219 279.344 51.8949 276.302C51.0838 276.302 48.841 274.269 46.6806 273.26C41.4663 270.827 39.4186 272.614 39.5833 275.578C40.0468 283.921 43.9286 285.427 45.8115 285.138Z" stroke="#637381" stroke-width="1.74615" stroke-linejoin="round"/>
<path d="M40.4478 284.558C38.6132 284.896 34.6252 284.674 33.3506 281.082C34.5093 280.744 36.7689 278.707 36.5371 273.261C36.5371 269.64 39.8685 265.584 44.6483 265.584H44.7931" stroke="#637381" stroke-width="1.74615" stroke-linecap="round" stroke-linejoin="round"/>
<path d="M50.7397 284.558C52.5743 284.896 56.5623 284.674 57.8369 281.082C56.6782 280.744 54.4186 278.707 54.6504 273.261C54.6504 269.64 51.319 265.584 46.5392 265.584" stroke="#637381" stroke-width="1.74615" stroke-linecap="round" stroke-linejoin="round"/>
<path d="M42.9117 284.413C42.8152 285.717 41.5792 288.353 37.4078 288.469C36.1042 288.469 33.4101 289.454 33.0625 293.394" stroke="#637381" stroke-width="1.74615" stroke-linecap="round" stroke-linejoin="round"/>
<path d="M48.2718 284.413C48.3684 285.717 49.6044 288.353 53.7758 288.469C55.0794 288.469 57.7735 289.454 58.1211 293.394" stroke="#637381" stroke-width="1.74615" stroke-linecap="round" stroke-linejoin="round"/>
<path d="M30.7917 326.73L29.1538 320.594L27.5159 326.73H25.6335L23.3845 317.954H25.1935L26.6114 323.906L28.2248 317.954H30.1194L31.6839 323.931L33.114 317.954H34.9353L32.674 326.73H30.7917ZM38.2078 326.852C36.3132 326.852 34.8953 325.361 34.8953 323.466C34.8953 321.56 36.3132 320.081 38.2078 320.081C40.1024 320.081 41.5202 321.56 41.5202 323.466C41.5202 325.361 40.1024 326.852 38.2078 326.852ZM38.2078 325.349C39.0512 325.349 39.7723 324.677 39.7723 323.466C39.7723 322.256 39.0512 321.596 38.2078 321.596C37.3644 321.596 36.6432 322.256 36.6432 323.466C36.6432 324.677 37.3644 325.349 38.2078 325.349ZM44.3035 326.73H42.6045V320.203H44.169V321.132C44.6457 320.472 45.2569 320.081 46.1247 320.081C47.017 320.081 47.7015 320.496 48.0315 321.242C48.5449 320.521 49.2049 320.081 50.1827 320.081C51.5028 320.081 52.3951 320.948 52.3951 322.513V326.73H50.7083V323.051C50.7083 322.134 50.3172 321.584 49.5716 321.584C48.8993 321.584 48.3493 322.11 48.3493 323.088V326.73H46.6625V323.051C46.6625 322.134 46.2714 321.584 45.5258 321.584C44.8413 321.584 44.3035 322.11 44.3035 323.088V326.73ZM56.6845 326.84C54.7288 326.84 53.4209 325.483 53.4209 323.442C53.4209 321.499 54.7777 320.081 56.66 320.081C58.7257 320.081 60.0947 321.755 59.7891 323.882H55.1566C55.2666 324.945 55.7799 325.532 56.6478 325.532C57.3934 325.532 57.8945 325.165 58.0901 324.518H59.7769C59.4102 325.997 58.2734 326.84 56.6845 326.84ZM56.6233 321.327C55.8288 321.327 55.3277 321.841 55.181 322.806H57.9923C57.9434 321.902 57.4301 321.327 56.6233 321.327ZM62.6261 323.173V326.73H60.9271V320.203H62.4916V321.132C62.9683 320.484 63.6406 320.081 64.4962 320.081C65.8041 320.081 66.7086 320.936 66.7086 322.513V326.73H65.0218V323.088C65.0218 322.122 64.6429 321.584 63.8728 321.584C63.2006 321.584 62.6261 322.122 62.6261 323.173Z" fill="#111111"/>
<rect x="93.1865" y="256.853" width="48.8922" height="48.8922" rx="24.4461" fill="#EEF0F2"/>
<path d="M123.648 277.943H124.427H124.436L124.436 277.943C124.599 277.949 124.756 278.003 124.887 278.1C125.018 278.196 125.117 278.33 125.171 278.483L125.186 278.525V278.57C125.186 278.715 125.181 278.858 125.173 278.999L127.684 289.61C127.777 290.004 127.78 290.414 127.693 290.809C127.605 291.205 127.429 291.575 127.178 291.892C126.926 292.21 126.607 292.467 126.242 292.643C125.878 292.819 125.478 292.911 125.074 292.911H109.571C109.166 292.911 108.767 292.819 108.402 292.643C108.038 292.467 107.718 292.21 107.467 291.892C107.216 291.575 107.04 291.205 106.952 290.809C106.864 290.414 106.867 290.004 106.961 289.61L109.472 278.999C109.464 278.858 109.459 278.715 109.459 278.57M123.648 277.943L109.721 278.57M123.648 277.943V275.14C123.648 273.462 122.982 271.853 121.796 270.667C120.609 269.48 119 268.814 117.322 268.814C115.645 268.814 114.036 269.48 112.849 270.667C111.663 271.853 110.996 273.462 110.996 275.14V277.943M123.648 277.943H110.996M109.459 278.57H109.721M109.459 278.57C109.459 278.57 109.459 278.571 109.459 278.571L109.721 278.57M109.459 278.57C109.459 278.478 109.479 278.387 109.517 278.304C109.556 278.221 109.613 278.147 109.684 278.088C109.755 278.029 109.838 277.986 109.927 277.963C110.001 277.944 110.077 277.938 110.152 277.947M109.721 278.57C109.72 278.516 109.732 278.463 109.755 278.415C109.777 278.366 109.811 278.323 109.852 278.289C109.893 278.255 109.941 278.23 109.993 278.217C110.045 278.203 110.099 278.201 110.152 278.211M110.152 277.947C110.136 277.948 110.119 277.951 110.103 277.954L110.152 278.211M110.152 277.947C110.173 277.944 110.195 277.943 110.217 277.943L110.218 277.943L110.996 277.943M110.152 277.947C110.168 277.948 110.184 277.951 110.2 277.954L110.152 278.211M110.152 278.211C110.173 278.207 110.196 278.205 110.218 278.205L110.996 277.943M126.195 291.114L126.194 291.115C126.06 291.284 125.89 291.421 125.696 291.515C125.502 291.609 125.29 291.657 125.074 291.657H125.074H109.571C109.356 291.657 109.143 291.608 108.949 291.514C108.755 291.42 108.584 291.284 108.451 291.114C108.317 290.945 108.223 290.748 108.176 290.538C108.13 290.327 108.131 290.109 108.181 289.899L110.118 281.716C110.5 282.587 111.038 283.385 111.707 284.068C112.539 284.918 113.552 285.568 114.669 285.971C114.723 286.486 115.028 286.927 115.465 287.241C115.947 287.586 116.603 287.788 117.322 287.788C118.042 287.788 118.697 287.586 119.18 287.241C119.617 286.927 119.922 286.486 119.976 285.971C121.093 285.568 122.105 284.918 122.937 284.068C123.607 283.385 124.145 282.587 124.527 281.716L126.464 289.899L126.464 289.9C126.514 290.109 126.516 290.328 126.469 290.538C126.423 290.748 126.329 290.945 126.195 291.114ZM112.25 275.14C112.25 273.795 112.785 272.505 113.736 271.554C114.687 270.602 115.977 270.068 117.322 270.068C118.668 270.068 119.958 270.602 120.909 271.554C121.86 272.505 122.394 273.795 122.394 275.14V277.943H112.25L112.25 275.14ZM112.108 282.625C111.337 281.634 110.865 280.445 110.744 279.197H123.901C123.78 280.445 123.307 281.634 122.536 282.625C121.778 283.601 120.762 284.344 119.605 284.771C119.132 284.182 118.276 283.825 117.322 283.825C116.368 283.825 115.513 284.182 115.04 284.771C113.883 284.344 112.867 283.601 112.108 282.625ZM118.73 285.806C118.73 285.942 118.63 286.119 118.363 286.277C118.105 286.43 117.734 286.534 117.322 286.534C116.91 286.534 116.54 286.43 116.281 286.277C116.014 286.119 115.914 285.942 115.914 285.806C115.914 285.671 116.014 285.494 116.281 285.336C116.54 285.183 116.91 285.079 117.322 285.079C117.734 285.079 118.105 285.183 118.363 285.336C118.63 285.494 118.73 285.671 118.73 285.806Z" fill="#637381" stroke="#637381" stroke-width="0.523845"/>
<path d="M90.7329 326.73H88.8749V317.954H90.7329V321.413H94.5342V317.954H96.3921V326.73H94.5342V323.014H90.7329V326.73ZM101.938 326.73V325.923C101.51 326.534 100.862 326.852 99.9697 326.852C98.613 326.852 97.7085 326.058 97.7085 324.835C97.7085 323.564 98.7352 322.88 100.642 322.88C101.009 322.88 101.327 322.904 101.73 322.953V322.562C101.73 321.829 101.314 321.401 100.605 321.401C99.872 321.401 99.4319 321.829 99.3708 322.562H97.8429C97.9407 321.058 99.0286 320.081 100.605 320.081C102.317 320.081 103.319 321.022 103.319 322.623V326.73H101.938ZM99.3097 324.787C99.3097 325.337 99.7008 325.679 100.336 325.679C101.204 325.679 101.73 325.202 101.73 324.444V323.98C101.327 323.919 101.045 323.894 100.752 323.894C99.7864 323.894 99.3097 324.2 99.3097 324.787ZM106.482 323.173V326.73H104.783V320.203H106.348V321.132C106.824 320.484 107.496 320.081 108.352 320.081C109.66 320.081 110.564 320.936 110.564 322.513V326.73H108.878V323.088C108.878 322.122 108.499 321.584 107.729 321.584C107.056 321.584 106.482 322.122 106.482 323.173ZM111.601 323.466C111.601 321.535 112.737 320.081 114.498 320.081C115.28 320.081 115.94 320.423 116.429 321.046V317.954H118.116V326.73H116.563V325.789C116.05 326.473 115.341 326.852 114.498 326.852C112.737 326.852 111.601 325.373 111.601 323.466ZM113.349 323.466C113.349 324.689 114.045 325.337 114.876 325.337C115.72 325.337 116.417 324.677 116.417 323.442C116.417 322.207 115.708 321.584 114.876 321.584C114.045 321.584 113.349 322.22 113.349 323.466ZM126.147 323.466C126.147 325.373 125.01 326.852 123.25 326.852C122.407 326.852 121.698 326.473 121.197 325.789V326.73H119.632V317.954H121.331V321.046C121.808 320.411 122.468 320.081 123.25 320.081C125.01 320.081 126.147 321.535 126.147 323.466ZM124.399 323.466C124.399 322.22 123.702 321.584 122.871 321.584C122.052 321.584 121.343 322.207 121.343 323.442C121.343 324.677 122.028 325.337 122.871 325.337C123.702 325.337 124.399 324.689 124.399 323.466ZM131.123 326.73V325.923C130.695 326.534 130.047 326.852 129.155 326.852C127.798 326.852 126.893 326.058 126.893 324.835C126.893 323.564 127.92 322.88 129.827 322.88C130.194 322.88 130.511 322.904 130.915 322.953V322.562C130.915 321.829 130.499 321.401 129.79 321.401C129.057 321.401 128.617 321.829 128.556 322.562H127.028C127.126 321.058 128.213 320.081 129.79 320.081C131.501 320.081 132.504 321.022 132.504 322.623V326.73H131.123ZM128.495 324.787C128.495 325.337 128.886 325.679 129.521 325.679C130.389 325.679 130.915 325.202 130.915 324.444V323.98C130.511 323.919 130.23 323.894 129.937 323.894C128.971 323.894 128.495 324.2 128.495 324.787ZM136.742 329.211C134.982 329.211 133.809 328.258 133.736 326.754H135.374C135.447 327.5 135.924 327.891 136.73 327.891C137.671 327.891 138.16 327.39 138.16 326.449V325.495C137.806 326.119 137.134 326.486 136.339 326.486C134.738 326.486 133.54 325.129 133.54 323.283C133.54 321.389 134.665 320.081 136.278 320.081C137.158 320.081 137.818 320.423 138.295 321.095V320.203H139.847V326.424C139.847 328.16 138.674 329.211 136.742 329.211ZM135.239 323.283C135.239 324.346 135.789 325.019 136.669 325.019C137.561 325.019 138.148 324.322 138.148 323.295C138.148 322.232 137.561 321.547 136.669 321.547C135.801 321.547 135.239 322.22 135.239 323.283ZM146.893 324.64C146.893 326.009 145.854 326.852 143.996 326.852C142.138 326.852 141.099 325.96 140.965 324.505H142.591C142.603 325.178 143.177 325.605 144.021 325.605C144.681 325.605 145.182 325.398 145.182 324.933C145.182 324.518 144.913 324.346 144.29 324.224L143.116 324.004C141.943 323.796 141.234 323.149 141.234 322.134C141.234 320.924 142.273 320.081 143.898 320.081C145.536 320.081 146.661 320.948 146.783 322.354H145.157C145.096 321.719 144.62 321.327 143.898 321.327C143.275 321.327 142.859 321.56 142.859 321.975C142.859 322.366 143.128 322.525 143.715 322.635L144.974 322.867C146.245 323.112 146.893 323.699 146.893 324.64Z" fill="#111111"/>
<rect x="165.095" y="256.853" width="48.8922" height="48.8922" rx="24.4461" fill="#EEF0F2"/>
<path d="M190.506 283.88C192.391 283.88 195.858 281.942 197.344 273.252C197.775 269.902 195.649 265.584 190.411 265.584C185.172 265.584 183.254 269.216 183.441 272.686C183.967 282.455 188.37 284.219 190.506 283.88Z" stroke="#637381" stroke-width="1.74615" stroke-linejoin="round"/>
<path d="M193.911 282.172C194.017 283.617 195.382 286.54 199.985 286.668C201.424 286.668 204.398 287.76 204.781 292.127" stroke="#637381" stroke-width="1.74615" stroke-linecap="round" stroke-linejoin="round"/>
<path d="M186.049 282.172C185.943 283.617 184.578 286.54 179.974 286.668C178.536 286.668 175.562 287.76 175.179 292.127" stroke="#637381" stroke-width="1.74615" stroke-linecap="round" stroke-linejoin="round"/>
<path d="M183.429 274.315C184.436 273.878 186.451 272.743 186.451 271.695H191.286" stroke="#637381" stroke-width="1.74615" stroke-linejoin="round"/>
<path d="M196.527 274.315C195.856 273.878 194.513 272.743 194.513 271.695H191.289" stroke="#637381" stroke-width="1.74615" stroke-linejoin="round"/>
<path d="M188.666 290.03C189.148 290.03 189.539 289.639 189.539 289.157C189.539 288.675 189.148 288.284 188.666 288.284V290.03ZM181.726 286.814C182.183 288.183 184.271 290.03 188.666 290.03V288.284C184.68 288.284 183.509 286.639 183.383 286.262L181.726 286.814Z" fill="#637381"/>
<path d="M192.158 290.03C191.676 290.03 191.285 289.639 191.285 289.157C191.285 288.675 191.676 288.284 192.158 288.284V290.03ZM198.236 286.778C197.855 288.112 196.042 290.03 192.158 290.03V288.284C195.458 288.284 196.439 286.71 196.557 286.298L198.236 286.778Z" fill="#637381"/>
<path d="M181.598 326.73L179.3 320.9V326.73H177.614V317.954H179.838L182.381 324.456L184.935 317.954H187.16V326.73H185.473V320.851L183.151 326.73H181.598ZM191.643 326.84C189.687 326.84 188.379 325.483 188.379 323.442C188.379 321.499 189.736 320.081 191.618 320.081C193.684 320.081 195.053 321.755 194.747 323.882H190.115C190.225 324.945 190.738 325.532 191.606 325.532C192.351 325.532 192.853 325.165 193.048 324.518H194.735C194.368 325.997 193.232 326.84 191.643 326.84ZM191.581 321.327C190.787 321.327 190.286 321.841 190.139 322.806H192.95C192.901 321.902 192.388 321.327 191.581 321.327ZM197.584 323.173V326.73H195.885V320.203H197.45V321.132C197.926 320.484 198.599 320.081 199.454 320.081C200.762 320.081 201.667 320.936 201.667 322.513V326.73H199.98V323.088C199.98 322.122 199.601 321.584 198.831 321.584C198.159 321.584 197.584 322.122 197.584 323.173Z" fill="#111111"/>
<rect x="231.448" y="256.853" width="48.8922" height="48.8922" rx="24.4461" fill="#EEF0F2"/>
<path d="M250.577 285.3H250.577C251.973 285.302 253.336 285.72 254.492 286.501C254.492 286.501 254.492 286.501 254.492 286.501L256.283 287.703H269.644C270.451 287.703 271.129 287.003 271.129 286.115V284.42C271.129 284.136 271.062 283.934 270.925 283.768C270.782 283.595 270.545 283.44 270.162 283.287L250.577 285.3ZM250.577 285.3H249.906C249.718 285.3 249.538 285.375 249.405 285.508C249.272 285.641 249.197 285.821 249.197 286.008C249.197 286.018 249.198 286.027 249.198 286.033C249.198 286.038 249.197 286.047 249.197 286.057V287.767H242.309V286.717H248.012C248.2 286.717 248.38 286.642 248.513 286.509C248.646 286.376 248.721 286.196 248.721 286.008C248.721 285.821 248.646 285.641 248.513 285.508C248.38 285.375 248.2 285.3 248.012 285.3H242.088C241.245 283.147 241.139 280.836 241.78 278.419L241.78 278.418M250.577 285.3L241.78 278.418M241.78 278.418C242.022 277.503 242.364 276.618 242.799 275.778M241.78 278.418L242.799 275.778M242.799 275.778L243.283 276.06L242.799 275.778ZM256.432 283.299L256.432 283.298L243.299 276.07C243.299 276.07 243.299 276.07 243.299 276.069C243.293 276.066 243.287 276.063 243.283 276.06L256.432 283.299ZM256.432 283.299C256.436 283.301 256.439 283.302 256.443 283.304C256.447 283.306 256.451 283.309 256.455 283.311C258.476 284.331 260.695 284.901 262.958 284.983L262.958 284.983M256.432 283.299L262.958 284.983M262.958 284.983C262.966 284.983 262.975 284.984 262.984 284.984H267.787C267.974 284.984 268.154 284.909 268.287 284.776C268.42 284.643 268.495 284.463 268.495 284.275C268.495 284.088 268.42 283.908 268.287 283.775C268.154 283.642 267.974 283.567 267.787 283.567H262.997C260.946 283.492 258.936 282.975 257.103 282.051L255.679 281.267C255.265 280.951 254.942 280.53 254.743 280.048C254.543 279.561 254.475 279.03 254.549 278.508L254.549 278.508M262.958 284.983L254.549 278.508M254.549 278.508L254.869 276.205M254.549 278.508L254.869 276.205M254.869 276.205L270.125 283.272L270.126 283.272C270.137 283.277 270.149 283.282 270.161 283.287L254.869 276.205ZM240.421 278.02C239.897 279.974 239.559 282.956 240.893 286.117V288.475C240.893 288.663 240.968 288.843 241.1 288.976C241.233 289.109 241.413 289.183 241.601 289.183H249.905C250.093 289.183 250.273 289.109 250.406 288.976C250.539 288.843 250.614 288.663 250.614 288.475V286.717C251.715 286.725 252.789 287.059 253.702 287.676L253.702 287.676L255.673 288.999L255.673 288.999C255.79 289.077 255.927 289.119 256.068 289.119H269.644C271.252 289.119 272.545 287.764 272.545 286.115V284.241C272.545 284.198 272.541 284.154 272.533 284.111C272.507 283.83 272.423 283.446 272.155 283.055C271.884 282.66 271.435 282.273 270.703 281.979L254.596 274.518L254.596 274.518C254.496 274.472 254.386 274.449 254.276 274.453C254.165 274.457 254.057 274.486 253.96 274.539C253.862 274.592 253.779 274.667 253.716 274.758C253.653 274.849 253.613 274.954 253.597 275.063L253.597 275.063L253.146 278.313C253.146 278.313 253.146 278.313 253.146 278.313C253.071 278.848 253.096 279.39 253.218 279.913L243.989 274.833L242.894 274.193L242.894 274.193C242.737 274.102 242.552 274.074 242.375 274.115C242.199 274.156 242.045 274.264 241.945 274.415L241.945 274.415C241.9 274.483 240.997 275.87 240.421 278.02L240.421 278.02Z" fill="#637381" stroke="#637381" stroke-width="0.436537"/>
<path d="M245.034 324.004C245.034 325.679 243.689 326.852 241.489 326.852C239.277 326.852 237.896 325.667 237.761 323.809H239.644C239.692 324.774 240.316 325.398 241.453 325.398C242.394 325.398 243.066 324.982 243.066 324.273C243.066 323.723 242.638 323.393 241.893 323.246L240.45 322.965C239.118 322.709 238.091 321.987 238.091 320.533C238.091 318.968 239.472 317.844 241.367 317.844C243.335 317.844 244.777 318.993 244.899 320.826H243.017C242.956 319.91 242.32 319.286 241.391 319.286C240.487 319.286 239.974 319.8 239.974 320.411C239.974 321.01 240.524 321.266 241.159 321.389L242.663 321.694C244.203 322 245.034 322.709 245.034 324.004ZM247.956 323.173V326.73H246.257V317.954H247.956V321.058C248.409 320.46 248.971 320.081 249.826 320.081C251.134 320.081 252.039 320.936 252.039 322.513V326.73H250.352V323.088C250.352 322.122 249.973 321.584 249.203 321.584C248.531 321.584 247.956 322.122 247.956 323.173ZM256.387 326.852C254.493 326.852 253.075 325.361 253.075 323.466C253.075 321.56 254.493 320.081 256.387 320.081C258.282 320.081 259.7 321.56 259.7 323.466C259.7 325.361 258.282 326.852 256.387 326.852ZM256.387 325.349C257.231 325.349 257.952 324.677 257.952 323.466C257.952 322.256 257.231 321.596 256.387 321.596C255.544 321.596 254.823 322.256 254.823 323.466C254.823 324.677 255.544 325.349 256.387 325.349ZM263.62 326.84C261.664 326.84 260.356 325.483 260.356 323.442C260.356 321.499 261.713 320.081 263.595 320.081C265.661 320.081 267.03 321.755 266.724 323.882H262.092C262.202 324.945 262.715 325.532 263.583 325.532C264.329 325.532 264.83 325.165 265.025 324.518H266.712C266.346 325.997 265.209 326.84 263.62 326.84ZM263.559 321.327C262.764 321.327 262.263 321.841 262.116 322.806H264.928C264.879 321.902 264.365 321.327 263.559 321.327ZM273.375 324.64C273.375 326.009 272.336 326.852 270.478 326.852C268.62 326.852 267.581 325.96 267.447 324.505H269.073C269.085 325.178 269.659 325.605 270.503 325.605C271.163 325.605 271.664 325.398 271.664 324.933C271.664 324.518 271.395 324.346 270.772 324.224L269.598 324.004C268.425 323.796 267.716 323.149 267.716 322.134C267.716 320.924 268.755 320.081 270.38 320.081C272.018 320.081 273.143 320.948 273.265 322.354H271.639C271.578 321.719 271.102 321.327 270.38 321.327C269.757 321.327 269.341 321.56 269.341 321.975C269.341 322.366 269.61 322.525 270.197 322.635L271.456 322.867C272.727 323.112 273.375 323.699 273.375 324.64Z" fill="#111111"/>
<rect x="300.855" y="256.853" width="48.8922" height="48.8922" rx="24.4461" fill="#EEF0F2"/>
<path d="M325.463 274.386L325.463 274.386L337.3 279.69C337.3 279.69 337.3 279.69 337.3 279.69L337.3 279.69L337.229 279.849L325.463 274.386ZM325.463 274.386C324.364 273.893 323.013 274.205 322.32 275.132L321.562 276.145L321.696 276.245L321.562 276.145C320.809 277.15 319.518 277.759 318.102 277.759L316.993 277.759L316.993 277.759L325.463 274.386ZM336.758 280.903L336.758 280.903L336.604 280.834C336.113 281.211 335.104 281.903 333.567 282.561L333.498 282.4L333.567 282.561C331.552 283.423 328.203 284.387 323.665 284.105C323.665 284.105 323.665 284.105 323.665 284.105L336.758 280.903ZM336.758 280.903C338.58 281.714 339.727 283.263 339.832 284.976M336.758 280.903L339.832 284.976M339.832 284.976H314.957C315.199 284.88 315.446 284.794 315.696 284.72L339.832 284.976ZM310.303 284.976V281.687C310.747 281.685 311.189 281.622 311.616 281.5C312.586 281.223 313.91 280.515 315.002 278.747C315.641 278.973 316.315 279.088 316.993 279.087M316.993 279.087H316.993V278.913L316.993 279.087ZM316.993 279.087H318.102C319.922 279.087 321.615 278.29 322.625 276.941L323.383 275.928C323.695 275.511 324.371 275.352 324.92 275.598L324.991 275.439L324.92 275.598L327.487 276.748L325.959 278.529L326.091 278.643L325.959 278.529C325.844 278.663 325.787 278.837 325.801 279.012C325.814 279.188 325.897 279.351 326.03 279.466C326.164 279.58 326.338 279.637 326.514 279.624C326.689 279.61 326.852 279.528 326.967 279.394L328.751 277.315L330.626 278.155L329.122 279.908C329.008 280.041 328.951 280.215 328.964 280.391C328.978 280.566 329.06 280.73 329.194 280.844C329.328 280.959 329.502 281.016 329.677 281.002C329.853 280.989 330.016 280.906 330.131 280.772L331.89 278.721L335.192 280.201C334.498 280.652 333.763 281.04 332.999 281.359L332.998 281.359C331.131 282.151 328.006 283.044 323.747 282.78C321.311 282.628 319.151 282.699 317.329 282.993M317.329 282.993C317.329 282.993 317.329 282.993 317.329 282.993L317.356 283.165L317.328 282.993C317.328 282.993 317.329 282.993 317.329 282.993ZM311.942 275.99L311.942 275.99L311.943 275.992C312.335 276.885 312.983 277.639 313.803 278.161C312.567 280.085 311.07 280.363 310.303 280.363V275.48L311.697 275.51C311.701 275.514 311.704 275.519 311.709 275.525C311.731 275.556 311.757 275.598 311.785 275.65C311.84 275.754 311.896 275.879 311.942 275.99Z" fill="#637381" stroke="#637381" stroke-width="0.34923"/>
<path d="M305.624 324.004C305.624 325.679 304.28 326.852 302.08 326.852C299.867 326.852 298.486 325.667 298.352 323.809H300.234C300.283 324.774 300.906 325.398 302.043 325.398C302.984 325.398 303.656 324.982 303.656 324.273C303.656 323.723 303.229 323.393 302.483 323.246L301.041 322.965C299.708 322.709 298.682 321.987 298.682 320.533C298.682 318.968 300.063 317.844 301.957 317.844C303.925 317.844 305.368 318.993 305.49 320.826H303.608C303.546 319.91 302.911 319.286 301.982 319.286C301.077 319.286 300.564 319.8 300.564 320.411C300.564 321.01 301.114 321.266 301.75 321.389L303.253 321.694C304.793 322 305.624 322.709 305.624 324.004ZM308.547 323.173V326.73H306.848V320.203H308.412V321.132C308.889 320.484 309.561 320.081 310.417 320.081C311.725 320.081 312.629 320.936 312.629 322.513V326.73H310.942V323.088C310.942 322.122 310.563 321.584 309.793 321.584C309.121 321.584 308.547 322.122 308.547 323.173ZM316.929 326.84C314.973 326.84 313.665 325.483 313.665 323.442C313.665 321.499 315.022 320.081 316.904 320.081C318.97 320.081 320.339 321.755 320.034 323.882H315.401C315.511 324.945 316.024 325.532 316.892 325.532C317.638 325.532 318.139 325.165 318.335 324.518H320.021C319.655 325.997 318.518 326.84 316.929 326.84ZM316.868 321.327C316.073 321.327 315.572 321.841 315.425 322.806H318.237C318.188 321.902 317.675 321.327 316.868 321.327ZM325.058 326.73V325.923C324.631 326.534 323.983 326.852 323.091 326.852C321.734 326.852 320.829 326.058 320.829 324.835C320.829 323.564 321.856 322.88 323.763 322.88C324.13 322.88 324.447 322.904 324.851 322.953V322.562C324.851 321.829 324.435 321.401 323.726 321.401C322.993 321.401 322.553 321.829 322.492 322.562H320.964C321.062 321.058 322.149 320.081 323.726 320.081C325.437 320.081 326.44 321.022 326.44 322.623V326.73H325.058ZM322.431 324.787C322.431 325.337 322.822 325.679 323.457 325.679C324.325 325.679 324.851 325.202 324.851 324.444V323.98C324.447 323.919 324.166 323.894 323.873 323.894C322.907 323.894 322.431 324.2 322.431 324.787ZM329.603 326.73H327.904V317.954H329.603V322.965L331.986 320.203H333.942L331.241 323.332L334.26 326.73H332.096L329.603 323.699V326.73ZM337.472 326.84C335.516 326.84 334.208 325.483 334.208 323.442C334.208 321.499 335.565 320.081 337.447 320.081C339.513 320.081 340.882 321.755 340.576 323.882H335.944C336.054 324.945 336.567 325.532 337.435 325.532C338.181 325.532 338.682 325.165 338.877 324.518H340.564C340.197 325.997 339.061 326.84 337.472 326.84ZM337.411 321.327C336.616 321.327 336.115 321.841 335.968 322.806H338.78C338.731 321.902 338.217 321.327 337.411 321.327ZM343.413 323.564V326.73H341.714V320.203H343.279V321.462C343.756 320.631 344.77 320.13 345.821 320.13V321.89C344.379 321.78 343.413 322.122 343.413 323.564ZM352.216 324.64C352.216 326.009 351.178 326.852 349.32 326.852C347.462 326.852 346.423 325.96 346.288 324.505H347.914C347.926 325.178 348.501 325.605 349.344 325.605C350.004 325.605 350.505 325.398 350.505 324.933C350.505 324.518 350.236 324.346 349.613 324.224L348.44 324.004C347.266 323.796 346.557 323.149 346.557 322.134C346.557 320.924 347.596 320.081 349.222 320.081C350.86 320.081 351.984 320.948 352.106 322.354H350.481C350.42 321.719 349.943 321.327 349.222 321.327C348.598 321.327 348.183 321.56 348.183 321.975C348.183 322.366 348.452 322.525 349.038 322.635L350.297 322.867C351.569 323.112 352.216 323.699 352.216 324.64Z" fill="#111111"/>
<path d="M377.445 326.73L376.785 324.848H373.375L372.702 326.73H370.832L374.133 317.954H376.162L379.437 326.73H377.445ZM375.098 319.983L373.9 323.369H376.272L375.098 319.983ZM382.74 326.852C380.858 326.852 379.562 325.459 379.562 323.466C379.562 321.511 380.907 320.081 382.74 320.081C384.439 320.081 385.698 321.23 385.906 322.99H384.121C384.036 322.122 383.51 321.584 382.74 321.584C381.86 321.584 381.298 322.305 381.298 323.466C381.298 324.64 381.848 325.349 382.74 325.349C383.522 325.349 384.023 324.835 384.121 323.943H385.906C385.71 325.74 384.488 326.852 382.74 326.852ZM389.723 326.852C387.841 326.852 386.545 325.459 386.545 323.466C386.545 321.511 387.889 320.081 389.723 320.081C391.422 320.081 392.681 321.23 392.889 322.99H391.104C391.019 322.122 390.493 321.584 389.723 321.584C388.843 321.584 388.281 322.305 388.281 323.466C388.281 324.64 388.831 325.349 389.723 325.349C390.505 325.349 391.006 324.835 391.104 323.943H392.889C392.693 325.74 391.471 326.852 389.723 326.852ZM396.791 326.84C394.836 326.84 393.528 325.483 393.528 323.442C393.528 321.499 394.885 320.081 396.767 320.081C398.833 320.081 400.202 321.755 399.896 323.882H395.263C395.373 324.945 395.887 325.532 396.755 325.532C397.5 325.532 398.001 325.165 398.197 324.518H399.884C399.517 325.997 398.38 326.84 396.791 326.84ZM396.73 321.327C395.936 321.327 395.435 321.841 395.288 322.806H398.099C398.05 321.902 397.537 321.327 396.73 321.327ZM406.547 324.64C406.547 326.009 405.508 326.852 403.65 326.852C401.792 326.852 400.753 325.96 400.618 324.505H402.244C402.256 325.178 402.831 325.605 403.674 325.605C404.334 325.605 404.835 325.398 404.835 324.933C404.835 324.518 404.566 324.346 403.943 324.224L402.77 324.004C401.596 323.796 400.887 323.149 400.887 322.134C400.887 320.924 401.926 320.081 403.552 320.081C405.19 320.081 406.314 320.948 406.437 322.354H404.811C404.75 321.719 404.273 321.327 403.552 321.327C402.929 321.327 402.513 321.56 402.513 321.975C402.513 322.366 402.782 322.525 403.369 322.635L404.628 322.867C405.899 323.112 406.547 323.699 406.547 324.64ZM413.219 324.64C413.219 326.009 412.18 326.852 410.322 326.852C408.464 326.852 407.425 325.96 407.291 324.505H408.917C408.929 325.178 409.503 325.605 410.347 325.605C411.007 325.605 411.508 325.398 411.508 324.933C411.508 324.518 411.239 324.346 410.616 324.224L409.442 324.004C408.269 323.796 407.56 323.149 407.56 322.134C407.56 320.924 408.599 320.081 410.224 320.081C411.862 320.081 412.987 320.948 413.109 322.354H411.483C411.422 321.719 410.946 321.327 410.224 321.327C409.601 321.327 409.186 321.56 409.186 321.975C409.186 322.366 409.454 322.525 410.041 322.635L411.3 322.867C412.571 323.112 413.219 323.699 413.219 324.64ZM417.264 326.852C415.369 326.852 413.951 325.361 413.951 323.466C413.951 321.56 415.369 320.081 417.264 320.081C419.158 320.081 420.576 321.56 420.576 323.466C420.576 325.361 419.158 326.852 417.264 326.852ZM417.264 325.349C418.107 325.349 418.828 324.677 418.828 323.466C418.828 322.256 418.107 321.596 417.264 321.596C416.42 321.596 415.699 322.256 415.699 323.466C415.699 324.677 416.42 325.349 417.264 325.349ZM423.359 323.564V326.73H421.66V320.203H423.225V321.462C423.702 320.631 424.716 320.13 425.767 320.13V321.89C424.325 321.78 423.359 322.122 423.359 323.564ZM428.618 318.687C428.618 319.262 428.153 319.69 427.481 319.69C426.821 319.69 426.356 319.262 426.356 318.687C426.356 318.088 426.821 317.66 427.481 317.66C428.153 317.66 428.618 318.088 428.618 318.687ZM428.349 326.73H426.65V320.203H428.349V326.73ZM432.697 326.84C430.741 326.84 429.433 325.483 429.433 323.442C429.433 321.499 430.79 320.081 432.672 320.081C434.738 320.081 436.107 321.755 435.801 323.882H431.169C431.279 324.945 431.792 325.532 432.66 325.532C433.405 325.532 433.907 325.165 434.102 324.518H435.789C435.422 325.997 434.286 326.84 432.697 326.84ZM432.635 321.327C431.841 321.327 431.34 321.841 431.193 322.806H434.004C433.956 321.902 433.442 321.327 432.635 321.327ZM442.452 324.64C442.452 326.009 441.413 326.852 439.555 326.852C437.697 326.852 436.658 325.96 436.524 324.505H438.149C438.161 325.178 438.736 325.605 439.579 325.605C440.239 325.605 440.741 325.398 440.741 324.933C440.741 324.518 440.472 324.346 439.848 324.224L438.675 324.004C437.501 323.796 436.792 323.149 436.792 322.134C436.792 320.924 437.831 320.081 439.457 320.081C441.095 320.081 442.22 320.948 442.342 322.354H440.716C440.655 321.719 440.178 321.327 439.457 321.327C438.834 321.327 438.418 321.56 438.418 321.975C438.418 322.366 438.687 322.525 439.274 322.635L440.533 322.867C441.804 323.112 442.452 323.699 442.452 324.64Z" fill="#111111"/>
</g>
<rect x="21.2783" y="61.1152" width="152.846" height="34.9692" rx="17.4846" fill="#F3F5F6"/>
<path d="M40.4018 84.0996L38.5299 77.0871L36.6581 84.0996H34.5068L31.9365 74.0697H34.0039L35.6244 80.8727L37.4683 74.0697H39.6335L41.4216 80.9007L43.056 74.0697H45.1374L42.5531 84.0996H40.4018ZM50.0502 84.0996V83.1776C49.5612 83.8761 48.8209 84.2393 47.8011 84.2393C46.2505 84.2393 45.2168 83.3313 45.2168 81.9344C45.2168 80.4816 46.3902 79.6993 48.5694 79.6993C48.9885 79.6993 49.3517 79.7273 49.8127 79.7831V79.3361C49.8127 78.498 49.3377 78.009 48.5275 78.009C47.6894 78.009 47.1865 78.498 47.1166 79.3361H45.3705C45.4822 77.6179 46.7255 76.5004 48.5275 76.5004C50.4832 76.5004 51.6287 77.576 51.6287 79.406V84.0996H50.0502ZM47.0468 81.8785C47.0468 82.5071 47.4938 82.8983 48.2202 82.8983C49.212 82.8983 49.8127 82.3535 49.8127 81.4874V80.9565C49.3517 80.8867 49.0304 80.8588 48.6952 80.8588C47.5916 80.8588 47.0468 81.208 47.0468 81.8785ZM55.2576 84.0996H53.3019V74.0697H55.2576V84.0996ZM58.9545 84.0996H56.9989V74.0697H58.9545V84.0996ZM63.9366 84.2253C61.7016 84.2253 60.2069 82.6748 60.2069 80.3419C60.2069 78.1208 61.7574 76.5004 63.9087 76.5004C66.2695 76.5004 67.834 78.4141 67.4848 80.8448H62.1905C62.3162 82.0601 62.9029 82.7306 63.8947 82.7306C64.7468 82.7306 65.3196 82.3116 65.5431 81.5712H67.4708C67.0518 83.2615 65.7526 84.2253 63.9366 84.2253ZM63.8668 77.9252C62.9588 77.9252 62.3861 78.5119 62.2184 79.6155H65.4313C65.3755 78.5818 64.7888 77.9252 63.8668 77.9252ZM73.3686 82.2138V83.904C72.8936 84.1415 72.4466 84.2393 71.8739 84.2393C70.3373 84.2393 69.3734 83.3592 69.3734 81.6829V78.3024H67.8647V76.6401H69.3734V74.4329H71.3011V76.6401H73.4384V78.3024H71.3011V81.2359C71.3011 82.102 71.6923 82.4512 72.3907 82.4512C72.7539 82.4512 73.0892 82.3674 73.3686 82.2138Z" fill="#637381"/>
<rect x="81.7402" y="66.3535" width="53.9692" height="24.4923" rx="12.2461" fill="#637381"/>
<path d="M89.6745 84.0996V80.6492H88.8643V79.6155H89.6745V78.6097H88.8643V77.576H89.6745V74.1256H91.8677L92.9573 77.576H94.2285V74.1256H95.7791V77.576H96.5753V78.6097H95.7791V79.6155H96.5753V80.6492H95.7791V84.0996H93.5719L92.4544 80.6492H91.2251V84.0996H89.6745ZM91.2251 79.6155H92.1471L91.8397 78.6097H91.1972L91.2251 79.6155ZM94.2704 81.9204H94.3402L94.2843 80.6492H93.9072L94.2704 81.9204ZM91.1692 77.576H91.5604L91.1552 76.235H91.0994L91.1692 77.576ZM93.6138 79.6155H94.2564L94.2285 78.6097H93.2925L93.6138 79.6155ZM100.281 79.392C100.281 76.2629 101.594 74.5167 103.927 74.5167C106.259 74.5167 107.587 76.2629 107.587 79.392C107.587 82.5071 106.287 84.2393 103.927 84.2393C101.566 84.2393 100.281 82.5071 100.281 79.392ZM102.278 79.392C102.278 81.4175 102.837 82.5071 103.927 82.5071C105.002 82.5071 105.589 81.4175 105.589 79.392C105.589 77.3525 105.002 76.2489 103.927 76.2489C102.865 76.2489 102.278 77.3525 102.278 79.392ZM111.089 82.8564C111.089 83.6247 110.558 84.1695 109.79 84.1695C109.022 84.1695 108.477 83.6247 108.477 82.8564C108.477 82.0741 109.022 81.5293 109.79 81.5293C110.558 81.5293 111.089 82.0741 111.089 82.8564ZM111.985 79.392C111.985 76.2629 113.298 74.5167 115.631 74.5167C117.964 74.5167 119.291 76.2629 119.291 79.392C119.291 82.5071 117.992 84.2393 115.631 84.2393C113.27 84.2393 111.985 82.5071 111.985 79.392ZM113.983 79.392C113.983 81.4175 114.542 82.5071 115.631 82.5071C116.707 82.5071 117.294 81.4175 117.294 79.392C117.294 77.3525 116.707 76.2489 115.631 76.2489C114.57 76.2489 113.983 77.3525 113.983 79.392ZM120.566 79.392C120.566 76.2629 121.879 74.5167 124.212 74.5167C126.545 74.5167 127.872 76.2629 127.872 79.392C127.872 82.5071 126.573 84.2393 124.212 84.2393C121.851 84.2393 120.566 82.5071 120.566 79.392ZM122.564 79.392C122.564 81.4175 123.122 82.5071 124.212 82.5071C125.288 82.5071 125.874 81.4175 125.874 79.392C125.874 77.3525 125.288 76.2489 124.212 76.2489C123.15 76.2489 122.564 77.3525 122.564 79.392Z" fill="white"/>
<rect x="142.693" y="68.123" width="20.9538" height="20.9538" rx="10.4769" fill="#FB5E13"/>
<path d="M149.678 79.2544H156.662C157.022 79.2544 157.317 78.9588 157.317 78.5996C157.317 78.2404 157.022 77.9448 156.662 77.9448H149.678C149.319 77.9448 149.023 78.2404 149.023 78.5996C149.023 78.9588 149.319 79.2544 149.678 79.2544Z" fill="white" stroke="white" stroke-width="0.436537"/>
<path d="M152.515 82.092C152.515 82.4512 152.811 82.7468 153.17 82.7468C153.529 82.7468 153.825 82.4512 153.825 82.092V75.1074C153.825 74.7482 153.529 74.4526 153.17 74.4526C152.811 74.4526 152.515 74.7482 152.515 75.1074V82.092Z" fill="white" stroke="white" stroke-width="0.436537"/>
<rect width="373.676" height="47.146" transform="translate(0.324219)" fill="white"/>
<rect opacity="0.35" x="334.708" y="19.2031" width="21.7978" height="10.7259" rx="2.24898" stroke="black" stroke-width="1.03799"/>
<path opacity="0.4" d="M358.063 22.4897V26.6417C358.899 26.2901 359.442 25.472 359.442 24.5657C359.442 23.6594 358.899 22.8414 358.063 22.4897Z" fill="black"/>
<rect x="336.266" y="20.7603" width="18.6838" height="7.61192" rx="1.38399" fill="black"/>
<path fill-rule="evenodd" clip-rule="evenodd" d="M321.041 21.0553C323.351 21.0554 325.572 21.942 327.245 23.5318C327.371 23.6545 327.573 23.653 327.697 23.5283L328.901 22.3135C328.964 22.2503 328.999 22.1646 328.999 22.0755C328.998 21.9864 328.962 21.9012 328.899 21.8387C324.506 17.6325 317.576 17.6325 313.183 21.8387C313.12 21.9012 313.084 21.9864 313.083 22.0755C313.082 22.1646 313.117 22.2502 313.18 22.3135L314.385 23.5283C314.509 23.6532 314.711 23.6547 314.837 23.5318C316.511 21.9419 318.732 21.0553 321.041 21.0553ZM321.042 25.008C322.31 25.0079 323.534 25.4791 324.474 26.33C324.601 26.4508 324.802 26.4482 324.926 26.3241L326.129 25.1093C326.193 25.0456 326.228 24.9592 326.227 24.8694C326.226 24.7795 326.189 24.6938 326.124 24.6314C323.26 21.9696 318.825 21.9696 315.961 24.6314C315.896 24.6938 315.86 24.7796 315.859 24.8694C315.858 24.9593 315.893 25.0457 315.957 25.1093L317.16 26.3241C317.284 26.4482 317.484 26.4508 317.611 26.33C318.551 25.4797 319.774 25.0085 321.042 25.008ZM323.452 27.6672C323.454 27.7573 323.419 27.8441 323.354 27.9072L321.273 30.006C321.212 30.0677 321.129 30.1024 321.042 30.1024C320.955 30.1024 320.872 30.0677 320.811 30.006L318.729 27.9072C318.665 27.8441 318.629 27.7572 318.631 27.6671C318.633 27.577 318.672 27.4917 318.739 27.4314C320.068 26.308 322.015 26.308 323.344 27.4314C323.411 27.4918 323.45 27.5771 323.452 27.6672Z" fill="black"/>
<path fill-rule="evenodd" clip-rule="evenodd" d="M306.856 18.6841H305.818C305.245 18.6841 304.78 19.1488 304.78 19.7221V28.718C304.78 29.2912 305.245 29.756 305.818 29.756H306.856C307.429 29.756 307.894 29.2912 307.894 28.718V19.7221C307.894 19.1488 307.429 18.6841 306.856 18.6841ZM300.974 21.1062H302.012C302.585 21.1062 303.05 21.5709 303.05 22.1442V28.7181C303.05 29.2914 302.585 29.7561 302.012 29.7561H300.974C300.4 29.7561 299.936 29.2914 299.936 28.7181V22.1442C299.936 21.5709 300.4 21.1062 300.974 21.1062ZM297.168 23.5279H296.13C295.557 23.5279 295.092 23.9926 295.092 24.5658V28.7178C295.092 29.2911 295.557 29.7558 296.13 29.7558H297.168C297.742 29.7558 298.206 29.2911 298.206 28.7178V24.5658C298.206 23.9926 297.742 23.5279 297.168 23.5279ZM292.324 25.6038H291.286C290.713 25.6038 290.248 26.0686 290.248 26.6418V28.7178C290.248 29.2911 290.713 29.7558 291.286 29.7558H292.324C292.897 29.7558 293.362 29.2911 293.362 28.7178V26.6418C293.362 26.0686 292.897 25.6038 292.324 25.6038Z" fill="black"/>
<path d="M44.1423 21.6101C46.8243 21.6101 49.158 23.5171 49.158 28.0451V28.0625C49.158 32.2944 47.251 34.8022 44.0901 34.8022C41.7826 34.8022 40.0584 33.4351 39.6579 31.5107L39.6405 31.415H41.8522L41.8783 31.502C42.2092 32.3815 42.9842 32.9562 44.0901 32.9562C46.0841 32.9562 46.9288 31.0057 47.0246 28.6024C47.0246 28.5066 47.0333 28.4108 47.0333 28.315H46.8591C46.3976 29.3077 45.3005 30.1872 43.5763 30.1872C41.1643 30.1872 39.475 28.4282 39.475 26.0423V26.0249C39.475 23.4736 41.4168 21.6101 44.1423 21.6101ZM44.1336 28.4631C45.553 28.4631 46.6414 27.4355 46.6414 26.0162V25.9988C46.6414 24.562 45.553 23.4387 44.1597 23.4387C42.7752 23.4387 41.6694 24.5446 41.6694 25.9465V25.9639C41.6694 27.4181 42.7056 28.4631 44.1336 28.4631ZM52.8259 26.3471C52.0335 26.3471 51.4414 25.7375 51.4414 24.9713C51.4414 24.1963 52.0335 23.5955 52.8259 23.5955C53.627 23.5955 54.2104 24.1963 54.2104 24.9713C54.2104 25.7375 53.627 26.3471 52.8259 26.3471ZM52.8259 32.8082C52.0335 32.8082 51.4414 32.2074 51.4414 31.4324C51.4414 30.6574 52.0335 30.0566 52.8259 30.0566C53.627 30.0566 54.2104 30.6574 54.2104 31.4324C54.2104 32.2074 53.627 32.8082 52.8259 32.8082ZM62.5892 34.4888V32.0767H56.4416V30.2394C58.07 27.4094 59.855 24.5185 61.5617 21.9236H64.74V30.222H66.4293V32.0767H64.74V34.4888H62.5892ZM58.5315 30.2743H62.6241V23.7174H62.4935C61.2047 25.6853 59.7505 28.0103 58.5315 30.1436V30.2743ZM71.3512 34.4888V24.1353H71.2032L68.0771 26.3471V24.2311L71.3599 21.9236H73.5978V34.4888H71.3512Z" fill="black"/>
</g>
<defs>
<clipPath id="clip0_670_7646">
<rect x="0.324219" width="373.676" height="808.467" rx="26.0459" fill="white"/>
</clipPath>
<clipPath id="clip1_670_7646">
<rect width="373.676" height="698.46" fill="white" transform="translate(0.324219 110.007)"/>
</clipPath>
</defs>
</svg>
