<svg width="218" height="65" viewBox="0 0 218 65" fill="none" xmlns="http://www.w3.org/2000/svg">
<rect x="0.5" y="0.896484" width="217" height="63" rx="31.5" stroke="black"/>
<path d="M57.7078 31.0232C57.6681 26.5982 61.3167 24.4454 61.4836 24.3452C59.4172 21.3206 56.2144 20.9074 55.089 20.8744C52.399 20.5902 49.7897 22.4904 48.4195 22.4904C47.0218 22.4904 44.9117 20.9019 42.6375 20.9485C39.711 20.9939 36.9732 22.6949 35.4716 25.3365C32.3728 30.7225 34.6839 38.6375 37.6528 42.9911C39.138 45.1233 40.8734 47.504 43.1449 47.4202C45.3671 47.3283 46.1972 45.9979 48.879 45.9979C51.5361 45.9979 52.3156 47.4202 54.6322 47.3667C57.0172 47.3283 58.5187 45.2249 59.9519 43.0735C61.6682 40.6297 62.3574 38.2229 62.3848 38.0993C62.3287 38.0801 57.7529 36.3269 57.7078 31.0232Z" fill="#132D46"/>
<path d="M53.3317 18.0104C54.5269 16.5098 55.3447 14.4683 55.1177 12.3965C53.3877 12.4734 51.2243 13.5978 49.9785 15.0655C48.8762 16.3588 47.8916 18.4786 48.146 20.4721C50.0892 20.6177 52.0845 19.4877 53.3317 18.0104Z" fill="#132D46"/>
<path d="M87.68 44.4759H85.0175L83.5591 39.875H78.4899L77.1006 44.4759H74.5085L79.5309 28.8125H82.633L87.68 44.4759ZM83.1195 37.9448L81.8006 33.8547C81.6611 33.4369 81.3997 32.4529 81.014 30.904H80.9671C80.8135 31.5702 80.5661 32.5541 80.2261 33.8547L78.9307 37.9448H83.1195Z" fill="#132D46"/>
<path d="M100.596 38.6913C100.596 40.6122 100.079 42.1305 99.0449 43.2451C98.1188 44.2373 96.9687 44.7328 95.5958 44.7328C94.114 44.7328 93.0495 44.1985 92.4012 43.1298H92.3543V49.0794H89.8548V36.9011C89.8548 35.6936 89.8232 34.4542 89.7622 33.183H91.9604L92.0999 34.9732H92.1468C92.9803 33.6244 94.2453 32.9512 95.9429 32.9512C97.27 32.9512 98.3779 33.4773 99.2642 34.5307C100.153 35.5853 100.596 36.9718 100.596 38.6913ZM98.0496 38.7831C98.0496 37.6838 97.8034 36.7776 97.3087 36.0643C96.7682 35.3205 96.0425 34.9485 95.1328 34.9485C94.5161 34.9485 93.9557 35.1557 93.4551 35.5641C92.9534 35.976 92.6251 36.5139 92.4715 37.1801C92.3941 37.4908 92.3555 37.745 92.3555 37.9451V39.8283C92.3555 40.6499 92.6063 41.3431 93.1081 41.9092C93.6099 42.4754 94.2617 42.7578 95.0636 42.7578C96.005 42.7578 96.7377 42.393 97.2618 41.6656C97.787 40.937 98.0496 39.9766 98.0496 38.7831Z" fill="#132D46"/>
<path d="M113.535 38.6913C113.535 40.6122 113.018 42.1305 111.983 43.2451C111.058 44.2373 109.907 44.7328 108.535 44.7328C107.053 44.7328 105.988 44.1985 105.341 43.1298H105.294V49.0794H102.795V36.9011C102.795 35.6936 102.763 34.4542 102.702 33.183H104.9L105.04 34.9732H105.087C105.919 33.6244 107.184 32.9512 108.883 32.9512C110.209 32.9512 111.317 33.4773 112.205 34.5307C113.09 35.5853 113.535 36.9718 113.535 38.6913ZM110.988 38.7831C110.988 37.6838 110.741 36.7776 110.246 36.0643C109.706 35.3205 108.982 34.9485 108.072 34.9485C107.454 34.9485 106.894 35.1557 106.393 35.5641C105.891 35.976 105.564 36.5139 105.41 37.1801C105.334 37.4908 105.294 37.745 105.294 37.9451V39.8283C105.294 40.6499 105.545 41.3431 106.045 41.9092C106.546 42.4742 107.198 42.7578 108.002 42.7578C108.944 42.7578 109.677 42.393 110.201 41.6656C110.726 40.937 110.988 39.9766 110.988 38.7831Z" fill="#132D46"/>
<path d="M128.001 40.0843C128.001 41.4167 127.54 42.5007 126.615 43.3375C125.599 44.2521 124.184 44.7087 122.366 44.7087C120.687 44.7087 119.341 44.3839 118.322 43.733L118.901 41.6415C119.999 42.3077 121.203 42.6419 122.514 42.6419C123.456 42.6419 124.189 42.4277 124.715 42.0017C125.239 41.5756 125.5 41.0036 125.5 40.2903C125.5 39.6547 125.285 39.1192 124.852 38.6849C124.422 38.2506 123.703 37.8469 122.7 37.4738C119.968 36.451 118.604 34.9527 118.604 32.9824C118.604 31.6948 119.082 30.639 120.04 29.8175C120.994 28.9948 122.267 28.584 123.859 28.584C125.279 28.584 126.458 28.8323 127.4 29.3278L126.775 31.3734C125.896 30.8932 124.901 30.6531 123.789 30.6531C122.91 30.6531 122.223 30.8709 121.73 31.304C121.314 31.6912 121.105 32.1632 121.105 32.7223C121.105 33.3414 121.343 33.8534 121.822 34.2559C122.238 34.6278 122.994 35.0304 124.091 35.4647C125.434 36.0073 126.42 36.6416 127.054 37.369C127.686 38.0941 128.001 39.0015 128.001 40.0843Z" fill="#132D46"/>
<path d="M136.265 35.0704H133.51V40.554C133.51 41.9487 133.995 42.6455 134.968 42.6455C135.415 42.6455 135.786 42.6067 136.079 42.529L136.148 44.4345C135.655 44.6193 135.007 44.7123 134.204 44.7123C133.217 44.7123 132.446 44.4098 131.889 43.806C131.334 43.201 131.055 42.1865 131.055 40.7611V35.0681H129.414V33.1849H131.055V31.1169L133.51 30.373V33.1849H136.265V35.0704Z" fill="#132D46"/>
<path d="M148.697 38.7361C148.697 40.4721 148.202 41.8975 147.215 43.0121C146.18 44.1596 144.806 44.7316 143.093 44.7316C141.442 44.7316 140.128 44.182 139.148 43.0827C138.168 41.9834 137.678 40.5957 137.678 38.9232C137.678 37.173 138.182 35.7395 139.194 34.6249C140.203 33.5091 141.565 32.9512 143.278 32.9512C144.929 32.9512 146.257 33.5008 147.26 34.6013C148.219 35.6688 148.697 37.0471 148.697 38.7361ZM146.104 38.8173C146.104 37.7756 145.882 36.8823 145.433 36.1373C144.909 35.2357 144.16 34.7861 143.189 34.7861C142.184 34.7861 141.421 35.2369 140.897 36.1373C140.448 36.8835 140.227 37.7909 140.227 38.8644C140.227 39.906 140.448 40.7993 140.897 41.5432C141.438 42.4448 142.193 42.8944 143.167 42.8944C144.121 42.8944 144.87 42.4353 145.411 41.5196C145.871 40.7605 146.104 39.8577 146.104 38.8173Z" fill="#132D46"/>
<path d="M156.822 35.3899C156.575 35.344 156.311 35.3205 156.034 35.3205C155.155 35.3205 154.475 35.6535 153.997 36.3209C153.58 36.9094 153.372 37.6532 153.372 38.5513V44.4774H150.873L150.897 36.7399C150.897 35.4381 150.865 34.2529 150.803 33.1842H152.98L153.072 35.3452H153.141C153.405 34.6025 153.821 34.0046 154.391 33.5561C154.947 33.1524 155.549 32.9512 156.197 32.9512C156.428 32.9512 156.637 32.9676 156.822 32.9971V35.3899Z" fill="#132D46"/>
<path d="M168 38.2975C168 38.7471 167.971 39.1261 167.909 39.4357H160.41C160.44 40.5515 160.802 41.4048 161.498 41.9933C162.13 42.5194 162.947 42.783 163.951 42.783C165.061 42.783 166.074 42.6053 166.985 42.2487L167.376 43.9906C166.312 44.4567 165.055 44.6886 163.605 44.6886C161.86 44.6886 160.491 44.1731 159.495 43.1432C158.5 42.1133 158.002 40.7304 158.002 38.9955C158.002 37.2924 158.465 35.8741 159.393 34.743C160.363 33.5354 161.675 32.9316 163.326 32.9316C164.947 32.9316 166.175 33.5354 167.008 34.743C167.668 35.7023 168 36.8887 168 38.2975ZM165.617 37.6467C165.633 36.9028 165.47 36.2602 165.131 35.7176C164.699 35.0196 164.034 34.6712 163.139 34.6712C162.322 34.6712 161.658 35.0114 161.15 35.694C160.734 36.2366 160.486 36.8875 160.41 37.6455H165.617V37.6467Z" fill="#132D46"/>
<path d="M81.5603 19.3021C81.5603 20.4721 81.2109 21.3527 80.5129 21.9441C79.8663 22.4898 78.9476 22.7632 77.7575 22.7632C77.1674 22.7632 76.6625 22.7373 76.2397 22.6856V16.2934C76.7912 16.2039 77.3852 16.1582 78.0268 16.1582C79.1604 16.1582 80.0149 16.4057 80.5911 16.9007C81.2366 17.4603 81.5603 18.2605 81.5603 19.3021ZM80.4663 19.331C80.4663 18.5726 80.2663 17.9911 79.8663 17.5855C79.4664 17.181 78.8822 16.9782 78.1129 16.9782C77.7862 16.9782 77.508 17.0001 77.2773 17.0458V21.9054C77.4051 21.9252 77.6387 21.9342 77.9783 21.9342C78.7723 21.9342 79.3852 21.7125 79.8168 21.2692C80.2485 20.8259 80.4663 20.1798 80.4663 19.331Z" fill="#132D46"/>
<path d="M87.3615 20.3213C87.3615 21.042 87.1566 21.6324 86.7467 22.0956C86.317 22.5717 85.7477 22.8092 85.0369 22.8092C84.3517 22.8092 83.8062 22.5816 83.3993 22.1244C82.9934 21.6682 82.7904 21.0927 82.7904 20.3989C82.7904 19.6733 82.9993 19.0779 83.4191 18.6157C83.8389 18.1535 84.4032 17.9219 85.1141 17.9219C85.7992 17.9219 86.3497 18.1495 86.7665 18.6057C87.1625 19.049 87.3615 19.6216 87.3615 20.3213ZM86.2853 20.3551C86.2853 19.9227 86.1923 19.552 86.0071 19.2429C85.7893 18.8691 85.4794 18.6823 85.0765 18.6823C84.6596 18.6823 84.3428 18.8691 84.125 19.2429C83.9389 19.552 83.8468 19.9287 83.8468 20.374C83.8468 20.8064 83.9399 21.1771 84.125 21.4863C84.3498 21.86 84.6626 22.0469 85.0666 22.0469C85.4626 22.0469 85.7735 21.857 85.9972 21.4763C86.1893 21.1612 86.2853 20.7875 86.2853 20.3551Z" fill="#132D46"/>
<path d="M95.1387 18.0215L93.6784 22.7071H92.7279L92.123 20.6724C91.9695 20.1645 91.8448 19.6596 91.7477 19.1586H91.7289C91.6388 19.6735 91.5141 20.1774 91.3537 20.6724L90.7112 22.7071H89.7498L88.3766 18.0215H89.4429L89.9706 20.249C90.0983 20.7758 90.2033 21.2777 90.2874 21.7529H90.3062C90.3834 21.3612 90.5112 20.8623 90.6913 20.2589L91.3537 18.0225H92.1992L92.8338 20.2112C92.9873 20.745 93.112 21.2589 93.2081 21.7539H93.2368C93.3071 21.2718 93.413 20.7579 93.5536 20.2112L94.1199 18.0225H95.1387V18.0215Z" fill="#132D46"/>
<path d="M100.518 22.7039H99.4803V20.0202C99.4803 19.1932 99.1675 18.7797 98.5398 18.7797C98.2319 18.7797 97.9834 18.893 97.7903 19.1206C97.5992 19.3483 97.5022 19.6166 97.5022 19.9238V22.7029H96.4646V19.3572C96.4646 18.9457 96.4518 18.4994 96.427 18.0163H97.3388L97.3874 18.7489H97.4161C97.5369 18.5213 97.717 18.3334 97.9537 18.1833C98.2349 18.0084 98.5497 17.9199 98.8942 17.9199C99.3299 17.9199 99.6922 18.0611 99.9803 18.3443C100.339 18.6912 100.518 19.2091 100.518 19.8969V22.7039Z" fill="#132D46"/>
<path d="M103.38 22.7067H102.343V15.8711H103.38V22.7067Z" fill="#132D46"/>
<path d="M109.488 20.3213C109.488 21.042 109.283 21.6324 108.873 22.0956C108.443 22.5717 107.873 22.8092 107.163 22.8092C106.477 22.8092 105.931 22.5816 105.525 22.1244C105.119 21.6682 104.916 21.0927 104.916 20.3989C104.916 19.6733 105.125 19.0779 105.545 18.6157C105.965 18.1535 106.529 17.9219 107.239 17.9219C107.925 17.9219 108.475 18.1495 108.892 18.6057C109.288 19.049 109.488 19.6216 109.488 20.3213ZM108.41 20.3551C108.41 19.9227 108.317 19.552 108.132 19.2429C107.915 18.8691 107.604 18.6823 107.202 18.6823C106.785 18.6823 106.468 18.8691 106.251 19.2429C106.065 19.552 105.973 19.9287 105.973 20.374C105.973 20.8064 106.066 21.1771 106.251 21.4863C106.476 21.86 106.789 22.0469 107.193 22.0469C107.589 22.0469 107.898 21.857 108.122 21.4763C108.315 21.1612 108.41 20.7875 108.41 20.3551Z" fill="#132D46"/>
<path d="M114.51 22.7029H113.578L113.501 22.1632H113.472C113.154 22.5936 112.699 22.8092 112.109 22.8092C111.669 22.8092 111.312 22.6671 111.044 22.3848C110.8 22.1284 110.678 21.8093 110.678 21.4306C110.678 20.8581 110.916 20.4217 111.394 20.1196C111.871 19.8174 112.543 19.6693 113.407 19.6762V19.5888C113.407 18.9715 113.084 18.6634 112.438 18.6634C111.977 18.6634 111.572 18.7797 111.221 19.0103L111.01 18.3264C111.444 18.0571 111.979 17.9219 112.611 17.9219C113.831 17.9219 114.443 18.568 114.443 19.8601V21.5857C114.443 22.0538 114.465 22.4266 114.51 22.7029ZM113.433 21.0927V20.37C112.288 20.3502 111.716 20.6652 111.716 21.3143C111.716 21.5588 111.781 21.7417 111.915 21.864C112.049 21.9862 112.219 22.0469 112.422 22.0469C112.65 22.0469 112.863 21.9743 113.057 21.8302C113.252 21.6851 113.371 21.5012 113.416 21.2755C113.427 21.2248 113.433 21.1632 113.433 21.0927Z" fill="#132D46"/>
<path d="M120.407 22.7067H119.486L119.437 21.9542H119.409C119.115 22.5267 118.614 22.813 117.91 22.813C117.347 22.813 116.879 22.5914 116.508 22.148C116.136 21.7047 115.951 21.1292 115.951 20.4225C115.951 19.6641 116.152 19.0498 116.556 18.5807C116.947 18.1433 117.426 17.9246 117.997 17.9246C118.623 17.9246 119.062 18.1364 119.312 18.5608H119.331V15.8711H120.37V21.4443C120.37 21.9005 120.382 22.321 120.407 22.7067ZM119.331 20.7306V19.9494C119.331 19.8142 119.321 19.7049 119.303 19.6214C119.244 19.3709 119.118 19.1602 118.927 18.9902C118.734 18.8202 118.502 18.7347 118.233 18.7347C117.846 18.7347 117.543 18.8888 117.321 19.1979C117.1 19.5071 116.988 19.9017 116.988 20.3837C116.988 20.8469 117.094 21.2226 117.307 21.5119C117.531 21.82 117.834 21.9741 118.214 21.9741C118.554 21.9741 118.826 21.8459 119.033 21.5884C119.233 21.3509 119.331 21.0646 119.331 20.7306Z" fill="#132D46"/>
<path d="M129.278 20.3213C129.278 21.042 129.073 21.6324 128.664 22.0956C128.234 22.5717 127.666 22.8092 126.954 22.8092C126.27 22.8092 125.724 22.5816 125.316 22.1244C124.91 21.6682 124.707 21.0927 124.707 20.3989C124.707 19.6733 124.916 19.0779 125.336 18.6157C125.756 18.1535 126.32 17.9219 127.032 17.9219C127.716 17.9219 128.268 18.1495 128.683 18.6057C129.079 19.049 129.278 19.6216 129.278 20.3213ZM128.203 20.3551C128.203 19.9227 128.11 19.552 127.925 19.2429C127.706 18.8691 127.397 18.6823 126.993 18.6823C126.578 18.6823 126.261 18.8691 126.042 19.2429C125.856 19.552 125.764 19.9287 125.764 20.374C125.764 20.8064 125.857 21.1771 126.042 21.4863C126.267 21.86 126.579 22.0469 126.983 22.0469C127.379 22.0469 127.691 21.857 127.915 21.4763C128.106 21.1612 128.203 20.7875 128.203 20.3551Z" fill="#132D46"/>
<path d="M134.858 22.7039H133.821V20.0202C133.821 19.1932 133.508 18.7797 132.88 18.7797C132.572 18.7797 132.323 18.893 132.131 19.1206C131.939 19.3483 131.843 19.6166 131.843 19.9238V22.7029H130.804V19.3572C130.804 18.9457 130.793 18.4994 130.768 18.0163H131.679L131.727 18.7489H131.756C131.878 18.5213 132.058 18.3334 132.294 18.1833C132.576 18.0084 132.89 17.9199 133.235 17.9199C133.67 17.9199 134.032 18.0611 134.32 18.3443C134.68 18.6912 134.858 19.2091 134.858 19.8969V22.7039Z" fill="#132D46"/>
<path d="M141.842 18.8027H140.7V21.0789C140.7 21.6574 140.903 21.9466 141.304 21.9466C141.491 21.9466 141.645 21.9307 141.767 21.8979L141.794 22.6881C141.589 22.7656 141.319 22.8044 140.988 22.8044C140.578 22.8044 140.259 22.6792 140.028 22.4287C139.797 22.1782 139.682 21.7568 139.682 21.1653V18.8027H139V18.0224H139.682V17.1636L140.699 16.8555V18.0214H141.841V18.8027H141.842Z" fill="#132D46"/>
<path d="M147.335 22.7067H146.296V20.0428C146.296 19.2029 145.984 18.7824 145.357 18.7824C144.876 18.7824 144.547 19.026 144.367 19.513C144.336 19.6154 144.318 19.7406 144.318 19.8877V22.7057H143.282V15.8711H144.318V18.695H144.338C144.665 18.1811 145.133 17.9246 145.74 17.9246C146.17 17.9246 146.525 18.0658 146.807 18.3491C147.159 18.7019 147.335 19.2267 147.335 19.9205V22.7067Z" fill="#132D46"/>
<path d="M153 20.1396C153 20.3264 152.986 20.4835 152.961 20.6117H149.85C149.863 21.0749 150.012 21.4278 150.3 21.6723C150.563 21.891 150.903 22.0003 151.319 22.0003C151.779 22.0003 152.199 21.9267 152.577 21.7786L152.74 22.5022C152.297 22.6951 151.776 22.7915 151.173 22.7915C150.451 22.7915 149.881 22.5778 149.469 22.1504C149.056 21.723 148.851 21.1494 148.851 20.4298C148.851 19.7231 149.042 19.1347 149.427 18.6655C149.829 18.1645 150.372 17.9141 151.058 17.9141C151.73 17.9141 152.24 18.1645 152.584 18.6655C152.862 19.0631 153 19.5551 153 20.1396ZM152.01 19.8702C152.018 19.5611 151.949 19.2947 151.809 19.0701C151.629 18.7808 151.354 18.6357 150.983 18.6357C150.645 18.6357 150.368 18.7768 150.157 19.0601C149.985 19.2857 149.883 19.5551 149.85 19.8702H152.01Z" fill="#132D46"/>
</svg>
