<svg width="218" height="64" viewBox="0 0 218 64" fill="none" xmlns="http://www.w3.org/2000/svg">
<rect width="218" height="64" rx="32" fill="black"/>
<path d="M57.7078 30.6267C57.6681 26.2017 61.3167 24.0489 61.4836 23.9487C59.4172 20.9241 56.2144 20.5109 55.089 20.4779C52.399 20.1937 49.7897 22.0939 48.4195 22.0939C47.0218 22.0939 44.9117 20.5054 42.6375 20.5521C39.711 20.5974 36.9732 22.2984 35.4716 24.94C32.3728 30.326 34.6839 38.2411 37.6528 42.5947C39.138 44.7268 40.8734 47.1075 43.1449 47.0238C45.3671 46.9318 46.1972 45.6014 48.879 45.6014C51.5361 45.6014 52.3156 47.0238 54.6322 46.9702C57.0172 46.9318 58.5187 44.8284 59.9519 42.677C61.6682 40.2332 62.3574 37.8264 62.3848 37.7029C62.3287 37.6836 57.7529 35.9304 57.7078 30.6267Z" fill="white"/>
<path d="M53.3317 17.614C54.5269 16.1133 55.3447 14.0718 55.1177 12C53.3877 12.0769 51.2243 13.2013 49.9785 14.669C48.8762 15.9623 47.8916 18.0821 48.146 20.0756C50.0892 20.2212 52.0845 19.0912 53.3317 17.614Z" fill="white"/>
<path d="M87.68 44.0794H85.0175L83.5591 39.4785H78.4899L77.1006 44.0794H74.5085L79.5309 28.416H82.633L87.68 44.0794ZM83.1195 37.5483L81.8006 33.4582C81.6611 33.0404 81.3997 32.0564 81.014 30.5075H80.9671C80.8135 31.1737 80.5661 32.1577 80.2261 33.4582L78.9307 37.5483H83.1195V37.5483Z" fill="white"/>
<path d="M100.596 38.2949C100.596 40.2157 100.079 41.734 99.0449 42.8486C98.1188 43.8408 96.9687 44.3363 95.5958 44.3363C94.114 44.3363 93.0495 43.802 92.4012 42.7333H92.3543V48.683H89.8548V36.5047C89.8548 35.2971 89.8232 34.0577 89.7622 32.7866H91.9604L92.0999 34.5768H92.1468C92.9803 33.2279 94.2453 32.5547 95.9429 32.5547C97.27 32.5547 98.3779 33.0808 99.2642 34.1342C100.153 35.1888 100.596 36.5753 100.596 38.2949ZM98.0496 38.3867C98.0496 37.2874 97.8034 36.3811 97.3087 35.6678C96.7682 34.924 96.0425 34.552 95.1328 34.552C94.5161 34.552 93.9557 34.7592 93.4551 35.1676C92.9534 35.5795 92.6251 36.1174 92.4715 36.7836C92.3941 37.0943 92.3555 37.3486 92.3555 37.5486V39.4318C92.3555 40.2534 92.6063 40.9466 93.1081 41.5127C93.6099 42.0789 94.2617 42.3614 95.0636 42.3614C96.005 42.3614 96.7377 41.9965 97.2618 41.2691C97.787 40.5406 98.0496 39.5801 98.0496 38.3867Z" fill="white"/>
<path d="M113.535 38.2949C113.535 40.2157 113.018 41.734 111.983 42.8486C111.058 43.8408 109.907 44.3363 108.535 44.3363C107.053 44.3363 105.988 43.802 105.341 42.7333H105.294V48.683H102.795V36.5047C102.795 35.2971 102.763 34.0577 102.702 32.7866H104.9L105.04 34.5768H105.087C105.919 33.2279 107.184 32.5547 108.883 32.5547C110.209 32.5547 111.317 33.0808 112.205 34.1342C113.09 35.1888 113.535 36.5753 113.535 38.2949ZM110.988 38.3867C110.988 37.2874 110.741 36.3811 110.246 35.6678C109.706 34.924 108.982 34.552 108.072 34.552C107.454 34.552 106.894 34.7592 106.393 35.1676C105.891 35.5795 105.564 36.1174 105.41 36.7836C105.334 37.0943 105.294 37.3486 105.294 37.5486V39.4318C105.294 40.2534 105.545 40.9466 106.045 41.5127C106.546 42.0777 107.198 42.3614 108.002 42.3614C108.944 42.3614 109.677 41.9965 110.201 41.2691C110.726 40.5406 110.988 39.5801 110.988 38.3867Z" fill="white"/>
<path d="M128.001 39.6879C128.001 41.0202 127.54 42.1042 126.615 42.9411C125.599 43.8556 124.184 44.3122 122.366 44.3122C120.687 44.3122 119.341 43.9874 118.322 43.3365L118.901 41.245C119.999 41.9112 121.203 42.2455 122.514 42.2455C123.456 42.2455 124.189 42.0312 124.715 41.6052C125.239 41.1791 125.5 40.6071 125.5 39.8938C125.5 39.2583 125.285 38.7227 124.852 38.2884C124.422 37.8541 123.703 37.4504 122.7 37.0773C119.968 36.0545 118.604 34.5562 118.604 32.5859C118.604 31.2983 119.082 30.2425 120.04 29.421C120.994 28.5983 122.267 28.1875 123.859 28.1875C125.279 28.1875 126.458 28.4358 127.4 28.9314L126.775 30.977C125.896 30.4968 124.901 30.2566 123.789 30.2566C122.91 30.2566 122.223 30.4744 121.73 30.9075C121.314 31.2948 121.105 31.7667 121.105 32.3258C121.105 32.9449 121.343 33.4569 121.822 33.8594C122.238 34.2313 122.994 34.6339 124.091 35.0682C125.434 35.6108 126.42 36.2452 127.054 36.9725C127.686 37.6976 128.001 38.605 128.001 39.6879Z" fill="white"/>
<path d="M136.265 34.6739H133.51V40.1575C133.51 41.5522 133.995 42.249 134.968 42.249C135.415 42.249 135.786 42.2102 136.079 42.1325L136.148 44.038C135.655 44.2228 135.007 44.3158 134.204 44.3158C133.217 44.3158 132.446 44.0133 131.889 43.4095C131.334 42.8046 131.055 41.79 131.055 40.3647V34.6716H129.414V32.7884H131.055V30.7204L133.51 29.9766V32.7884H136.265V34.6739Z" fill="white"/>
<path d="M148.697 38.3396C148.697 40.0756 148.202 41.501 147.215 42.6156C146.18 43.7631 144.806 44.3352 143.093 44.3352C141.442 44.3352 140.128 43.7855 139.148 42.6862C138.168 41.5869 137.678 40.1992 137.678 38.5267C137.678 36.7765 138.182 35.343 139.194 34.2284C140.203 33.1126 141.565 32.5547 143.278 32.5547C144.929 32.5547 146.257 33.1043 147.26 34.2048C148.219 35.2724 148.697 36.6506 148.697 38.3396ZM146.104 38.4208C146.104 37.3792 145.882 36.4858 145.433 35.7408C144.909 34.8392 144.16 34.3896 143.189 34.3896C142.184 34.3896 141.421 34.8404 140.897 35.7408C140.448 36.487 140.227 37.3945 140.227 38.4679C140.227 39.5095 140.448 40.4028 140.897 41.1467C141.438 42.0483 142.193 42.4979 143.167 42.4979C144.121 42.4979 144.87 42.0389 145.411 41.1232C145.871 40.364 146.104 39.4613 146.104 38.4208Z" fill="white"/>
<path d="M156.822 34.9934C156.575 34.9475 156.311 34.924 156.034 34.924C155.155 34.924 154.475 35.2571 153.997 35.9244C153.58 36.5129 153.372 37.2568 153.372 38.1548V44.0809H150.873L150.897 36.3434C150.897 35.0417 150.865 33.8564 150.803 32.7877H152.98L153.072 34.9487H153.141C153.405 34.206 153.821 33.6081 154.391 33.1597C154.947 32.756 155.549 32.5547 156.197 32.5547C156.428 32.5547 156.637 32.5712 156.822 32.6006V34.9934Z" fill="white"/>
<path d="M168 37.901C168 38.3507 167.971 38.7296 167.909 39.0392H160.41C160.44 40.155 160.802 41.0083 161.498 41.5968C162.13 42.1229 162.947 42.3865 163.951 42.3865C165.061 42.3865 166.074 42.2088 166.985 41.8522L167.376 43.5941C166.312 44.0602 165.055 44.2921 163.605 44.2921C161.86 44.2921 160.491 43.7766 159.495 42.7467C158.5 41.7168 158.002 40.3339 158.002 38.599C158.002 36.8959 158.465 35.4776 159.393 34.3465C160.363 33.139 161.675 32.5352 163.326 32.5352C164.947 32.5352 166.175 33.139 167.008 34.3465C167.668 35.3058 168 36.4922 168 37.901ZM165.617 37.2502C165.633 36.5063 165.47 35.8637 165.131 35.3211C164.699 34.6231 164.034 34.2747 163.139 34.2747C162.322 34.2747 161.658 34.6149 161.15 35.2975C160.734 35.8401 160.486 36.491 160.41 37.249H165.617V37.2502Z" fill="white"/>
<path d="M81.5603 18.9057C81.5603 20.0756 81.2109 20.9562 80.5129 21.5476C79.8663 22.0933 78.9476 22.3667 77.7575 22.3667C77.1674 22.3667 76.6625 22.3408 76.2397 22.2891V15.8969C76.7912 15.8074 77.3852 15.7617 78.0268 15.7617C79.1604 15.7617 80.0149 16.0092 80.5911 16.5042C81.2366 17.0638 81.5603 17.864 81.5603 18.9057ZM80.4663 18.9345C80.4663 18.1761 80.2663 17.5946 79.8663 17.1891C79.4664 16.7845 78.8822 16.5817 78.1129 16.5817C77.7862 16.5817 77.508 16.6036 77.2773 16.6493V21.5089C77.4051 21.5288 77.6387 21.5377 77.9783 21.5377C78.7723 21.5377 79.3852 21.316 79.8168 20.8727C80.2485 20.4294 80.4663 19.7833 80.4663 18.9345Z" fill="white"/>
<path d="M87.3615 19.9248C87.3615 20.6455 87.1566 21.2359 86.7467 21.6991C86.317 22.1752 85.7477 22.4128 85.0369 22.4128C84.3517 22.4128 83.8062 22.1851 83.3993 21.7279C82.9934 21.2717 82.7904 20.6962 82.7904 20.0024C82.7904 19.2768 82.9993 18.6814 83.4191 18.2192C83.8389 17.757 84.4032 17.5254 85.1141 17.5254C85.7992 17.5254 86.3497 17.753 86.7665 18.2092C87.1625 18.6526 87.3615 19.2251 87.3615 19.9248ZM86.2853 19.9586C86.2853 19.5263 86.1923 19.1555 86.0071 18.8464C85.7893 18.4726 85.4794 18.2858 85.0765 18.2858C84.6596 18.2858 84.3428 18.4726 84.125 18.8464C83.9389 19.1555 83.8468 19.5322 83.8468 19.9775C83.8468 20.4099 83.9399 20.7807 84.125 21.0898C84.3498 21.4635 84.6626 21.6504 85.0666 21.6504C85.4626 21.6504 85.7735 21.4605 85.9972 21.0798C86.1893 20.7648 86.2853 20.391 86.2853 19.9586Z" fill="white"/>
<path d="M95.1387 17.625L93.6784 22.3106H92.7279L92.123 20.2759C91.9695 19.768 91.8448 19.2631 91.7477 18.7621H91.7289C91.6388 19.277 91.5141 19.7809 91.3537 20.2759L90.7112 22.3106H89.7498L88.3766 17.625H89.4429L89.9706 19.8525C90.0983 20.3793 90.2033 20.8813 90.2874 21.3564H90.3062C90.3834 20.9648 90.5112 20.4658 90.6913 19.8624L91.3537 17.626H92.1992L92.8338 19.8147C92.9873 20.3485 93.112 20.8624 93.2081 21.3574H93.2368C93.3071 20.8753 93.413 20.3614 93.5536 19.8147L94.1199 17.626H95.1387V17.625Z" fill="white"/>
<path d="M100.518 22.3074H99.4803V19.6237C99.4803 18.7967 99.1675 18.3832 98.5398 18.3832C98.2319 18.3832 97.9834 18.4965 97.7903 18.7242C97.5992 18.9518 97.5022 19.2202 97.5022 19.5273V22.3064H96.4646V18.9607C96.4646 18.5492 96.4518 18.1029 96.427 17.6199H97.3388L97.3874 18.3524H97.4161C97.5369 18.1248 97.717 17.9369 97.9537 17.7868C98.2349 17.6119 98.5497 17.5234 98.8942 17.5234C99.3299 17.5234 99.6922 17.6646 99.9803 17.9479C100.339 18.2948 100.518 18.8126 100.518 19.5005V22.3074V22.3074Z" fill="white"/>
<path d="M103.38 22.3102H102.343V15.4746H103.38V22.3102Z" fill="white"/>
<path d="M109.488 19.9248C109.488 20.6455 109.283 21.2359 108.873 21.6991C108.443 22.1752 107.873 22.4128 107.163 22.4128C106.477 22.4128 105.931 22.1851 105.525 21.7279C105.119 21.2717 104.916 20.6962 104.916 20.0024C104.916 19.2768 105.125 18.6814 105.545 18.2192C105.965 17.757 106.529 17.5254 107.239 17.5254C107.925 17.5254 108.475 17.753 108.892 18.2092C109.288 18.6526 109.488 19.2251 109.488 19.9248ZM108.41 19.9586C108.41 19.5263 108.317 19.1555 108.132 18.8464C107.915 18.4726 107.604 18.2858 107.202 18.2858C106.785 18.2858 106.468 18.4726 106.251 18.8464C106.065 19.1555 105.973 19.5322 105.973 19.9775C105.973 20.4099 106.066 20.7807 106.251 21.0898C106.476 21.4635 106.789 21.6504 107.193 21.6504C107.589 21.6504 107.898 21.4605 108.122 21.0798C108.315 20.7648 108.41 20.391 108.41 19.9586Z" fill="white"/>
<path d="M114.51 22.3064H113.578L113.501 21.7667H113.472C113.154 22.1971 112.699 22.4128 112.109 22.4128C111.669 22.4128 111.312 22.2706 111.044 21.9883C110.8 21.7319 110.678 21.4128 110.678 21.0341C110.678 20.4616 110.916 20.0252 111.394 19.7231C111.871 19.4209 112.543 19.2728 113.407 19.2798V19.1923C113.407 18.575 113.084 18.2669 112.438 18.2669C111.977 18.2669 111.572 18.3832 111.221 18.6138L111.01 17.9299C111.444 17.6606 111.979 17.5254 112.611 17.5254C113.831 17.5254 114.443 18.1715 114.443 19.4636V21.1892C114.443 21.6573 114.465 22.0301 114.51 22.3064ZM113.433 20.6962V19.9735C112.288 19.9537 111.716 20.2688 111.716 20.9178C111.716 21.1623 111.781 21.3452 111.915 21.4675C112.049 21.5897 112.219 21.6504 112.422 21.6504C112.65 21.6504 112.863 21.5778 113.057 21.4337C113.252 21.2886 113.371 21.1047 113.416 20.8791C113.427 20.8284 113.433 20.7667 113.433 20.6962Z" fill="white"/>
<path d="M120.407 22.3102H119.486L119.437 21.5577H119.409C119.115 22.1303 118.614 22.4165 117.91 22.4165C117.347 22.4165 116.879 22.1949 116.508 21.7516C116.136 21.3082 115.951 20.7327 115.951 20.026C115.951 19.2676 116.152 18.6533 116.556 18.1842C116.947 17.7468 117.426 17.5282 117.997 17.5282C118.623 17.5282 119.062 17.7399 119.312 18.1643H119.331V15.4746H120.37V21.0478C120.37 21.5041 120.382 21.9245 120.407 22.3102ZM119.331 20.3341V19.5529C119.331 19.4177 119.321 19.3084 119.303 19.2249C119.244 18.9744 119.118 18.7637 118.927 18.5937C118.734 18.4237 118.502 18.3382 118.233 18.3382C117.846 18.3382 117.543 18.4923 117.321 18.8014C117.1 19.1106 116.988 19.5052 116.988 19.9873C116.988 20.4504 117.094 20.8262 117.307 21.1154C117.531 21.4235 117.834 21.5776 118.214 21.5776C118.554 21.5776 118.826 21.4494 119.033 21.1919C119.233 20.9544 119.331 20.6681 119.331 20.3341Z" fill="white"/>
<path d="M129.278 19.9248C129.278 20.6455 129.073 21.2359 128.664 21.6991C128.234 22.1752 127.666 22.4128 126.954 22.4128C126.27 22.4128 125.724 22.1851 125.316 21.7279C124.91 21.2717 124.707 20.6962 124.707 20.0024C124.707 19.2768 124.916 18.6814 125.336 18.2192C125.756 17.757 126.32 17.5254 127.032 17.5254C127.716 17.5254 128.268 17.753 128.683 18.2092C129.079 18.6526 129.278 19.2251 129.278 19.9248ZM128.203 19.9586C128.203 19.5263 128.11 19.1555 127.925 18.8464C127.706 18.4726 127.397 18.2858 126.993 18.2858C126.578 18.2858 126.261 18.4726 126.042 18.8464C125.856 19.1555 125.764 19.5322 125.764 19.9775C125.764 20.4099 125.857 20.7807 126.042 21.0898C126.267 21.4635 126.579 21.6504 126.983 21.6504C127.379 21.6504 127.691 21.4605 127.915 21.0798C128.106 20.7648 128.203 20.391 128.203 19.9586Z" fill="white"/>
<path d="M134.858 22.3074H133.821V19.6237C133.821 18.7967 133.508 18.3832 132.88 18.3832C132.572 18.3832 132.323 18.4965 132.131 18.7242C131.939 18.9518 131.843 19.2202 131.843 19.5273V22.3064H130.804V18.9607C130.804 18.5492 130.793 18.1029 130.768 17.6199H131.679L131.727 18.3524H131.756C131.878 18.1248 132.058 17.9369 132.294 17.7868C132.576 17.6119 132.89 17.5234 133.235 17.5234C133.67 17.5234 134.032 17.6646 134.32 17.9479C134.68 18.2948 134.858 18.8126 134.858 19.5005V22.3074V22.3074Z" fill="white"/>
<path d="M141.842 18.4062H140.7V20.6824C140.7 21.2609 140.903 21.5501 141.304 21.5501C141.491 21.5501 141.645 21.5342 141.767 21.5014L141.794 22.2916C141.589 22.3692 141.319 22.4079 140.988 22.4079C140.578 22.4079 140.259 22.2827 140.028 22.0322C139.797 21.7817 139.682 21.3603 139.682 20.7689V18.4062H139V17.6259H139.682V16.7671L140.699 16.459V17.6249H141.841V18.4062H141.842Z" fill="white"/>
<path d="M147.335 22.3102H146.296V19.6463C146.296 18.8064 145.984 18.386 145.357 18.386C144.876 18.386 144.547 18.6295 144.367 19.1165C144.336 19.2189 144.318 19.3441 144.318 19.4913V22.3092H143.282V15.4746H144.318V18.2985H144.338C144.665 17.7846 145.133 17.5282 145.74 17.5282C146.17 17.5282 146.525 17.6693 146.807 17.9526C147.159 18.3054 147.335 18.8303 147.335 19.5241V22.3102V22.3102Z" fill="white"/>
<path d="M153 19.7431C153 19.93 152.986 20.087 152.961 20.2152H149.85C149.863 20.6784 150.012 21.0313 150.3 21.2758C150.563 21.4945 150.903 21.6038 151.319 21.6038C151.779 21.6038 152.199 21.5302 152.577 21.3821L152.74 22.1058C152.297 22.2986 151.776 22.395 151.173 22.395C150.451 22.395 149.881 22.1813 149.469 21.7539C149.056 21.3265 148.851 20.753 148.851 20.0333C148.851 19.3266 149.042 18.7382 149.427 18.269C149.829 17.7681 150.372 17.5176 151.058 17.5176C151.73 17.5176 152.24 17.7681 152.584 18.269C152.862 18.6666 153 19.1586 153 19.7431ZM152.01 19.4737C152.018 19.1646 151.949 18.8982 151.809 18.6736C151.629 18.3843 151.354 18.2392 150.983 18.2392C150.645 18.2392 150.368 18.3803 150.157 18.6636C149.985 18.8893 149.883 19.1586 149.85 19.4737H152.01Z" fill="white"/>
</svg>
