<svg width="78" height="64" viewBox="0 0 78 64" fill="none" xmlns="http://www.w3.org/2000/svg">
<path d="M63.8288 3.73246C64.104 2.70773 65.5579 2.70773 65.833 3.73246L66.6176 6.65472C67.2409 8.97618 69.0526 10.7905 71.3732 11.4171L74.2899 12.2046C75.3127 12.4808 75.3127 13.9319 74.2899 14.2081L71.3732 14.9956C69.0526 15.6222 67.2409 17.4365 66.6176 19.758L65.833 22.6802C65.5579 23.705 64.104 23.705 63.8288 22.6802L63.0443 19.758C62.421 17.4365 60.6093 15.6222 58.2887 14.9956L55.372 14.2081C54.3491 13.9319 54.3491 12.4808 55.372 12.2046L58.2887 11.4171C60.6093 10.7905 62.421 8.97618 63.0443 6.65472L63.8288 3.73246Z" fill="#FCBB51"/>
<path d="M10.1408 45.3833C10.4159 44.3586 11.8698 44.3586 12.145 45.3833L12.4998 46.7048C13.123 49.0263 14.9347 50.8406 17.2553 51.4672L18.5759 51.8238C19.5987 52.0999 19.5987 53.551 18.5759 53.8272L17.2553 54.1838C14.9347 54.8104 13.123 56.6247 12.4998 58.9461L12.145 60.2676C11.8698 61.2924 10.4159 61.2924 10.1408 60.2676L9.78595 58.9461C9.16268 56.6247 7.35097 54.8104 5.0304 54.1838L3.70985 53.8272C2.68704 53.551 2.68704 52.0999 3.70985 51.8238L5.0304 51.4672C7.35097 50.8406 9.16268 49.0263 9.78595 46.7048L10.1408 45.3833Z" fill="#FCEBD0"/>
<path d="M45 13.84V30.46C45 32.5 43.34 34.16 41.3 34.16H23C21.9 34.16 21 33.26 21 32.16V19.38C21 15.3 24.3 12 28.38 12H43.14C44.18 12 45 12.82 45 13.84Z" fill="#FB5E13"/>
<path d="M60 39C60.56 39 61 39.44 61 40V42C61 45.32 58.32 48 55 48C55 44.7 52.3 42 49 42C45.7 42 43 44.7 43 48H39C39 44.7 36.3 42 33 42C29.7 42 27 44.7 27 48C23.68 48 21 45.32 21 42V38C21 36.9 21.9 36 23 36H42C44.76 36 47 33.76 47 31V20C47 18.9 47.9 18 49 18H50.68C52.12 18 53.44 18.78 54.16 20.02L55.44 22.26C55.62 22.58 55.38 23 55 23C52.24 23 50 25.24 50 28V34C50 36.76 52.24 39 55 39H60Z" fill="#FB5E13"/>
<path d="M33 52C35.2091 52 37 50.2091 37 48C37 45.7909 35.2091 44 33 44C30.7909 44 29 45.7909 29 48C29 50.2091 30.7909 52 33 52Z" fill="#FB5E13"/>
<path d="M49 52C51.2091 52 53 50.2091 53 48C53 45.7909 51.2091 44 49 44C46.7909 44 45 45.7909 45 48C45 50.2091 46.7909 52 49 52Z" fill="#FB5E13"/>
<path d="M61 33.06V36H55C53.9 36 53 35.1 53 34V28C53 26.9 53.9 26 55 26H57.58L60.48 31.08C60.82 31.68 61 32.36 61 33.06Z" fill="#FB5E13"/>
</svg>
