<svg width="580" height="708" viewBox="0 0 580 708" fill="none" xmlns="http://www.w3.org/2000/svg">
<g filter="url(#filter0_ddddd_1842_42975)">
<g clip-path="url(#clip0_1842_42975)">
<rect x="-159.977" y="-32.75" width="520.395" height="284.507" rx="25.2695" transform="rotate(15.9167 -159.977 -32.75)" fill="black"/>
<path d="M333.595 185.271C337.253 181.213 343.924 184.606 342.799 189.952L336.572 219.538C334.021 231.659 338.114 244.221 347.315 252.513L369.775 272.754C373.834 276.411 370.441 283.083 365.095 281.958L335.508 275.731C323.388 273.18 310.825 277.272 302.533 286.473L282.293 308.934C278.635 312.992 271.964 309.599 273.089 304.253L279.316 274.667C281.867 262.546 277.774 249.984 268.573 241.692L246.113 221.451C242.054 217.794 245.447 211.122 250.793 212.247L280.38 218.474C292.501 221.025 305.063 216.933 313.355 207.731L333.595 185.271Z" fill="#FCBB51"/>
<path d="M110.262 -14.6944C113.919 -18.7529 120.591 -15.3601 119.466 -10.0139L113.876 16.5462C111.325 28.6668 115.417 41.2291 124.619 49.521L144.781 67.691C148.84 71.3485 145.447 78.0202 140.101 76.895L113.541 71.3049C101.42 68.7539 88.8579 72.8466 80.566 82.0478L62.3959 102.211C58.7385 106.269 52.0668 102.876 53.192 97.53L58.782 70.9699C61.333 58.8493 57.2404 46.287 48.0392 37.9951L27.8764 19.8251C23.8179 16.1676 27.2107 9.49592 32.557 10.6211L59.1171 16.2112C71.2377 18.7622 83.8 14.6695 92.0918 5.4683L110.262 -14.6944Z" fill="#FCBB51"/>
<path d="M41.2825 271.017C44.94 266.958 51.6117 270.351 50.4865 275.697L47.4662 290.048C44.9152 302.168 49.0078 314.731 58.2091 323.022L69.1029 332.84C73.1614 336.497 69.7686 343.169 64.4224 342.044L50.0721 339.023C37.9514 336.472 25.3892 340.565 17.0973 349.766L7.28007 360.66C3.62264 364.719 -3.04908 361.326 -1.92387 355.98L1.09641 341.629C3.64742 329.509 -0.445255 316.946 -9.64647 308.654L-20.5403 298.837C-24.5988 295.18 -21.206 288.508 -15.8598 289.633L-1.50948 292.654C10.6112 295.205 23.1734 291.112 31.4653 281.911L41.2825 271.017Z" fill="#FCBB51"/>
<path d="M151.036 185.72C153.541 184.626 155.881 187.55 154.264 189.754L149.923 195.67C146.256 200.667 145.526 207.238 148.007 212.918L150.943 219.642C152.037 222.147 149.113 224.487 146.909 222.87L140.993 218.529C135.996 214.862 129.425 214.132 123.746 216.613L117.021 219.549C114.516 220.644 112.176 217.719 113.793 215.515L118.134 209.599C121.801 204.602 122.531 198.031 120.05 192.352L117.114 185.627C116.02 183.122 118.944 180.782 121.148 182.4L127.064 186.741C132.061 190.407 138.632 191.137 144.311 188.657L151.036 185.72Z" fill="#FCEBD0"/>
<g clip-path="url(#clip1_1842_42975)">
<path d="M190.235 119.928L187.588 119.162L189.397 112.907L192.044 113.673L193.554 108.454L201.113 110.641L199.603 115.859L203.517 116.991L201.708 123.246L197.794 122.114L195.708 129.327C195.375 130.479 195.73 131.122 196.996 131.488L199.183 132.121L197.33 138.529L194.068 137.586C189.311 136.21 186.396 133.204 188.183 127.027L190.236 119.928L190.235 119.928Z" fill="#FCEBD0"/>
<path d="M213.112 119.476C216.182 120.364 217.942 122.327 218.5 124.568L219.365 121.576L226.886 123.751L220.66 145.276L213.139 143.101L214.005 140.108C212.337 141.705 209.762 142.415 206.73 141.539C201.627 140.063 198.769 134.704 200.756 127.835C202.743 120.966 208.009 117.999 213.112 119.475L213.112 119.476ZM213.631 126.736C211.483 126.114 209.273 127.138 208.429 130.054C207.586 132.971 208.896 135.054 211.045 135.676C213.195 136.297 215.414 135.235 216.257 132.319C217.101 129.402 215.741 127.346 213.631 126.736Z" fill="#FCEBD0"/>
<path d="M236.791 126.614L229.954 150.251C228.178 156.39 224.136 157.425 219.379 156.049L216.655 155.261L218.508 148.853L220.119 149.319C221.424 149.697 222.067 149.342 222.4 148.191L229.27 124.439L236.791 126.614ZM230.304 118.418C230.937 116.23 233.163 115.004 235.849 115.781C238.535 116.558 239.724 118.773 239.091 120.96C238.459 123.146 236.255 124.297 233.607 123.531C230.96 122.766 229.683 120.566 230.304 118.418Z" fill="#FCEBD0"/>
<path d="M247.149 129.32C250.219 130.208 251.979 132.172 252.537 134.413L253.403 131.42L260.924 133.596L254.698 155.121L247.177 152.946L248.042 149.953C246.375 151.549 243.799 152.26 240.767 151.383C235.664 149.907 232.807 144.549 234.793 137.68C236.78 130.811 242.046 127.843 247.149 129.319L247.149 129.32ZM247.668 136.58C245.52 135.959 243.31 136.983 242.466 139.899C241.623 142.815 242.933 144.899 245.082 145.52C247.232 146.142 249.451 145.079 250.294 142.163C251.138 139.247 249.778 137.191 247.668 136.58Z" fill="#FCEBD0"/>
<path d="M294.345 144.573C294.268 144.839 294.13 145.067 293.932 145.257C293.733 145.449 293.5 145.576 293.232 145.642C292.964 145.709 292.698 145.702 292.433 145.626C292.168 145.549 291.942 145.412 291.751 145.214C291.559 145.015 291.431 144.783 291.364 144.515C291.298 144.247 291.304 143.981 291.38 143.716C291.457 143.451 291.594 143.224 291.793 143.033C291.992 142.841 292.225 142.713 292.493 142.647C292.761 142.581 293.026 142.587 293.29 142.663C293.554 142.739 293.784 142.878 293.975 143.075C294.166 143.274 294.294 143.507 294.361 143.775C294.427 144.043 294.421 144.309 294.345 144.573ZM294.058 144.49C294.153 144.16 294.118 143.845 293.952 143.543C293.785 143.242 293.537 143.043 293.207 142.947C292.877 142.852 292.561 142.887 292.259 143.053C291.957 143.22 291.759 143.468 291.664 143.798C291.568 144.128 291.603 144.444 291.77 144.745C291.936 145.047 292.184 145.245 292.515 145.341C292.845 145.436 293.16 145.401 293.462 145.235C293.764 145.069 293.962 144.82 294.058 144.49ZM292.418 143.158L293.127 143.363C293.328 143.421 293.462 143.503 293.528 143.61C293.594 143.717 293.608 143.839 293.569 143.975C293.538 144.081 293.477 144.163 293.386 144.221C293.296 144.28 293.171 144.305 293.013 144.296C293.067 144.337 293.104 144.374 293.126 144.409C293.155 144.457 293.182 144.522 293.205 144.607C293.206 144.613 293.247 144.79 293.329 145.139L292.863 145.004C292.799 144.659 292.749 144.448 292.714 144.375C292.68 144.301 292.636 144.256 292.584 144.241C292.573 144.238 292.555 144.235 292.534 144.232L292.354 144.856L291.959 144.742L292.417 143.157L292.418 143.158ZM292.618 143.944L292.789 143.993C292.903 144.026 292.989 144.03 293.046 144.007C293.103 143.984 293.14 143.943 293.157 143.885C293.174 143.827 293.165 143.773 293.131 143.723C293.097 143.673 293.027 143.633 292.919 143.602L292.732 143.548L292.617 143.944L292.618 143.944Z" fill="#E35B33"/>
<path d="M266.465 138.391L262.665 145.073C261.688 146.791 261.942 148.998 263.393 150.34C263.873 150.786 264.462 151.128 265.134 151.322C267.437 151.988 269.845 150.661 270.511 148.357C269.845 150.661 271.172 153.068 273.475 153.735C275.779 154.401 278.187 153.073 278.853 150.77C278.187 153.073 279.514 155.481 281.817 156.147C282.489 156.342 283.17 156.367 283.814 156.247C285.757 155.886 287.15 154.156 287.241 152.181L287.595 144.502C287.688 142.485 286.385 140.667 284.444 140.106L271.475 136.354C269.535 135.793 267.464 136.636 266.465 138.391Z" fill="#E35B33"/>
</g>
</g>
</g>
<defs>
<filter id="filter0_ddddd_1842_42975" x="-268.323" y="-55.4926" width="865.276" height="768.823" filterUnits="userSpaceOnUse" color-interpolation-filters="sRGB">
<feFlood flood-opacity="0" result="BackgroundImageFix"/>
<feColorMatrix in="SourceAlpha" type="matrix" values="0 0 0 0 0 0 0 0 0 0 0 0 0 0 0 0 0 0 127 0" result="hardAlpha"/>
<feOffset/>
<feColorMatrix type="matrix" values="0 0 0 0 0 0 0 0 0 0 0 0 0 0 0 0 0 0 0.22 0"/>
<feBlend mode="normal" in2="BackgroundImageFix" result="effect1_dropShadow_1842_42975"/>
<feColorMatrix in="SourceAlpha" type="matrix" values="0 0 0 0 0 0 0 0 0 0 0 0 0 0 0 0 0 0 127 0" result="hardAlpha"/>
<feOffset dx="8.84434" dy="13.8982"/>
<feGaussianBlur stdDeviation="18.3204"/>
<feColorMatrix type="matrix" values="0 0 0 0 0 0 0 0 0 0 0 0 0 0 0 0 0 0 0.21 0"/>
<feBlend mode="normal" in2="effect1_dropShadow_1842_42975" result="effect2_dropShadow_1842_42975"/>
<feColorMatrix in="SourceAlpha" type="matrix" values="0 0 0 0 0 0 0 0 0 0 0 0 0 0 0 0 0 0 127 0" result="hardAlpha"/>
<feOffset dx="36.6408" dy="55.593"/>
<feGaussianBlur stdDeviation="33.4821"/>
<feColorMatrix type="matrix" values="0 0 0 0 0 0 0 0 0 0 0 0 0 0 0 0 0 0 0.19 0"/>
<feBlend mode="normal" in2="effect2_dropShadow_1842_42975" result="effect3_dropShadow_1842_42975"/>
<feColorMatrix in="SourceAlpha" type="matrix" values="0 0 0 0 0 0 0 0 0 0 0 0 0 0 0 0 0 0 127 0" result="hardAlpha"/>
<feOffset dx="83.3895" dy="125.084"/>
<feGaussianBlur stdDeviation="44.8534"/>
<feColorMatrix type="matrix" values="0 0 0 0 0 0 0 0 0 0 0 0 0 0 0 0 0 0 0.11 0"/>
<feBlend mode="normal" in2="effect3_dropShadow_1842_42975" result="effect4_dropShadow_1842_42975"/>
<feColorMatrix in="SourceAlpha" type="matrix" values="0 0 0 0 0 0 0 0 0 0 0 0 0 0 0 0 0 0 127 0" result="hardAlpha"/>
<feOffset dx="149.09" dy="222.372"/>
<feGaussianBlur stdDeviation="53.6978"/>
<feColorMatrix type="matrix" values="0 0 0 0 0 0 0 0 0 0 0 0 0 0 0 0 0 0 0.03 0"/>
<feBlend mode="normal" in2="effect4_dropShadow_1842_42975" result="effect5_dropShadow_1842_42975"/>
<feBlend mode="normal" in="SourceGraphic" in2="effect5_dropShadow_1842_42975" result="shape"/>
</filter>
<clipPath id="clip0_1842_42975">
<rect x="-159.977" y="-32.75" width="520.395" height="284.507" rx="25.2695" transform="rotate(15.9167 -159.977 -32.75)" fill="white"/>
</clipPath>
<clipPath id="clip1_1842_42975">
<rect width="136.768" height="89.7936" fill="white" transform="translate(180.781 75.4248) rotate(16.1319)"/>
</clipPath>
</defs>
</svg>
