<svg width="580" height="720" viewBox="0 0 580 720" fill="none" xmlns="http://www.w3.org/2000/svg">
<g filter="url(#filter0_d_1842_42955)">
<g clip-path="url(#clip0_1842_42955)">
<rect x="10.7539" y="-45" width="520.395" height="284.507" rx="25.2695" transform="rotate(13.8598 10.7539 -45)" fill="#FCBB51"/>
<rect x="45.4791" y="74.8467" width="61.2025" height="48.962" rx="9.41577" transform="rotate(13.8598 45.4791 74.8467)" fill="#FCCD27"/>
<path d="M25.0159 102.771L28.6247 88.144L12.9875 92.5616L25.0159 102.771Z" fill="white"/>
<path opacity="0.4" d="M282.544 234.905C283.506 229.527 290.963 228.885 292.831 234.019L297.845 247.8C302.079 259.44 312.189 267.946 324.382 270.128L338.817 272.712C344.195 273.674 344.837 281.131 339.703 282.999L325.922 288.013C314.282 292.248 305.776 302.357 303.594 314.55L301.01 328.985C300.048 334.363 292.59 335.005 290.722 329.871L285.709 316.09C281.474 304.45 271.365 295.944 259.172 293.762L244.737 291.178C239.359 290.216 238.717 282.758 243.851 280.89L257.632 275.877C269.272 271.642 277.778 261.533 279.96 249.34L282.544 234.905Z" fill="#FCBB51"/>
<path opacity="0.5" d="M448.602 183.664C449.79 177.026 458.995 176.233 461.3 182.57L467.489 199.581C472.716 213.949 485.195 224.449 500.245 227.142L518.064 230.332C524.702 231.52 525.495 240.725 519.157 243.03L502.146 249.219C487.779 254.446 477.279 266.925 474.585 281.975L471.396 299.793C470.208 306.432 461.003 307.225 458.697 300.887L452.509 283.876C447.282 269.508 434.803 259.009 419.753 256.315L401.934 253.126C395.296 251.938 394.503 242.733 400.841 240.427L417.851 234.239C432.219 229.011 442.719 216.532 445.413 201.483L448.602 183.664Z" fill="#FCEBD0"/>
<path opacity="0.5" d="M268.069 -14.6465C269.257 -21.2848 278.462 -22.0776 280.768 -15.7402L286.956 1.27069C292.183 15.6385 304.662 26.1384 319.712 28.8319L337.531 32.021C344.169 33.2091 344.962 42.4141 338.624 44.7197L321.614 50.9084C307.246 56.1355 296.746 68.6144 294.052 83.6644L290.863 101.483C289.675 108.121 280.47 108.914 278.165 102.577L271.976 85.5657C266.749 71.1979 254.27 60.698 239.22 58.0044L221.401 54.8154C214.763 53.6273 213.97 44.4223 220.308 42.1167L237.319 35.928C251.686 30.7009 262.186 18.2219 264.88 3.17199L268.069 -14.6465Z" fill="#FCEBD0"/>
<path opacity="0.4" d="M22.5159 190.087C23.4784 184.71 30.9356 184.067 32.8035 189.201L37.8171 202.982C42.0518 214.622 52.1614 223.129 64.3538 225.311L78.7891 227.894C84.167 228.857 84.8093 236.314 79.6751 238.182L65.8941 243.196C54.2543 247.43 45.748 257.54 43.5659 269.732L40.9823 284.168C40.0198 289.545 32.5626 290.188 30.6947 285.054L25.6811 271.273C21.4464 259.633 11.3368 251.126 -0.855614 248.944L-15.291 246.361C-20.6689 245.398 -21.3111 237.941 -16.177 236.073L-2.39592 231.059C9.24389 226.825 17.7502 216.715 19.9323 204.523L22.5159 190.087Z" fill="#FCBB51"/>
<path opacity="0.4" d="M356.553 139.146C358.103 136.894 361.634 138.142 361.425 140.867L360.863 148.184C360.388 154.363 363.238 160.328 368.344 163.841L374.389 168.001C376.641 169.551 375.393 173.082 372.667 172.872L365.351 172.31C359.172 171.836 353.207 174.686 349.693 179.792L345.534 185.837C343.984 188.089 340.453 186.841 340.662 184.115L341.224 176.799C341.699 170.619 338.849 164.654 333.743 161.141L327.698 156.981C325.446 155.432 326.694 151.901 329.42 152.11L336.736 152.672C342.915 153.147 348.881 150.297 352.394 145.191L356.553 139.146Z" fill="#FCEBD0"/>
<path d="M374.178 94.7588L371.713 94.1365L373.184 88.3136L375.648 88.9359L376.875 84.0778L383.912 85.8546L382.685 90.7126L386.328 91.6325L384.858 97.4554L381.215 96.5355L379.52 103.25C379.249 104.322 379.596 104.904 380.775 105.201L382.811 105.716L381.305 111.681L378.269 110.914C373.84 109.796 371.058 107.118 372.51 101.367L374.179 94.759L374.178 94.7588Z" fill="#FCEBD0"/>
<path d="M395.253 93.6196C398.111 94.3413 399.795 96.0959 400.38 98.1439L401.084 95.3579L408.085 97.1257L403.026 117.164L396.024 115.396L396.728 112.61C395.241 114.134 392.89 114.871 390.067 114.158C385.317 112.959 382.513 108.11 384.128 101.715C385.742 95.321 390.503 92.4194 395.253 93.6188L395.253 93.6196ZM395.961 100.296C393.961 99.7905 391.956 100.804 391.271 103.519C390.585 106.234 391.859 108.113 393.86 108.618C395.861 109.123 397.872 108.073 398.558 105.359C399.243 102.644 397.925 100.791 395.961 100.296Z" fill="#FCEBD0"/>
<path d="M417.298 99.4529L411.743 121.457C410.3 127.172 406.607 128.253 402.178 127.135L399.642 126.495L401.148 120.529L402.648 120.908C403.863 121.215 404.444 120.867 404.714 119.796L410.297 97.6852L417.298 99.4529ZM411.061 92.1024C411.575 90.0659 413.588 88.8652 416.088 89.4964C418.588 90.1277 419.755 92.1321 419.241 94.1677C418.727 96.2033 416.731 97.3337 414.267 96.7115C411.802 96.0892 410.556 94.1024 411.061 92.1024Z" fill="#FCEBD0"/>
<path d="M426.934 101.62C429.792 102.341 431.476 104.096 432.061 106.144L432.765 103.358L439.766 105.126L434.707 125.164L427.705 123.396L428.409 120.61C426.922 122.134 424.571 122.871 421.748 122.158C416.998 120.959 414.194 116.11 415.809 109.715C417.423 103.321 422.184 100.419 426.934 101.619L426.934 101.62ZM427.642 108.296C425.642 107.791 423.637 108.804 422.952 111.519C422.266 114.234 423.54 116.113 425.541 116.618C427.541 117.123 429.553 116.073 430.239 113.359C430.924 110.644 429.606 108.792 427.642 108.296Z" fill="#FCEBD0"/>
<path d="M470.925 114.19C470.862 114.438 470.742 114.652 470.565 114.834C470.388 115.016 470.177 115.141 469.932 115.211C469.688 115.28 469.442 115.283 469.196 115.221C468.949 115.158 468.736 115.039 468.553 114.863C468.371 114.685 468.245 114.475 468.175 114.23C468.106 113.986 468.102 113.74 468.165 113.493C468.227 113.247 468.346 113.033 468.524 112.851C468.701 112.668 468.912 112.542 469.157 112.473C469.402 112.403 469.646 112.4 469.892 112.462C470.138 112.525 470.354 112.645 470.536 112.821C470.718 112.998 470.844 113.209 470.914 113.454C470.983 113.699 470.987 113.944 470.925 114.19ZM470.657 114.123C470.735 113.815 470.692 113.526 470.529 113.253C470.366 112.98 470.132 112.805 469.824 112.727C469.517 112.649 469.227 112.692 468.954 112.855C468.681 113.018 468.506 113.253 468.429 113.56C468.351 113.867 468.393 114.157 468.556 114.43C468.719 114.703 468.954 114.878 469.262 114.956C469.569 115.033 469.859 114.991 470.132 114.828C470.404 114.666 470.579 114.43 470.657 114.123ZM469.104 112.946L469.764 113.113C469.95 113.16 470.076 113.231 470.141 113.328C470.205 113.425 470.222 113.536 470.19 113.663C470.165 113.762 470.112 113.839 470.03 113.896C469.948 113.953 469.834 113.98 469.688 113.977C469.739 114.013 469.775 114.046 469.796 114.077C469.824 114.12 469.851 114.18 469.875 114.257C469.876 114.263 469.919 114.424 470.006 114.744L469.572 114.634C469.502 114.318 469.45 114.125 469.415 114.058C469.381 113.992 469.339 113.952 469.291 113.939C469.28 113.937 469.264 113.935 469.244 113.933L469.098 114.513L468.731 114.421L469.103 112.945L469.104 112.946ZM469.313 113.664L469.472 113.704C469.578 113.731 469.657 113.733 469.709 113.71C469.761 113.686 469.794 113.647 469.808 113.593C469.821 113.539 469.812 113.49 469.779 113.445C469.746 113.399 469.68 113.365 469.579 113.34L469.405 113.296L469.312 113.665L469.313 113.664Z" fill="#E35B33"/>
<path d="M444.002 109.435L440.71 115.714C439.863 117.328 440.168 119.354 441.547 120.546C442.004 120.942 442.558 121.238 443.183 121.396C445.327 121.938 447.505 120.638 448.046 118.494C447.505 120.638 448.804 122.815 450.948 123.357C453.093 123.898 455.27 122.599 455.812 120.454C455.27 122.599 456.57 124.776 458.714 125.318C459.339 125.475 459.968 125.477 460.557 125.346C462.337 124.952 463.567 123.313 463.588 121.49L463.672 114.401C463.694 112.539 462.436 110.904 460.629 110.447L448.556 107.399C446.75 106.943 444.867 107.785 444.002 109.435Z" fill="#FB5E13"/>
</g>
</g>
<defs>
<filter id="filter0_d_1842_42955" x="-57.3987" y="-45" width="1058.57" height="887.321" filterUnits="userSpaceOnUse" color-interpolation-filters="sRGB">
<feFlood flood-opacity="0" result="BackgroundImageFix"/>
<feColorMatrix in="SourceAlpha" type="matrix" values="0 0 0 0 0 0 0 0 0 0 0 0 0 0 0 0 0 0 127 0" result="hardAlpha"/>
<feOffset dx="347.456" dy="348.72"/>
<feGaussianBlur stdDeviation="68.8595"/>
<feColorMatrix type="matrix" values="0 0 0 0 0 0 0 0 0 0 0 0 0 0 0 0 0 0 0.01 0"/>
<feBlend mode="normal" in2="BackgroundImageFix" result="effect1_dropShadow_1842_42955"/>
<feBlend mode="normal" in="SourceGraphic" in2="effect1_dropShadow_1842_42955" result="shape"/>
</filter>
<clipPath id="clip0_1842_42955">
<rect x="10.7539" y="-45" width="520.395" height="284.507" rx="25.2695" transform="rotate(13.8598 10.7539 -45)" fill="white"/>
</clipPath>
</defs>
</svg>
