<svg width="77" height="49" viewBox="0 0 77 49" fill="none" xmlns="http://www.w3.org/2000/svg">
<path d="M0 29.8858C0 12.9322 14.7851 -1.45858 34.4985 0.118486V10.7637C23.459 10.3695 15.5736 15.6921 13.7994 24.366C15.3765 23.7746 16.9536 23.5775 18.3335 23.5775C25.8246 23.5775 31.1472 29.0972 31.1472 35.9969C31.1472 43.6852 25.2332 49.0078 16.5593 49.0078C6.11117 49.0078 0 41.3196 0 29.8858ZM41.9896 29.8858C41.9896 12.9322 56.7747 -1.45858 76.4881 0.118486V10.7637C65.4486 10.3695 57.5632 15.6921 55.789 24.366C57.3661 23.7746 58.9432 23.5775 60.3231 23.5775C67.6171 23.5775 73.1369 29.0972 73.1369 35.9969C73.1369 43.6852 67.0257 49.0078 58.5489 49.0078C48.1008 49.0078 41.9896 41.3196 41.9896 29.8858Z" fill="#01C38E"/>
</svg>
