<svg width="40" height="40" viewBox="0 0 40 40" fill="none" xmlns="http://www.w3.org/2000/svg">
<path d="M33.3333 24.5827C30.8 24.5827 28.75 22.5327 28.75 19.9993C28.75 17.466 30.8 15.416 33.3333 15.416C35.8667 15.416 37.9167 17.466 37.9167 19.9993C37.9167 22.5327 35.8667 24.5827 33.3333 24.5827ZM33.3333 17.916C32.1833 17.916 31.25 18.8493 31.25 19.9993C31.25 21.1493 32.1833 22.0827 33.3333 22.0827C34.4833 22.0827 35.4167 21.1493 35.4167 19.9993C35.4167 18.8493 34.4833 17.916 33.3333 17.916Z" fill="#132D46"/>
<path d="M33.3333 11.2507C30.8 11.2507 28.75 9.20065 28.75 6.66732C28.75 4.13398 30.8 2.08398 33.3333 2.08398C35.8667 2.08398 37.9167 4.13398 37.9167 6.66732C37.9167 9.20065 35.8667 11.2507 33.3333 11.2507ZM33.3333 4.58398C32.1833 4.58398 31.25 5.51732 31.25 6.66732C31.25 7.81732 32.1833 8.75065 33.3333 8.75065C34.4833 8.75065 35.4167 7.81732 35.4167 6.66732C35.4167 5.51732 34.4833 4.58398 33.3333 4.58398Z" fill="#132D46"/>
<path d="M33.3333 37.9167C30.8 37.9167 28.75 35.8667 28.75 33.3333C28.75 30.8 30.8 28.75 33.3333 28.75C35.8667 28.75 37.9167 30.8 37.9167 33.3333C37.9167 35.8667 35.8667 37.9167 33.3333 37.9167ZM33.3333 31.25C32.1833 31.25 31.25 32.1833 31.25 33.3333C31.25 34.4833 32.1833 35.4167 33.3333 35.4167C34.4833 35.4167 35.4167 34.4833 35.4167 33.3333C35.4167 32.1833 34.4833 31.25 33.3333 31.25Z" fill="#132D46"/>
<path d="M6.66671 24.5827C4.13337 24.5827 2.08337 22.5327 2.08337 19.9993C2.08337 17.466 4.13337 15.416 6.66671 15.416C9.20004 15.416 11.25 17.466 11.25 19.9993C11.25 22.5327 9.20004 24.5827 6.66671 24.5827ZM6.66671 17.916C5.51671 17.916 4.58337 18.8493 4.58337 19.9993C4.58337 21.1493 5.51671 22.0827 6.66671 22.0827C7.81671 22.0827 8.75004 21.1493 8.75004 19.9993C8.75004 18.8493 7.81671 17.916 6.66671 17.916Z" fill="#132D46"/>
<path d="M30 21.25H10C9.31667 21.25 8.75 20.6833 8.75 20C8.75 19.3167 9.31667 18.75 10 18.75H30C30.6833 18.75 31.25 19.3167 31.25 20C31.25 20.6833 30.6833 21.25 30 21.25Z" fill="#132D46"/>
<path d="M30 34.5827H23.3334C19.3 34.5827 17.0834 32.366 17.0834 28.3327V11.666C17.0834 7.63268 19.3 5.41602 23.3334 5.41602H30C30.6834 5.41602 31.25 5.98268 31.25 6.66602C31.25 7.34935 30.6834 7.91602 30 7.91602H23.3334C20.7 7.91602 19.5834 9.03268 19.5834 11.666V28.3327C19.5834 30.966 20.7 32.0827 23.3334 32.0827H30C30.6834 32.0827 31.25 32.6493 31.25 33.3327C31.25 34.016 30.6834 34.5827 30 34.5827Z" fill="#132D46"/>
</svg>
