<svg width="40" height="40" viewBox="0 0 40 40" fill="none" xmlns="http://www.w3.org/2000/svg">
<path d="M22.6167 37.2995C22.2333 37.2995 21.85 37.2328 21.4833 37.0995C20.2333 36.6328 19.4333 35.4661 19.4333 34.1328V23.3828H15.5333C14.2667 23.3828 13.1666 22.6661 12.65 21.5161C12.1333 20.3661 12.3333 19.0661 13.1666 18.1161L25.7833 3.78279C26.6666 2.78279 28.0333 2.43279 29.2833 2.91612C30.5333 3.38279 31.3333 4.54946 31.3333 5.88279V16.6328H35.2333C36.5 16.6328 37.6 17.3495 38.1166 18.4995C38.6333 19.6495 38.4333 20.9495 37.6 21.8995L24.9833 36.2328C24.3666 36.9328 23.5 37.2995 22.6167 37.2995ZM28.1333 5.19946C27.9833 5.19946 27.8 5.24946 27.65 5.43279L15.0333 19.7828C14.7666 20.0828 14.8667 20.3828 14.9167 20.4995C14.9667 20.6161 15.1333 20.8995 15.5333 20.8995H20.6833C21.3666 20.8995 21.9333 21.4661 21.9333 22.1495V34.1495C21.9333 34.5661 22.2333 34.7328 22.3667 34.7828C22.5 34.8328 22.8333 34.9161 23.1 34.5995L35.7166 20.2495C35.9833 19.9495 35.8833 19.6495 35.8333 19.5328C35.7833 19.4161 35.6167 19.1328 35.2167 19.1328H30.0667C29.3833 19.1328 28.8167 18.5661 28.8167 17.8828V5.88279C28.8167 5.46612 28.5166 5.29946 28.3833 5.24946C28.3333 5.21612 28.2333 5.19946 28.1333 5.19946Z" fill="#132D46"/>
<path d="M14.1667 7.91602H2.5C1.81667 7.91602 1.25 7.34935 1.25 6.66602C1.25 5.98268 1.81667 5.41602 2.5 5.41602H14.1667C14.85 5.41602 15.4167 5.98268 15.4167 6.66602C15.4167 7.34935 14.85 7.91602 14.1667 7.91602Z" fill="#132D46"/>
<path d="M12.5 34.584H2.5C1.81667 34.584 1.25 34.0173 1.25 33.334C1.25 32.6507 1.81667 32.084 2.5 32.084H12.5C13.1833 32.084 13.75 32.6507 13.75 33.334C13.75 34.0173 13.1833 34.584 12.5 34.584Z" fill="#132D46"/>
<path d="M7.5 21.25H2.5C1.81667 21.25 1.25 20.6833 1.25 20C1.25 19.3167 1.81667 18.75 2.5 18.75H7.5C8.18333 18.75 8.75 19.3167 8.75 20C8.75 20.6833 8.18333 21.25 7.5 21.25Z" fill="#132D46"/>
</svg>
