<svg width="45" height="51" viewBox="0 0 45 51" fill="none" xmlns="http://www.w3.org/2000/svg">
<path d="M0.906358 1.5428C0.342765 2.13592 0.0166016 3.05936 0.0166016 4.25524V46.9118C0.0166016 48.1076 0.342765 49.0311 0.906358 49.6242L1.04546 49.7544L24.8219 25.8608V25.2966L1.04546 1.40296L0.906358 1.5428Z" fill="url(#paint0_linear_5892_39534)"/>
<path d="M32.7331 33.8242L24.8164 25.8557V25.2915L32.7427 17.3229L32.9202 17.4266L42.307 22.796C44.9859 24.3198 44.9859 26.8273 42.307 28.3608L32.9202 33.7205L32.7331 33.8242V33.8242Z" fill="url(#paint1_linear_5892_39534)"/>
<path d="M32.9197 33.7296L24.816 25.5826L0.900391 49.6281C1.79015 50.5684 3.2411 50.6818 4.89111 49.7414L32.9197 33.7296" fill="url(#paint2_linear_5892_39534)"/>
<path d="M32.9197 17.4258L4.89111 1.41393C3.2411 0.483259 1.79015 0.596576 0.900391 1.53689L24.816 25.5728L32.9197 17.4258Z" fill="url(#paint3_linear_5892_39534)"/>
<defs>
<linearGradient id="paint0_linear_5892_39534" x1="22.7109" y1="47.356" x2="-9.65941" y2="15.1574" gradientUnits="userSpaceOnUse">
<stop stop-color="#00A0FF"/>
<stop offset="0.0066" stop-color="#00A1FF"/>
<stop offset="0.2601" stop-color="#00BEFF"/>
<stop offset="0.5122" stop-color="#00D2FF"/>
<stop offset="0.7604" stop-color="#00DFFF"/>
<stop offset="1" stop-color="#00E3FF"/>
</linearGradient>
<linearGradient id="paint1_linear_5892_39534" x1="45.7953" y1="25.5709" x2="-0.629249" y2="25.5709" gradientUnits="userSpaceOnUse">
<stop stop-color="#FFE000"/>
<stop offset="0.4087" stop-color="#FFBD00"/>
<stop offset="0.7754" stop-color="#FFA500"/>
<stop offset="1" stop-color="#FF9C00"/>
</linearGradient>
<linearGradient id="paint2_linear_5892_39534" x1="28.5131" y1="21.1538" x2="-15.3836" y2="-22.5101" gradientUnits="userSpaceOnUse">
<stop stop-color="#FF3A44"/>
<stop offset="1" stop-color="#C31162"/>
</linearGradient>
<linearGradient id="paint3_linear_5892_39534" x1="-5.11965" y1="63.8099" x2="14.4822" y2="44.3122" gradientUnits="userSpaceOnUse">
<stop stop-color="#32A071"/>
<stop offset="0.0685" stop-color="#2DA771"/>
<stop offset="0.4762" stop-color="#15CF74"/>
<stop offset="0.8009" stop-color="#06E775"/>
<stop offset="1" stop-color="#00F076"/>
</linearGradient>
</defs>
</svg>
