<svg width="218" height="65" viewBox="0 0 218 65" fill="none" xmlns="http://www.w3.org/2000/svg">
<rect x="0.5" y="0.896484" width="217" height="63" rx="31.5" stroke="black"/>
<path d="M87.0613 21.7021C87.0613 22.6237 86.7868 23.3619 86.2461 23.9124C85.6244 24.565 84.8146 24.8934 83.8224 24.8934C82.8741 24.8934 82.0643 24.5595 81.4001 23.9014C80.7345 23.2336 80.4023 22.414 80.4023 21.433C80.4023 20.452 80.7345 19.6325 81.4001 18.9702C82.0643 18.3066 82.8741 17.9727 83.8224 17.9727C84.2945 17.9727 84.7447 18.0706 85.1742 18.2527C85.6024 18.4362 85.951 18.6846 86.2035 18.9909L85.6299 19.5731C85.1893 19.0502 84.5896 18.7922 83.8224 18.7922C83.1307 18.7922 82.531 19.035 82.0218 19.5249C81.5181 20.016 81.2656 20.6521 81.2656 21.433C81.2656 22.2139 81.5181 22.8555 82.0218 23.3467C82.531 23.831 83.1307 24.0793 83.8224 24.0793C84.5566 24.0793 85.1742 23.831 85.6614 23.3412C85.9826 23.017 86.1651 22.5699 86.2131 21.9987H83.8224V21.2012H87.0119C87.0503 21.3737 87.0613 21.5406 87.0613 21.7021Z" fill="#132D46" stroke="#132D46" stroke-width="0.108962" stroke-miterlimit="10"/>
<path d="M92.1217 18.9416H89.1257V21.0388H91.8266V21.8362H89.1257V23.9334H92.1217V24.7461H88.2776V18.1289H92.1217V18.9416Z" fill="#132D46" stroke="#132D46" stroke-width="0.108962" stroke-miterlimit="10"/>
<path d="M95.6926 24.7461H94.8445V18.9416H93.0068V18.1289H97.5317V18.9416H95.6926V24.7461Z" fill="#132D46" stroke="#132D46" stroke-width="0.108962" stroke-miterlimit="10"/>
<path d="M100.806 24.7461V18.1289H101.653V24.7461H100.806Z" fill="#132D46" stroke="#132D46" stroke-width="0.108962" stroke-miterlimit="10"/>
<path d="M105.404 24.7461H104.562V18.9416H102.718V18.1289H107.248V18.9416H105.404V24.7461Z" fill="#132D46" stroke="#132D46" stroke-width="0.108962" stroke-miterlimit="10"/>
<path d="M115.818 23.8903C115.169 24.5595 114.365 24.8934 113.405 24.8934C112.441 24.8934 111.636 24.5595 110.987 23.8903C110.339 23.2225 110.017 22.403 110.017 21.433C110.017 20.4631 110.339 19.6435 110.987 18.9757C111.636 18.3066 112.441 17.9727 113.405 17.9727C114.359 17.9727 115.163 18.3066 115.813 18.9812C116.466 19.6545 116.788 20.4686 116.788 21.433C116.788 22.403 116.466 23.2225 115.818 23.8903ZM111.614 23.3357C112.103 23.831 112.697 24.0793 113.405 24.0793C114.108 24.0793 114.708 23.831 115.191 23.3357C115.678 22.8403 115.925 22.2043 115.925 21.433C115.925 20.6618 115.678 20.0257 115.191 19.5304C114.708 19.035 114.108 18.7867 113.405 18.7867C112.697 18.7867 112.103 19.035 111.614 19.5304C111.127 20.0257 110.88 20.6618 110.88 21.433C110.88 22.2043 111.127 22.8403 111.614 23.3357Z" fill="#132D46" stroke="#132D46" stroke-width="0.108962" stroke-miterlimit="10"/>
<path d="M117.981 24.7461V18.1289H119.01L122.21 23.2753H122.248L122.21 22.0032V18.1289H123.057V24.7461H122.173L118.822 19.3458H118.785L118.822 20.6235V24.7461H117.981Z" fill="#132D46" stroke="#132D46" stroke-width="0.108962" stroke-miterlimit="10"/>
<path d="M109.807 34.4037C107.228 34.4037 105.122 36.3767 105.122 39.0989C105.122 41.799 107.228 43.7927 109.807 43.7927C112.391 43.7927 114.498 41.799 114.498 39.0989C114.498 36.3767 112.391 34.4037 109.807 34.4037ZM109.807 41.9439C108.392 41.9439 107.175 40.7698 107.175 39.0989C107.175 37.406 108.392 36.2525 109.807 36.2525C111.222 36.2525 112.445 37.406 112.445 39.0989C112.445 40.7698 111.222 41.9439 109.807 41.9439ZM99.5841 34.4037C96.9999 34.4037 94.8987 36.3767 94.8987 39.0989C94.8987 41.799 96.9999 43.7927 99.5841 43.7927C102.167 43.7927 104.27 41.799 104.27 39.0989C104.27 36.3767 102.167 34.4037 99.5841 34.4037ZM99.5841 41.9439C98.1678 41.9439 96.9464 40.7698 96.9464 39.0989C96.9464 37.406 98.1678 36.2525 99.5841 36.2525C100.999 36.2525 102.216 37.406 102.216 39.0989C102.216 40.7698 100.999 41.9439 99.5841 41.9439ZM87.4191 35.8427V37.8378H92.158C92.0194 38.9527 91.6488 39.7722 91.0807 40.3434C90.389 41.0333 89.3116 41.799 87.4191 41.799C84.5027 41.799 82.219 39.4328 82.219 36.5009C82.219 33.5689 84.5027 31.2027 87.4191 31.2027C88.996 31.2027 90.1433 31.8222 90.9901 32.6252L92.3886 31.2193C91.2042 30.0824 89.6287 29.209 87.4191 29.209C83.4199 29.209 80.0588 32.4803 80.0588 36.5009C80.0588 40.5214 83.4199 43.7927 87.4191 43.7927C89.5806 43.7927 91.2042 43.0808 92.4805 41.7452C93.7884 40.4303 94.196 38.5815 94.196 37.0886C94.196 36.625 94.1576 36.1987 94.089 35.8427H87.4191ZM137.163 37.3894C136.778 36.3394 135.588 34.4037 133.164 34.4037C130.763 34.4037 128.763 36.3063 128.763 39.0989C128.763 41.7287 130.742 43.7927 133.395 43.7927C135.54 43.7927 136.778 42.4779 137.287 41.7121L135.695 40.6456C135.164 41.4265 134.441 41.9439 133.395 41.9439C132.356 41.9439 131.611 41.4651 131.133 40.5214L137.379 37.9234L137.163 37.3894ZM130.796 38.9526C130.742 37.1424 132.194 36.2153 133.234 36.2153C134.049 36.2153 134.741 36.625 134.972 37.2114L130.796 38.9526ZM125.719 43.5071H127.772V29.7098H125.719V43.5071ZM122.357 35.4495H122.288C121.827 34.9004 120.947 34.4037 119.833 34.4037C117.494 34.4037 115.356 36.4678 115.356 39.1141C115.356 41.7452 117.494 43.7927 119.833 43.7927C120.947 43.7927 121.827 43.2919 122.288 42.7262H122.357V43.3995C122.357 45.1945 121.403 46.159 119.864 46.159C118.61 46.159 117.832 45.2484 117.511 44.4826L115.725 45.2318C116.24 46.4763 117.603 48.0078 119.864 48.0078C122.271 48.0078 124.303 46.5839 124.303 43.1194V34.6893H122.357V35.4495ZM120.008 41.9439C118.593 41.9439 117.409 40.7532 117.409 39.1141C117.409 37.4598 118.593 36.2525 120.008 36.2525C121.403 36.2525 122.502 37.4598 122.502 39.1141C122.502 40.7532 121.403 41.9439 120.008 41.9439ZM146.776 29.7098H141.865V43.5071H143.913V38.2793H146.776C149.05 38.2793 151.28 36.625 151.28 33.9939C151.28 31.3641 149.044 29.7098 146.776 29.7098ZM146.829 36.3601H143.913V31.629H146.829C148.358 31.629 149.231 32.9053 149.231 33.9939C149.231 35.0618 148.358 36.3601 146.829 36.3601ZM159.487 34.3775C158.008 34.3775 156.469 35.0342 155.837 36.4898L157.654 37.2556C158.045 36.4898 158.764 36.2415 159.524 36.2415C160.586 36.2415 161.664 36.8831 161.68 38.0158V38.1607C161.31 37.9454 160.516 37.6267 159.541 37.6267C157.584 37.6267 155.589 38.7098 155.589 40.7311C155.589 42.58 157.192 43.7707 158.994 43.7707C160.372 43.7707 161.133 43.1456 161.61 42.4185H161.68V43.4851H163.658V38.1924C163.658 35.7462 161.841 34.3775 159.487 34.3775ZM159.24 41.9384C158.57 41.9384 157.637 41.6045 157.637 40.7698C157.637 39.7018 158.801 39.2921 159.808 39.2921C160.71 39.2921 161.133 39.4921 161.68 39.7557C161.52 41.0333 160.426 41.9384 159.24 41.9384ZM170.863 34.6796L168.509 40.6608H168.439L166.006 34.6796H163.798L167.454 43.038L165.368 47.6891H167.508L173.141 34.6796H170.863ZM152.405 43.5071H154.459V29.7098H152.405V43.5071Z" fill="#132D46"/>
<path d="M46.4594 18.7195C46.1368 19.0589 45.9502 19.5873 45.9502 20.2717V44.6819C45.9502 45.3662 46.1368 45.8947 46.4594 46.2341L46.539 46.3086L60.145 32.6355V32.3126L46.539 18.6395L46.4594 18.7195Z" fill="url(#paint0_linear_7808_57809)"/>
<path d="M64.6722 37.1934L60.1418 32.6333V32.3105L64.6777 27.7505L64.7792 27.8098L70.1508 30.8825C71.6838 31.7545 71.6838 33.1894 70.1508 34.0669L64.7792 37.134L64.6722 37.1934Z" fill="url(#paint1_linear_7808_57809)"/>
<path d="M64.7795 37.1365L60.1421 32.4744L46.4564 46.2344C46.9656 46.7725 47.7959 46.8374 48.7401 46.2993L64.7795 37.1365Z" fill="url(#paint2_linear_7808_57809)"/>
<path d="M64.7792 27.8066L48.7399 18.6439C47.7957 18.1113 46.9653 18.1761 46.4562 18.7142L60.1419 32.4688L64.7792 27.8066Z" fill="url(#paint3_linear_7808_57809)"/>
<defs>
<linearGradient id="paint0_linear_7808_57809" x1="58.937" y1="44.9361" x2="40.4131" y2="26.5105" gradientUnits="userSpaceOnUse">
<stop stop-color="#00A0FF"/>
<stop offset="0.0066" stop-color="#00A1FF"/>
<stop offset="0.2601" stop-color="#00BEFF"/>
<stop offset="0.5122" stop-color="#00D2FF"/>
<stop offset="0.7604" stop-color="#00DFFF"/>
<stop offset="1" stop-color="#00E3FF"/>
</linearGradient>
<linearGradient id="paint1_linear_7808_57809" x1="72.147" y1="32.4704" x2="45.5806" y2="32.4704" gradientUnits="userSpaceOnUse">
<stop stop-color="#FFE000"/>
<stop offset="0.4087" stop-color="#FFBD00"/>
<stop offset="0.7754" stop-color="#FFA500"/>
<stop offset="1" stop-color="#FF9C00"/>
</linearGradient>
<linearGradient id="paint2_linear_7808_57809" x1="62.2578" y1="29.94" x2="37.1379" y2="4.95331" gradientUnits="userSpaceOnUse">
<stop stop-color="#FF3A44"/>
<stop offset="1" stop-color="#C31162"/>
</linearGradient>
<linearGradient id="paint3_linear_7808_57809" x1="43.0112" y1="54.35" x2="54.2284" y2="43.1924" gradientUnits="userSpaceOnUse">
<stop stop-color="#32A071"/>
<stop offset="0.0685" stop-color="#2DA771"/>
<stop offset="0.4762" stop-color="#15CF74"/>
<stop offset="0.8009" stop-color="#06E775"/>
<stop offset="1" stop-color="#00F076"/>
</linearGradient>
</defs>
</svg>
