<svg width="260" height="78" viewBox="0 0 260 78" fill="none" xmlns="http://www.w3.org/2000/svg">
<path d="M250.301 2.02683C254.743 2.02683 258.357 5.6603 258.357 10.1256V67.991C258.357 72.4563 254.743 76.0898 250.301 76.0898H10.4739C6.03235 76.0898 2.41815 72.4563 2.41815 67.991V10.1256C2.41815 5.6603 6.03235 2.02683 10.4739 2.02683H250.301ZM250.301 0.481347H10.4739C5.20015 0.481347 0.880859 4.82367 0.880859 10.1256V67.991C0.880859 73.2929 5.20015 77.6353 10.4739 77.6353H250.301C255.575 77.6353 259.894 73.2929 259.894 67.991V10.1256C259.894 4.82367 255.575 0.481347 250.301 0.481347Z" fill="#A6A6A6"/>
<path d="M91.8576 20.2398C91.8576 21.8503 91.378 23.1403 90.433 24.1023C89.3466 25.2427 87.9316 25.8165 86.1977 25.8165C84.5405 25.8165 83.1255 25.2331 81.9647 24.083C80.8016 22.916 80.2212 21.4839 80.2212 19.7696C80.2212 18.0553 80.8016 16.6232 81.9647 15.4659C83.1255 14.3061 84.5405 13.7227 86.1977 13.7227C87.0227 13.7227 87.8093 13.8938 88.56 14.2121C89.3082 14.5328 89.9174 14.9668 90.3587 15.502L89.3562 16.5195C88.5864 15.6057 87.5383 15.1548 86.1977 15.1548C84.989 15.1548 83.9409 15.5792 83.0512 16.4351C82.171 17.2934 81.7297 18.4049 81.7297 19.7696C81.7297 21.1343 82.171 22.2554 83.0512 23.1137C83.9409 23.96 84.989 24.394 86.1977 24.394C87.4808 24.394 88.56 23.96 89.4114 23.1041C89.9726 22.5375 90.2915 21.7563 90.3755 20.7581H86.1977V19.3645H91.7713C91.8384 19.6659 91.8576 19.9577 91.8576 20.2398V20.2398Z" fill="white" stroke="white" stroke-width="0.160945" stroke-miterlimit="10"/>
<path d="M100.7 15.414H95.4646V19.0788H100.184V20.4724H95.4646V24.1372H100.7V25.5573H93.9824V13.9939H100.7V15.414Z" fill="white" stroke="white" stroke-width="0.160945" stroke-miterlimit="10"/>
<path d="M106.94 25.5573H105.458V15.414H102.247V13.9939H110.154V15.414H106.94V25.5573V25.5573Z" fill="white" stroke="white" stroke-width="0.160945" stroke-miterlimit="10"/>
<path d="M115.876 25.5573V13.9939H117.356V25.5573H115.876Z" fill="white" stroke="white" stroke-width="0.160945" stroke-miterlimit="10"/>
<path d="M123.91 25.5573H122.44V15.414H119.217V13.9939H127.133V15.414H123.91V25.5573Z" fill="white" stroke="white" stroke-width="0.160945" stroke-miterlimit="10"/>
<path d="M142.109 24.0637C140.975 25.2331 139.569 25.8165 137.893 25.8165C136.207 25.8165 134.802 25.2331 133.667 24.0637C132.535 22.8967 131.972 21.4646 131.972 19.7696C131.972 18.0746 132.535 16.6425 133.667 15.4755C134.802 14.3061 136.207 13.7227 137.893 13.7227C139.56 13.7227 140.965 14.3061 142.1 15.4851C143.241 16.6617 143.805 18.0843 143.805 19.7696C143.805 21.4646 143.241 22.8967 142.109 24.0637ZM134.763 23.0945C135.617 23.96 136.656 24.394 137.893 24.394C139.121 24.394 140.169 23.96 141.013 23.0945C141.865 22.2289 142.296 21.1174 142.296 19.7696C142.296 18.4218 141.865 17.3103 141.013 16.4447C140.169 15.5792 139.121 15.1452 137.893 15.1452C136.656 15.1452 135.617 15.5792 134.763 16.4447C133.912 17.3103 133.48 18.4218 133.48 19.7696C133.48 21.1174 133.912 22.2289 134.763 23.0945V23.0945Z" fill="white" stroke="white" stroke-width="0.160945" stroke-miterlimit="10"/>
<path d="M145.888 25.5573V13.9939H147.687L153.28 22.9872H153.344L153.28 20.7642V13.9939H154.759V25.5573H153.215L147.358 16.1205H147.294L147.358 18.3531V25.5573H145.888V25.5573Z" fill="white" stroke="white" stroke-width="0.160945" stroke-miterlimit="10"/>
<path d="M131.606 42.4345C127.099 42.4345 123.418 45.8823 123.418 50.6393C123.418 55.3578 127.099 58.8417 131.606 58.8417C136.121 58.8417 139.803 55.3578 139.803 50.6393C139.803 45.8823 136.121 42.4345 131.606 42.4345ZM131.606 55.6109C129.133 55.6109 127.006 53.5591 127.006 50.6393C127.006 47.6809 129.133 45.6653 131.606 45.6653C134.078 45.6653 136.215 47.6809 136.215 50.6393C136.215 53.5591 134.078 55.6109 131.606 55.6109V55.6109ZM113.741 42.4345C109.225 42.4345 105.553 45.8823 105.553 50.6393C105.553 55.3578 109.225 58.8417 113.741 58.8417C118.254 58.8417 121.928 55.3578 121.928 50.6393C121.928 45.8823 118.254 42.4345 113.741 42.4345ZM113.741 55.6109C111.266 55.6109 109.131 53.5591 109.131 50.6393C109.131 47.6809 111.266 45.6653 113.741 45.6653C116.213 45.6653 118.341 47.6809 118.341 50.6393C118.341 53.5591 116.213 55.6109 113.741 55.6109ZM92.4825 44.9492V48.4356H100.764C100.522 50.3837 99.874 51.8159 98.8811 52.8141C97.6724 54.0196 95.7897 55.3578 92.4825 55.3578C87.3862 55.3578 83.3955 51.2228 83.3955 46.0993C83.3955 40.9758 87.3862 36.8408 92.4825 36.8408C95.2381 36.8408 97.2431 37.9234 98.7228 39.3266L101.167 36.8698C99.097 34.883 96.3437 33.3568 92.4825 33.3568C85.494 33.3568 79.6206 39.0735 79.6206 46.0993C79.6206 53.1251 85.494 58.8417 92.4825 58.8417C96.2598 58.8417 99.097 57.5976 101.327 55.2637C103.613 52.966 104.325 49.7352 104.325 47.1264C104.325 46.3163 104.258 45.5713 104.138 44.9492H92.4825ZM179.41 47.652C178.736 45.8172 176.657 42.4345 172.422 42.4345C168.225 42.4345 164.73 45.7593 164.73 50.6393C164.73 55.2348 168.189 58.8417 172.825 58.8417C176.573 58.8417 178.736 56.544 179.626 55.2059L176.844 53.3421C175.916 54.7068 174.652 55.6109 172.825 55.6109C171.009 55.6109 169.707 54.7743 168.872 53.1251L179.787 48.5851L179.41 47.652V47.652ZM168.282 50.3837C168.189 47.2204 170.726 45.6002 172.544 45.6002C173.969 45.6002 175.177 46.3163 175.58 47.341L168.282 50.3837V50.3837ZM159.411 58.3426H162.999V34.2321H159.411V58.3426ZM153.535 44.2621H153.415C152.61 43.3025 151.072 42.4345 149.125 42.4345C145.038 42.4345 141.302 46.0414 141.302 50.6658C141.302 55.2637 145.038 58.8417 149.125 58.8417C151.072 58.8417 152.61 57.9665 153.415 56.978H153.535V58.1546C153.535 61.2914 151.868 62.9767 149.18 62.9767C146.988 62.9767 145.628 61.3854 145.067 60.0473L141.947 61.3565C142.846 63.5312 145.228 66.2075 149.18 66.2075C153.387 66.2075 156.936 63.7193 156.936 57.6651V42.9336H153.535V44.2621V44.2621ZM149.432 55.6109C146.959 55.6109 144.89 53.5302 144.89 50.6658C144.89 47.775 146.959 45.6653 149.432 45.6653C151.869 45.6653 153.79 47.775 153.79 50.6658C153.79 53.5302 151.869 55.6109 149.432 55.6109V55.6109ZM196.208 34.2321H187.627V58.3426H191.205V49.2071H196.208C200.182 49.2071 204.079 46.3163 204.079 41.7184C204.079 37.1229 200.172 34.2321 196.208 34.2321V34.2321ZM196.301 45.8534H191.205V37.5858H196.301C198.973 37.5858 200.498 39.8161 200.498 41.7184C200.498 43.5846 198.973 45.8534 196.301 45.8534ZM218.421 42.3887C215.835 42.3887 213.147 43.5363 212.041 46.08L215.216 47.4181C215.9 46.08 217.157 45.646 218.485 45.646C220.342 45.646 222.224 46.7672 222.253 48.7466V48.9998C221.605 48.6237 220.219 48.0667 218.514 48.0667C215.094 48.0667 211.609 49.9594 211.609 53.4916C211.609 56.7224 214.411 58.8032 217.56 58.8032C219.967 58.8032 221.296 57.711 222.131 56.4403H222.253V58.3041H225.709V49.0553C225.709 44.7804 222.534 42.3887 218.421 42.3887ZM217.989 55.6013C216.818 55.6013 215.188 55.0178 215.188 53.5591C215.188 51.6929 217.221 50.9769 218.982 50.9769C220.557 50.9769 221.296 51.3265 222.253 51.787C221.972 54.0196 220.061 55.6013 217.989 55.6013V55.6013ZM238.3 42.9167L234.187 53.3686H234.064L229.812 42.9167H225.953L232.342 57.5229L228.697 65.6506H232.436L242.281 42.9167H238.3V42.9167ZM206.045 58.3426H209.633V34.2321H206.045V58.3426Z" fill="white"/>
<path d="M20.9059 15.0245C20.3423 15.6176 20.0161 16.541 20.0161 17.7369V60.3934C20.0161 61.5893 20.3423 62.5128 20.9059 63.1059L21.045 63.2361L44.8214 39.3425V38.7783L21.045 14.8847L20.9059 15.0245Z" fill="url(#paint0_linear_5890_39482)"/>
<path d="M52.7331 47.3057L44.8164 39.3371V38.7729L52.7427 30.8044L52.9202 30.908L62.307 36.2775C64.9859 37.8013 64.9859 40.3088 62.307 41.8422L52.9202 47.202L52.7331 47.3057V47.3057Z" fill="url(#paint1_linear_5890_39482)"/>
<path d="M52.9197 47.211L44.816 39.0641L20.9004 63.1096C21.7901 64.0499 23.2411 64.1632 24.8911 63.2229L52.9197 47.211" fill="url(#paint2_linear_5890_39482)"/>
<path d="M52.9202 30.9072L24.8916 14.8954C23.2416 13.9647 21.7906 14.078 20.9009 15.0183L44.8164 39.0542L52.9202 30.9072Z" fill="url(#paint3_linear_5890_39482)"/>
<defs>
<linearGradient id="paint0_linear_5890_39482" x1="42.7104" y1="60.8377" x2="10.3401" y2="28.6391" gradientUnits="userSpaceOnUse">
<stop stop-color="#00A0FF"/>
<stop offset="0.0066" stop-color="#00A1FF"/>
<stop offset="0.2601" stop-color="#00BEFF"/>
<stop offset="0.5122" stop-color="#00D2FF"/>
<stop offset="0.7604" stop-color="#00DFFF"/>
<stop offset="1" stop-color="#00E3FF"/>
</linearGradient>
<linearGradient id="paint1_linear_5890_39482" x1="65.7953" y1="39.0523" x2="19.3708" y2="39.0523" gradientUnits="userSpaceOnUse">
<stop stop-color="#FFE000"/>
<stop offset="0.4087" stop-color="#FFBD00"/>
<stop offset="0.7754" stop-color="#FFA500"/>
<stop offset="1" stop-color="#FF9C00"/>
</linearGradient>
<linearGradient id="paint2_linear_5890_39482" x1="48.5131" y1="34.6352" x2="4.61643" y2="-9.02862" gradientUnits="userSpaceOnUse">
<stop stop-color="#FF3A44"/>
<stop offset="1" stop-color="#C31162"/>
</linearGradient>
<linearGradient id="paint3_linear_5890_39482" x1="14.8808" y1="77.2913" x2="34.4827" y2="57.7936" gradientUnits="userSpaceOnUse">
<stop stop-color="#32A071"/>
<stop offset="0.0685" stop-color="#2DA771"/>
<stop offset="0.4762" stop-color="#15CF74"/>
<stop offset="0.8009" stop-color="#06E775"/>
<stop offset="1" stop-color="#00F076"/>
</linearGradient>
</defs>
</svg>
