<svg width="218" height="64" viewBox="0 0 218 64" fill="none" xmlns="http://www.w3.org/2000/svg">
<rect width="218" height="64" rx="32" fill="black"/>
<path d="M87.0613 21.3056C87.0613 22.2272 86.7868 22.9654 86.2461 23.5159C85.6244 24.1685 84.8146 24.4969 83.8224 24.4969C82.8741 24.4969 82.0643 24.163 81.4001 23.5049C80.7345 22.8371 80.4023 22.0175 80.4023 21.0365C80.4023 20.0555 80.7345 19.236 81.4001 18.5737C82.0643 17.9101 82.8741 17.5762 83.8224 17.5762C84.2945 17.5762 84.7447 17.6741 85.1742 17.8563C85.6024 18.0398 85.951 18.2881 86.2035 18.5944L85.6299 19.1767C85.1893 18.6537 84.5896 18.3957 83.8224 18.3957C83.1307 18.3957 82.531 18.6386 82.0218 19.1284C81.5181 19.6196 81.2656 20.2556 81.2656 21.0365C81.2656 21.8175 81.5181 22.459 82.0218 22.9502C82.531 23.4345 83.1307 23.6829 83.8224 23.6829C84.5566 23.6829 85.1742 23.4345 85.6614 22.9447C85.9826 22.6205 86.1651 22.1734 86.2131 21.6022H83.8224V20.8047H87.0119C87.0503 20.9772 87.0613 21.1442 87.0613 21.3056Z" fill="white" stroke="white" stroke-width="0.108962" stroke-miterlimit="10"/>
<path d="M92.1217 18.5451H89.1257V20.6423H91.8266V21.4398H89.1257V23.5369H92.1217V24.3496H88.2776V17.7324H92.1217V18.5451Z" fill="white" stroke="white" stroke-width="0.108962" stroke-miterlimit="10"/>
<path d="M95.6926 24.3496H94.8445V18.5451H93.0068V17.7324H97.5317V18.5451H95.6926V24.3496Z" fill="white" stroke="white" stroke-width="0.108962" stroke-miterlimit="10"/>
<path d="M100.806 24.3496V17.7324H101.653V24.3496H100.806Z" fill="white" stroke="white" stroke-width="0.108962" stroke-miterlimit="10"/>
<path d="M105.404 24.3496H104.562V18.5451H102.718V17.7324H107.248V18.5451H105.404V24.3496Z" fill="white" stroke="white" stroke-width="0.108962" stroke-miterlimit="10"/>
<path d="M115.818 23.4938C115.169 24.163 114.365 24.4969 113.405 24.4969C112.441 24.4969 111.636 24.163 110.987 23.4938C110.339 22.826 110.017 22.0065 110.017 21.0365C110.017 20.0666 110.339 19.247 110.987 18.5792C111.636 17.9101 112.441 17.5762 113.405 17.5762C114.359 17.5762 115.163 17.9101 115.813 18.5848C116.466 19.2581 116.788 20.0721 116.788 21.0365C116.788 22.0065 116.466 22.826 115.818 23.4938ZM111.614 22.9392C112.103 23.4345 112.697 23.6829 113.405 23.6829C114.108 23.6829 114.708 23.4345 115.191 22.9392C115.678 22.4439 115.925 21.8078 115.925 21.0365C115.925 20.2653 115.678 19.6292 115.191 19.1339C114.708 18.6386 114.108 18.3902 113.405 18.3902C112.697 18.3902 112.103 18.6386 111.614 19.1339C111.127 19.6292 110.88 20.2653 110.88 21.0365C110.88 21.8078 111.127 22.4439 111.614 22.9392Z" fill="white" stroke="white" stroke-width="0.108962" stroke-miterlimit="10"/>
<path d="M117.981 24.3496V17.7324H119.01L122.21 22.8788H122.248L122.21 21.6067V17.7324H123.057V24.3496H122.173L118.822 18.9493H118.785L118.822 20.227V24.3496H117.981Z" fill="white" stroke="white" stroke-width="0.108962" stroke-miterlimit="10"/>
<path d="M109.807 34.0072C107.228 34.0072 105.122 35.9802 105.122 38.7024C105.122 41.4025 107.228 43.3963 109.807 43.3963C112.391 43.3963 114.498 41.4025 114.498 38.7024C114.498 35.9802 112.391 34.0072 109.807 34.0072ZM109.807 41.5474C108.392 41.5474 107.175 40.3733 107.175 38.7024C107.175 37.0095 108.392 35.856 109.807 35.856C111.222 35.856 112.445 37.0095 112.445 38.7024C112.445 40.3733 111.222 41.5474 109.807 41.5474ZM99.5841 34.0072C96.9999 34.0072 94.8987 35.9802 94.8987 38.7024C94.8987 41.4025 96.9999 43.3963 99.5841 43.3963C102.167 43.3963 104.27 41.4025 104.27 38.7024C104.27 35.9802 102.167 34.0072 99.5841 34.0072ZM99.5841 41.5474C98.1678 41.5474 96.9464 40.3733 96.9464 38.7024C96.9464 37.0095 98.1678 35.856 99.5841 35.856C100.999 35.856 102.216 37.0095 102.216 38.7024C102.216 40.3733 100.999 41.5474 99.5841 41.5474ZM87.4191 35.4463V37.4413H92.158C92.0194 38.5562 91.6488 39.3757 91.0807 39.9469C90.389 40.6368 89.3116 41.4025 87.4191 41.4025C84.5027 41.4025 82.219 39.0363 82.219 36.1044C82.219 33.1725 84.5027 30.8062 87.4191 30.8062C88.996 30.8062 90.1433 31.4257 90.9901 32.2287L92.3886 30.8228C91.2042 29.6859 89.6287 28.8125 87.4191 28.8125C83.4199 28.8125 80.0588 32.0839 80.0588 36.1044C80.0588 40.1249 83.4199 43.3963 87.4191 43.3963C89.5806 43.3963 91.2042 42.6843 92.4805 41.3487C93.7884 40.0339 94.196 38.185 94.196 36.6922C94.196 36.2286 94.1576 35.8022 94.089 35.4463H87.4191ZM137.163 36.9929C136.778 35.943 135.588 34.0072 133.164 34.0072C130.763 34.0072 128.763 35.9098 128.763 38.7024C128.763 41.3322 130.742 43.3963 133.395 43.3963C135.54 43.3963 136.778 42.0814 137.287 41.3156L135.695 40.2491C135.164 41.03 134.441 41.5474 133.395 41.5474C132.356 41.5474 131.611 41.0687 131.133 40.1249L137.379 37.5269L137.163 36.9929ZM130.796 38.5562C130.742 36.746 132.194 35.8188 133.234 35.8188C134.049 35.8188 134.741 36.2286 134.972 36.8149L130.796 38.5562ZM125.719 43.1107H127.772V29.3134H125.719V43.1107ZM122.357 35.053H122.288C121.827 34.5039 120.947 34.0072 119.833 34.0072C117.494 34.0072 115.356 36.0713 115.356 38.7176C115.356 41.3487 117.494 43.3963 119.833 43.3963C120.947 43.3963 121.827 42.8954 122.288 42.3297H122.357V43.003C122.357 44.7981 121.403 45.7625 119.864 45.7625C118.61 45.7625 117.832 44.8519 117.511 44.0861L115.725 44.8353C116.24 46.0798 117.603 47.6113 119.864 47.6113C122.271 47.6113 124.303 46.1874 124.303 42.7229V34.2928H122.357V35.053ZM120.008 41.5474C118.593 41.5474 117.409 40.3567 117.409 38.7176C117.409 37.0633 118.593 35.856 120.008 35.856C121.403 35.856 122.502 37.0633 122.502 38.7176C122.502 40.3567 121.403 41.5474 120.008 41.5474ZM146.776 29.3134H141.865V43.1107H143.913V37.8829H146.776C149.05 37.8829 151.28 36.2286 151.28 33.5974C151.28 30.9677 149.044 29.3134 146.776 29.3134ZM146.829 35.9637H143.913V31.2326H146.829C148.358 31.2326 149.231 32.5088 149.231 33.5974C149.231 34.6653 148.358 35.9637 146.829 35.9637ZM159.487 33.981C158.008 33.981 156.469 34.6377 155.837 36.0933L157.654 36.8591C158.045 36.0933 158.764 35.845 159.524 35.845C160.586 35.845 161.664 36.4866 161.68 37.6193V37.7642C161.31 37.549 160.516 37.2302 159.541 37.2302C157.584 37.2302 155.589 38.3133 155.589 40.3346C155.589 42.1835 157.192 43.3742 158.994 43.3742C160.372 43.3742 161.133 42.7492 161.61 42.022H161.68V43.0886H163.658V37.7959C163.658 35.3497 161.841 33.981 159.487 33.981ZM159.24 41.5419C158.57 41.5419 157.637 41.208 157.637 40.3733C157.637 39.3054 158.801 38.8956 159.808 38.8956C160.71 38.8956 161.133 39.0956 161.68 39.3592C161.52 40.6368 160.426 41.5419 159.24 41.5419ZM170.863 34.2831L168.509 40.2643H168.439L166.006 34.2831H163.798L167.454 42.6415L165.368 47.2926H167.508L173.141 34.2831H170.863ZM152.405 43.1107H154.459V29.3134H152.405V43.1107Z" fill="white"/>
<path d="M46.4594 18.323C46.1368 18.6624 45.9502 19.1909 45.9502 19.8752V44.2854C45.9502 44.9698 46.1368 45.4982 46.4594 45.8376L46.539 45.9121L60.145 32.239V31.9161L46.539 18.243L46.4594 18.323Z" fill="url(#paint0_linear_7730_56857)"/>
<path d="M64.6722 36.7969L60.1418 32.2369V31.914L64.6777 27.354L64.7792 27.4133L70.1508 30.486C71.6838 31.358 71.6838 32.7929 70.1508 33.6704L64.7792 36.7375L64.6722 36.7969Z" fill="url(#paint1_linear_7730_56857)"/>
<path d="M64.7795 36.74L60.1421 32.0779L46.4564 45.8379C46.9656 46.376 47.7959 46.4409 48.7401 45.9028L64.7795 36.74Z" fill="url(#paint2_linear_7730_56857)"/>
<path d="M64.7792 27.4102L48.7399 18.2474C47.7957 17.7148 46.9653 17.7796 46.4562 18.3177L60.1419 32.0723L64.7792 27.4102Z" fill="url(#paint3_linear_7730_56857)"/>
<defs>
<linearGradient id="paint0_linear_7730_56857" x1="58.937" y1="44.5396" x2="40.4131" y2="26.114" gradientUnits="userSpaceOnUse">
<stop stop-color="#00A0FF"/>
<stop offset="0.0066" stop-color="#00A1FF"/>
<stop offset="0.2601" stop-color="#00BEFF"/>
<stop offset="0.5122" stop-color="#00D2FF"/>
<stop offset="0.7604" stop-color="#00DFFF"/>
<stop offset="1" stop-color="#00E3FF"/>
</linearGradient>
<linearGradient id="paint1_linear_7730_56857" x1="72.147" y1="32.0739" x2="45.5806" y2="32.0739" gradientUnits="userSpaceOnUse">
<stop stop-color="#FFE000"/>
<stop offset="0.4087" stop-color="#FFBD00"/>
<stop offset="0.7754" stop-color="#FFA500"/>
<stop offset="1" stop-color="#FF9C00"/>
</linearGradient>
<linearGradient id="paint2_linear_7730_56857" x1="62.2578" y1="29.5435" x2="37.1379" y2="4.55682" gradientUnits="userSpaceOnUse">
<stop stop-color="#FF3A44"/>
<stop offset="1" stop-color="#C31162"/>
</linearGradient>
<linearGradient id="paint3_linear_7730_56857" x1="43.0112" y1="53.9535" x2="54.2284" y2="42.7959" gradientUnits="userSpaceOnUse">
<stop stop-color="#32A071"/>
<stop offset="0.0685" stop-color="#2DA771"/>
<stop offset="0.4762" stop-color="#15CF74"/>
<stop offset="0.8009" stop-color="#06E775"/>
<stop offset="1" stop-color="#00F076"/>
</linearGradient>
</defs>
</svg>
