<svg width="260" height="78" viewBox="0 0 260 78" fill="none" xmlns="http://www.w3.org/2000/svg">
<path d="M249.87 2.38933C254.317 2.38933 257.936 6.0228 257.936 10.4881V68.3536C257.936 72.8188 254.317 76.4523 249.87 76.4523H9.71225C5.26453 76.4523 1.64536 72.8188 1.64536 68.3536V10.4881C1.64536 6.0228 5.26453 2.38933 9.71225 2.38933H249.87ZM249.87 0.843839H9.71225C4.43119 0.843839 0.105957 5.18616 0.105957 10.4881V68.3536C0.105957 73.6555 4.43119 77.9978 9.71225 77.9978H249.87C255.151 77.9978 259.476 73.6555 259.476 68.3536V10.4881C259.476 5.18616 255.151 0.843839 249.87 0.843839Z" fill="#A6A6A6"/>
<path d="M57.9844 38.998C57.9286 32.7814 63.0546 29.7569 63.289 29.6161C60.3859 25.3669 55.8863 24.7863 54.3051 24.74C50.526 24.3407 46.8603 27.0102 44.9352 27.0102C42.9716 27.0102 40.0071 24.7786 36.8121 24.8441C32.7006 24.9078 28.8542 27.2976 26.7447 31.0087C22.3911 38.5756 25.6381 49.6954 29.8091 55.8118C31.8956 58.8073 34.3337 62.1519 37.5249 62.0343C40.6469 61.9051 41.8131 60.036 45.5807 60.036C49.3137 60.036 50.4088 62.0343 53.6634 61.9591C57.0141 61.9051 59.1237 58.9501 61.1371 55.9275C63.5483 52.4942 64.5166 49.1129 64.5551 48.9393C64.4763 48.9123 58.0478 46.4492 57.9844 38.998Z" fill="white"/>
<path d="M51.8363 20.7164C53.5155 18.6082 54.6644 15.74 54.3455 12.8293C51.9151 12.9374 48.8757 14.5171 47.1254 16.579C45.5769 18.396 44.1936 21.3741 44.5509 24.1748C47.281 24.3793 50.0841 22.7919 51.8363 20.7164Z" fill="white"/>
<path d="M103.173 61.6118H98.8101L96.42 54.0719H88.1125L85.8358 61.6118H81.5879L89.8186 35.9426H94.9022L103.173 61.6118ZM95.6995 50.9086L93.5381 44.2058C93.3095 43.5211 92.881 41.9086 92.249 39.3702H92.1721C91.9204 40.4619 91.515 42.0744 90.9579 44.2058L88.8349 50.9086H95.6995V50.9086Z" fill="white"/>
<path d="M124.34 52.1326C124.34 55.2805 123.493 57.7687 121.798 59.5953C120.281 61.2213 118.396 62.0334 116.146 62.0334C113.718 62.0334 111.973 61.1577 110.911 59.4063H110.834V69.1566H106.738V49.1988C106.738 47.2198 106.686 45.1887 106.586 43.1056H110.188L110.417 46.0393H110.494C111.86 43.8289 113.933 42.7256 116.715 42.7256C118.89 42.7256 120.705 43.5878 122.158 45.3141C123.614 47.0423 124.34 49.3145 124.34 52.1326ZM120.167 52.283C120.167 50.4815 119.764 48.9963 118.953 47.8274C118.067 46.6084 116.878 45.9988 115.387 45.9988C114.377 45.9988 113.458 46.3383 112.638 47.0076C111.816 47.6827 111.278 48.5642 111.026 49.6559C110.899 50.1652 110.836 50.5818 110.836 50.9097V53.9959C110.836 55.3422 111.247 56.4783 112.069 57.4061C112.892 58.3338 113.96 58.7968 115.274 58.7968C116.817 58.7968 118.017 58.1988 118.876 57.0068C119.737 55.8128 120.167 54.2389 120.167 52.283Z" fill="white"/>
<path d="M145.544 52.1326C145.544 55.2805 144.697 57.7687 143 59.5953C141.484 61.2213 139.6 62.0334 137.35 62.0334C134.921 62.0334 133.177 61.1577 132.116 59.4063H132.039V69.1566H127.943V49.1988C127.943 47.2198 127.891 45.1887 127.792 43.1056H131.394L131.623 46.0393H131.699C133.063 43.8289 135.136 42.7256 137.92 42.7256C140.093 42.7256 141.909 43.5878 143.365 45.3141C144.816 47.0423 145.544 49.3145 145.544 52.1326ZM141.371 52.283C141.371 50.4815 140.966 48.9963 140.155 47.8274C139.269 46.6084 138.084 45.9988 136.591 45.9988C135.578 45.9988 134.662 46.3383 133.84 47.0076C133.017 47.6827 132.481 48.5642 132.23 49.6559C132.105 50.1652 132.039 50.5818 132.039 50.9097V53.9959C132.039 55.3422 132.451 56.4783 133.269 57.4061C134.091 58.3319 135.16 58.7968 136.478 58.7968C138.02 58.7968 139.221 58.1988 140.08 57.0068C140.941 55.8128 141.371 54.2389 141.371 52.283Z" fill="white"/>
<path d="M169.252 54.4147C169.252 56.5981 168.497 58.3746 166.981 59.746C165.315 61.2447 162.996 61.9931 160.016 61.9931C157.265 61.9931 155.059 61.4607 153.39 60.3941L154.339 56.9665C156.137 58.0583 158.11 58.606 160.26 58.606C161.803 58.606 163.004 58.255 163.866 57.5568C164.725 56.8585 165.154 55.9211 165.154 54.7522C165.154 53.7106 164.8 52.833 164.091 52.1213C163.386 51.4095 162.208 50.7479 160.564 50.1365C156.087 48.4603 153.851 46.0049 153.851 42.776C153.851 40.6658 154.635 38.9356 156.204 37.5893C157.768 36.241 159.855 35.5679 162.464 35.5679C164.79 35.5679 166.723 35.9749 168.266 36.7869L167.242 40.1392C165.801 39.3523 164.172 38.9588 162.348 38.9588C160.908 38.9588 159.782 39.3156 158.975 40.0254C158.293 40.66 157.951 41.4335 157.951 42.3497C157.951 43.3643 158.341 44.2033 159.125 44.863C159.807 45.4725 161.046 46.1322 162.844 46.8439C165.044 47.7331 166.66 48.7728 167.699 49.9648C168.735 51.153 169.252 52.6401 169.252 54.4147Z" fill="white"/>
<path d="M182.795 46.1949H178.28V55.1814C178.28 57.4671 179.075 58.6089 180.67 58.6089C181.402 58.6089 182.009 58.5453 182.489 58.418L182.603 61.5408C181.796 61.8436 180.733 61.996 179.417 61.996C177.799 61.996 176.535 61.5003 175.623 60.5108C174.714 59.5194 174.257 57.8567 174.257 55.5209V46.191H171.567V43.1048H174.257V39.7159L178.28 38.4968V43.1048H182.795V46.1949Z" fill="white"/>
<path d="M203.168 52.2059C203.168 55.0509 202.357 57.3868 200.739 59.2134C199.043 61.094 196.791 62.0314 193.984 62.0314C191.279 62.0314 189.125 61.1307 187.519 59.3291C185.913 57.5276 185.11 55.2535 185.11 52.5126C185.11 49.6444 185.936 47.295 187.594 45.4684C189.248 43.6399 191.481 42.7256 194.288 42.7256C196.993 42.7256 199.17 43.6264 200.812 45.4298C202.384 47.1793 203.168 49.438 203.168 52.2059ZM198.918 52.339C198.918 50.6319 198.555 49.1679 197.819 47.947C196.96 46.4695 195.732 45.7327 194.142 45.7327C192.495 45.7327 191.244 46.4714 190.386 47.947C189.65 49.1699 189.287 50.657 189.287 52.4161C189.287 54.1232 189.65 55.5871 190.386 56.8062C191.271 58.2837 192.509 59.0205 194.105 59.0205C195.669 59.0205 196.897 58.2683 197.782 56.7676C198.538 55.5235 198.918 54.0441 198.918 52.339Z" fill="white"/>
<path d="M216.483 46.7222C216.078 46.6469 215.646 46.6084 215.192 46.6084C213.751 46.6084 212.637 47.1542 211.853 48.2479C211.171 49.2123 210.829 50.4313 210.829 51.9031V61.6148H206.735L206.773 48.9346C206.773 46.8012 206.721 44.8589 206.62 43.1075H210.187L210.337 46.6489H210.451C210.883 45.4318 211.565 44.4519 212.499 43.717C213.411 43.0554 214.397 42.7256 215.459 42.7256C215.838 42.7256 216.18 42.7526 216.483 42.8008V46.7222Z" fill="white"/>
<path d="M234.801 51.4848C234.801 52.2216 234.753 52.8427 234.652 53.35H222.363C222.411 55.1785 223.005 56.5769 224.146 57.5414C225.182 58.4036 226.521 58.8356 228.165 58.8356C229.985 58.8356 231.645 58.5444 233.138 57.9599L233.779 60.8146C232.035 61.5785 229.975 61.9584 227.599 61.9584C224.74 61.9584 222.496 61.1136 220.863 59.4259C219.234 57.7381 218.417 55.4717 218.417 52.6286C218.417 49.8375 219.176 47.5133 220.696 45.6597C222.286 43.6807 224.436 42.6912 227.141 42.6912C229.799 42.6912 231.81 43.6807 233.176 45.6597C234.258 47.2317 234.801 49.176 234.801 51.4848ZM230.896 50.4181C230.922 49.1991 230.655 48.1459 230.1 47.2567C229.391 46.1129 228.302 45.542 226.836 45.542C225.497 45.542 224.407 46.0994 223.576 47.2182C222.894 48.1074 222.488 49.174 222.363 50.4162H230.896V50.4181Z" fill="white"/>
<path d="M94.3449 20.141C94.3449 22.4112 93.6667 24.1202 92.3122 25.2679C91.0576 26.3268 89.2747 26.8572 86.9653 26.8572C85.8202 26.8572 84.8404 26.8071 84.02 26.7068V14.3024C85.0902 14.1288 86.2429 14.04 87.4879 14.04C89.6877 14.04 91.3458 14.5203 92.464 15.4809C93.7166 16.5668 94.3449 18.1196 94.3449 20.141ZM92.2219 20.1969C92.2219 18.7252 91.8338 17.5968 91.0576 16.8099C90.2814 16.0248 89.1479 15.6313 87.655 15.6313C87.021 15.6313 86.4812 15.6738 86.0335 15.7625V25.1926C86.2813 25.2312 86.7348 25.2486 87.3938 25.2486C88.9346 25.2486 90.1239 24.8185 90.9615 23.9582C91.7992 23.0979 92.2219 21.8442 92.2219 20.1969Z" fill="white"/>
<path d="M105.602 22.1208C105.602 23.5193 105.205 24.665 104.409 25.5638C103.575 26.4878 102.471 26.9487 101.091 26.9487C99.7618 26.9487 98.7031 26.507 97.9135 25.6198C97.1258 24.7344 96.7319 23.6176 96.7319 22.2713C96.7319 20.8632 97.1373 19.7079 97.9519 18.8109C98.7665 17.914 99.8617 17.4646 101.241 17.4646C102.571 17.4646 103.639 17.9063 104.448 18.7916C105.216 19.6519 105.602 20.7629 105.602 22.1208ZM103.514 22.1864C103.514 21.3474 103.333 20.6279 102.974 20.028C102.551 19.3028 101.95 18.9402 101.168 18.9402C100.359 18.9402 99.7445 19.3028 99.3218 20.028C98.9606 20.6279 98.7819 21.3589 98.7819 22.2231C98.7819 23.0621 98.9625 23.7816 99.3218 24.3814C99.7579 25.1067 100.365 25.4693 101.149 25.4693C101.917 25.4693 102.521 25.1009 102.955 24.3622C103.328 23.7507 103.514 23.0255 103.514 22.1864Z" fill="white"/>
<path d="M120.694 17.6482L117.86 26.7408H116.016L114.842 22.7924C114.544 21.8068 114.302 20.8269 114.114 19.8548H114.077C113.902 20.8539 113.66 21.8319 113.349 22.7924L112.102 26.7408H110.237L107.572 17.6482H109.641L110.665 21.9707C110.913 22.993 111.116 23.9671 111.28 24.8891H111.316C111.466 24.1291 111.714 23.1608 112.064 21.99L113.349 17.6501H114.99L116.221 21.8974C116.519 22.9332 116.761 23.9305 116.948 24.891H117.003C117.14 23.9555 117.345 22.9583 117.618 21.8974L118.717 17.6501H120.694V17.6482Z" fill="white"/>
<path d="M131.132 26.743H129.119V21.5351C129.119 19.9303 128.512 19.1279 127.294 19.1279C126.696 19.1279 126.214 19.3478 125.839 19.7895C125.469 20.2312 125.28 20.752 125.28 21.348V26.7411H123.267V20.2486C123.267 19.45 123.242 18.584 123.194 17.6466H124.963L125.057 19.0681H125.113C125.348 18.6264 125.697 18.2619 126.156 17.9706C126.702 17.6311 127.313 17.4595 127.982 17.4595C128.827 17.4595 129.53 17.7334 130.089 18.2831C130.785 18.9563 131.132 19.9612 131.132 21.296V26.743V26.743Z" fill="white"/>
<path d="M136.686 26.7452H134.674V13.4805H136.686V26.7452Z" fill="white"/>
<path d="M148.538 22.1208C148.538 23.5193 148.141 24.665 147.345 25.5638C146.511 26.4878 145.405 26.9487 144.027 26.9487C142.696 26.9487 141.637 26.507 140.85 25.6198C140.062 24.7344 139.668 23.6176 139.668 22.2713C139.668 20.8632 140.073 19.7079 140.888 18.8109C141.703 17.914 142.798 17.4646 144.175 17.4646C145.507 17.4646 146.573 17.9063 147.384 18.7916C148.152 19.6519 148.538 20.7629 148.538 22.1208ZM146.448 22.1864C146.448 21.3474 146.267 20.6279 145.908 20.028C145.487 19.3028 144.884 18.9402 144.104 18.9402C143.293 18.9402 142.679 19.3028 142.258 20.028C141.897 20.6279 141.718 21.3589 141.718 22.2231C141.718 23.0621 141.899 23.7816 142.258 24.3814C142.694 25.1067 143.301 25.4693 144.085 25.4693C144.853 25.4693 145.455 25.1009 145.889 24.3622C146.264 23.7507 146.448 23.0255 146.448 22.1864Z" fill="white"/>
<path d="M158.285 26.7424H156.477L156.327 25.695H156.271C155.653 26.5302 154.771 26.9487 153.626 26.9487C152.771 26.9487 152.079 26.6729 151.559 26.1251C151.086 25.6275 150.85 25.0083 150.85 24.2734C150.85 23.1624 151.311 22.3157 152.239 21.7293C153.165 21.1429 154.467 20.8555 156.145 20.869V20.6993C156.145 19.5015 155.518 18.9035 154.264 18.9035C153.37 18.9035 152.583 19.1292 151.902 19.5767L151.493 18.2496C152.335 17.7269 153.374 17.4646 154.6 17.4646C156.967 17.4646 158.154 18.7184 158.154 21.2259V24.5743C158.154 25.4828 158.198 26.2061 158.285 26.7424ZM156.195 23.6176V22.2154C153.974 22.1768 152.863 22.7882 152.863 24.0478C152.863 24.5223 152.99 24.8772 153.249 25.1144C153.509 25.3517 153.839 25.4693 154.233 25.4693C154.675 25.4693 155.088 25.3285 155.464 25.0488C155.843 24.7672 156.075 24.4104 156.162 23.9725C156.183 23.8742 156.195 23.7546 156.195 23.6176Z" fill="white"/>
<path d="M169.728 26.7452H167.941L167.847 25.285H167.791C167.22 26.396 166.248 26.9516 164.882 26.9516C163.791 26.9516 162.882 26.5214 162.162 25.6612C161.441 24.8009 161.082 23.6841 161.082 22.3127C161.082 20.841 161.472 19.6489 162.256 18.7385C163.015 17.8898 163.945 17.4655 165.051 17.4655C166.267 17.4655 167.119 17.8763 167.603 18.6999H167.641V13.4805H169.657V24.2955C169.657 25.1809 169.68 25.9968 169.728 26.7452ZM167.641 22.9106V21.3945C167.641 21.1322 167.622 20.92 167.585 20.758C167.472 20.2719 167.228 19.863 166.857 19.5332C166.483 19.2034 166.031 19.0375 165.511 19.0375C164.759 19.0375 164.171 19.3365 163.739 19.9363C163.311 20.5362 163.094 21.302 163.094 22.2374C163.094 23.1363 163.299 23.8654 163.712 24.4267C164.148 25.0246 164.736 25.3236 165.472 25.3236C166.133 25.3236 166.661 25.0748 167.063 24.5752C167.451 24.1142 167.641 23.5587 167.641 22.9106Z" fill="white"/>
<path d="M186.944 22.1208C186.944 23.5193 186.546 24.665 185.751 25.5638C184.917 26.4878 183.814 26.9487 182.433 26.9487C181.105 26.9487 180.046 26.507 179.255 25.6198C178.467 24.7344 178.073 23.6176 178.073 22.2713C178.073 20.8632 178.479 19.7079 179.293 18.8109C180.108 17.914 181.203 17.4646 182.584 17.4646C183.912 17.4646 184.982 17.9063 185.789 18.7916C186.558 19.6519 186.944 20.7629 186.944 22.1208ZM184.857 22.1864C184.857 21.3474 184.677 20.6279 184.317 20.028C183.893 19.3028 183.293 18.9402 182.509 18.9402C181.703 18.9402 181.088 19.3028 180.663 20.028C180.302 20.6279 180.123 21.3589 180.123 22.2231C180.123 23.0621 180.304 23.7816 180.663 24.3814C181.099 25.1067 181.706 25.4693 182.49 25.4693C183.259 25.4693 183.864 25.1009 184.298 24.3622C184.669 23.7507 184.857 23.0255 184.857 22.1864Z" fill="white"/>
<path d="M197.771 26.743H195.759V21.5351C195.759 19.9303 195.152 19.1279 193.932 19.1279C193.335 19.1279 192.852 19.3478 192.48 19.7895C192.107 20.2312 191.92 20.752 191.92 21.348V26.7411H189.905V20.2486C189.905 19.45 189.882 18.584 189.834 17.6466H191.602L191.696 19.0681H191.751C191.988 18.6264 192.337 18.2619 192.795 17.9706C193.342 17.6311 193.951 17.4595 194.622 17.4595C195.465 17.4595 196.168 17.7334 196.727 18.2831C197.425 18.9563 197.771 19.9612 197.771 21.296V26.743V26.743Z" fill="white"/>
<path d="M211.324 19.1675H209.107V23.5846C209.107 24.7072 209.501 25.2685 210.281 25.2685C210.642 25.2685 210.942 25.2376 211.178 25.174L211.23 26.7074C210.832 26.8579 210.31 26.9331 209.666 26.9331C208.871 26.9331 208.252 26.69 207.804 26.204C207.355 25.7179 207.132 24.9001 207.132 23.7524V19.1675H205.808V17.6534H207.132V15.9869L209.105 15.3889V17.6515H211.322V19.1675H211.324Z" fill="white"/>
<path d="M221.983 26.7452H219.968V21.5758C219.968 19.946 219.361 19.1301 218.145 19.1301C217.211 19.1301 216.573 19.6026 216.223 20.5478C216.164 20.7464 216.129 20.9895 216.129 21.2749V26.7432H214.118V13.4805H216.129V18.9603H216.168C216.802 17.9631 217.71 17.4655 218.888 17.4655C219.722 17.4655 220.412 17.7394 220.959 18.2891C221.641 18.9738 221.983 19.9923 221.983 21.3386V26.7452V26.7452Z" fill="white"/>
<path d="M232.977 21.7662C232.977 22.1288 232.95 22.4336 232.902 22.6824H226.863C226.89 23.5812 227.178 24.266 227.738 24.7405C228.249 25.1648 228.908 25.377 229.715 25.377C230.608 25.377 231.422 25.2343 232.156 24.9469L232.472 26.3511C231.613 26.7253 230.602 26.9124 229.432 26.9124C228.03 26.9124 226.925 26.4977 226.126 25.6683C225.323 24.8389 224.925 23.7259 224.925 22.3294C224.925 20.958 225.296 19.8161 226.043 18.9057C226.823 17.9336 227.878 17.4475 229.209 17.4475C230.512 17.4475 231.501 17.9336 232.17 18.9057C232.71 19.6773 232.977 20.632 232.977 21.7662ZM231.056 21.2435C231.071 20.6436 230.938 20.1267 230.666 19.6908C230.316 19.1295 229.784 18.8479 229.063 18.8479C228.406 18.8479 227.87 19.1218 227.461 19.6715C227.127 20.1093 226.929 20.632 226.863 21.2435H231.056Z" fill="white"/>
</svg>
