<svg width="74" height="63" viewBox="0 0 74 63" fill="none" xmlns="http://www.w3.org/2000/svg">
<path d="M58.9988 3.73246C59.2739 2.70773 60.7278 2.70773 61.003 3.73246L61.7875 6.65472C62.4108 8.97618 64.2225 10.7905 66.5431 11.4171L69.4598 12.2046C70.4827 12.4808 70.4827 13.9319 69.4598 14.2081L66.5431 14.9956C64.2225 15.6222 62.4108 17.4365 61.7875 19.758L61.003 22.6802C60.7278 23.705 59.2739 23.705 58.9988 22.6802L58.2142 19.758C57.5909 17.4365 55.7792 15.6222 53.4586 14.9956L50.5419 14.2081C49.5191 13.9319 49.5191 12.4808 50.5419 12.2046L53.4586 11.4171C55.7792 10.7905 57.5909 8.97618 58.2142 6.65472L58.9988 3.73246Z" fill="#FCBB51"/>
<path d="M33.0718 20.9672C31.3384 13.4705 20.0501 13.4488 18.3168 20.9672C17.2984 25.3655 20.0934 29.0922 22.5201 31.4105C24.2968 33.0788 27.0918 33.0788 28.8684 31.4105C31.2951 29.0922 34.0684 25.3655 33.0718 20.9672ZM25.7701 24.4338C24.5784 24.4338 23.6034 23.4588 23.6034 22.2672C23.6034 21.0755 24.5568 20.1005 25.7484 20.1005H25.7701C26.9834 20.1005 27.9368 21.0755 27.9368 22.2672C27.9368 23.4588 26.9834 24.4338 25.7701 24.4338Z" fill="#FB5E13"/>
<path d="M61.3047 46.9672C59.5713 39.4705 48.2397 39.4488 46.4847 46.9672C45.4663 51.3655 48.2613 55.0922 50.7097 57.4105C52.4863 59.0788 55.303 59.0788 57.0797 57.4105C59.528 55.0922 62.323 51.3655 61.3047 46.9672ZM53.9813 50.4338C52.7897 50.4338 51.8147 49.4588 51.8147 48.2672C51.8147 47.0755 52.768 46.1005 53.9597 46.1005H53.9813C55.173 46.1005 56.148 47.0755 56.148 48.2672C56.148 49.4588 55.173 50.4338 53.9813 50.4338Z" fill="#FB5E13"/>
<path d="M39.8318 53.7917H34.0252C31.5118 53.7917 29.3235 52.275 28.4568 49.935C27.5685 47.595 28.2185 45.0167 30.1035 43.3484L47.4152 28.2034C48.4552 27.2934 48.4768 26.0584 48.1735 25.2134C47.8485 24.3684 47.0252 23.4584 45.6385 23.4584H39.8318C38.9435 23.4584 38.2068 22.7217 38.2068 21.8334C38.2068 20.945 38.9435 20.2084 39.8318 20.2084H45.6385C48.1518 20.2084 50.3402 21.725 51.2068 24.065C52.0952 26.405 51.4452 28.9834 49.5602 30.6517L32.2485 45.7967C31.2085 46.7067 31.1868 47.9417 31.4902 48.7867C31.8152 49.6317 32.6385 50.5417 34.0252 50.5417H39.8318C40.7202 50.5417 41.4568 51.2784 41.4568 52.1667C41.4568 53.055 40.7202 53.7917 39.8318 53.7917Z" fill="#FB5E13"/>
<path d="M10.9728 35.7325C11.2479 34.7077 12.7019 34.7077 12.977 35.7325L13.3318 37.054C13.9551 39.3754 15.7668 41.1897 18.0873 41.8163L19.4079 42.1729C20.4307 42.4491 20.4307 43.9001 19.4079 44.1763L18.0873 44.5329C15.7668 45.1595 13.9551 46.9738 13.3318 49.2952L12.977 50.6168C12.7019 51.6415 11.2479 51.6415 10.9728 50.6168L10.618 49.2952C9.99471 46.9738 8.183 45.1595 5.86243 44.5329L4.54188 44.1763C3.51907 43.9001 3.51907 42.4491 4.54188 42.1729L5.86243 41.8163C8.183 41.1897 9.99471 39.3754 10.618 37.054L10.9728 35.7325Z" fill="#FCEBD0"/>
</svg>
