<svg width="127" height="112" viewBox="0 0 127 112" fill="none" xmlns="http://www.w3.org/2000/svg">
<path d="M51.7509 15.7813C52.9199 11.4395 59.0801 11.4395 60.2491 15.7813L63.598 28.2193C66.2483 38.0628 73.9372 45.7517 83.7807 48.402L96.2187 51.7509C100.561 52.9199 100.561 59.0801 96.2187 60.2491L83.7807 63.598C73.9372 66.2483 66.2483 73.9372 63.598 83.7807L60.2491 96.2187C59.0801 100.561 52.9199 100.561 51.7509 96.2187L48.402 83.7807C45.7517 73.9372 38.0628 66.2483 28.2193 63.598L15.7813 60.2491C11.4395 59.0801 11.4395 52.9199 15.7813 51.7509L28.2193 48.402C38.0628 45.7517 45.7517 38.0628 48.402 28.2193L51.7509 15.7813Z" fill="#FB5E13"/>
<path d="M103.331 6.1998C103.79 4.49409 106.21 4.49409 106.669 6.1998L107.985 11.0862C109.026 14.9532 112.047 17.9739 115.914 19.0151L120.8 20.3307C122.506 20.79 122.506 23.21 120.8 23.6693L115.914 24.9849C112.047 26.0261 109.026 29.0468 107.985 32.9138L106.669 37.8002C106.21 39.5059 103.79 39.5059 103.331 37.8002L102.015 32.9138C100.974 29.0468 97.9532 26.0261 94.0862 24.9849L89.1998 23.6693C87.4941 23.21 87.4941 20.79 89.1998 20.3307L94.0862 19.0151C97.9532 17.9739 100.974 14.9532 102.015 11.0862L103.331 6.1998Z" fill="#FCBB51"/>
</svg>
