<svg width="40" height="40" viewBox="0 0 40 40" fill="none" xmlns="http://www.w3.org/2000/svg">
<path d="M30 17.9173C29.3167 17.9173 28.75 17.3507 28.75 16.6673V13.334C28.75 8.08398 27.2667 4.58398 20 4.58398C12.7333 4.58398 11.25 8.08398 11.25 13.334V16.6673C11.25 17.3507 10.6833 17.9173 10 17.9173C9.31667 17.9173 8.75 17.3507 8.75 16.6673V13.334C8.75 8.50065 9.91667 2.08398 20 2.08398C30.0833 2.08398 31.25 8.50065 31.25 13.334V16.6673C31.25 17.3507 30.6833 17.9173 30 17.9173Z" fill="#132D46"/>
<path d="M28.3334 37.916H11.6667C4.31671 37.916 2.08337 35.6827 2.08337 28.3327V24.9993C2.08337 17.6493 4.31671 15.416 11.6667 15.416H28.3334C35.6834 15.416 37.9167 17.6493 37.9167 24.9993V28.3327C37.9167 35.6827 35.6834 37.916 28.3334 37.916ZM11.6667 17.916C5.70004 17.916 4.58337 19.0493 4.58337 24.9993V28.3327C4.58337 34.2827 5.70004 35.416 11.6667 35.416H28.3334C34.3 35.416 35.4167 34.2827 35.4167 28.3327V24.9993C35.4167 19.0493 34.3 17.916 28.3334 17.916H11.6667Z" fill="#132D46"/>
<path d="M13.3333 28.3334C13.1166 28.3334 12.9 28.2835 12.7 28.2001C12.4833 28.1168 12.3166 28.0001 12.15 27.8501C11.85 27.5334 11.6666 27.1168 11.6666 26.6668C11.6666 26.4501 11.7166 26.2334 11.7999 26.0334C11.8833 25.8168 12 25.6501 12.15 25.4835C12.3166 25.3335 12.4833 25.2168 12.7 25.1334C13.3 24.8668 14.0499 25.0168 14.5166 25.4835C14.6666 25.6501 14.7833 25.8334 14.8666 26.0334C14.95 26.2334 15 26.4501 15 26.6668C15 27.1001 14.8166 27.5334 14.5166 27.8501C14.1999 28.1501 13.7666 28.3334 13.3333 28.3334Z" fill="#132D46"/>
<path d="M20 28.3329C19.5667 28.3329 19.1334 28.1495 18.8167 27.8495C18.5167 27.5328 18.3334 27.1162 18.3334 26.6662C18.3334 26.4495 18.3667 26.2329 18.4667 26.0329C18.55 25.8329 18.6667 25.6495 18.8167 25.4829C19.2001 25.0995 19.7834 24.9162 20.3167 25.0328C20.4334 25.0495 20.5334 25.0828 20.6334 25.1328C20.7334 25.1662 20.8334 25.2162 20.9334 25.2829C21.0167 25.3329 21.1 25.4162 21.1834 25.4829C21.3334 25.6495 21.4501 25.8329 21.5334 26.0329C21.6167 26.2329 21.6667 26.4495 21.6667 26.6662C21.6667 27.1162 21.4834 27.5328 21.1834 27.8495C21.1 27.9162 21.0167 27.9828 20.9334 28.0495C20.8334 28.1162 20.7334 28.1662 20.6334 28.1996C20.5334 28.2496 20.4334 28.2829 20.3167 28.2995C20.2167 28.3162 20.1 28.3329 20 28.3329Z" fill="#132D46"/>
<path d="M26.6667 28.3329C26.2167 28.3329 25.8 28.1495 25.4833 27.8495C25.3333 27.6828 25.2166 27.4995 25.1333 27.2995C25.05 27.0995 25 26.8829 25 26.6662C25 26.2329 25.1833 25.7995 25.4833 25.4829C25.5667 25.4162 25.65 25.3496 25.7333 25.2829C25.8333 25.2162 25.9333 25.1662 26.0333 25.1328C26.1333 25.0828 26.2333 25.0495 26.3333 25.0328C26.8833 24.9162 27.45 25.0995 27.85 25.4829C28.15 25.7995 28.3333 26.2162 28.3333 26.6662C28.3333 26.8829 28.2834 27.0995 28.2 27.2995C28.1167 27.5162 28 27.6828 27.85 27.8495C27.5333 28.1495 27.1 28.3329 26.6667 28.3329Z" fill="#132D46"/>
</svg>
