<svg width="100" height="40" viewBox="0 0 100 40" fill="none" xmlns="http://www.w3.org/2000/svg">
<path d="M2.51441 15.401H0V9.38017H2.51441V4.35693H9.6935V9.38017H13.4102V15.401H9.6935V22.3441C9.6935 23.4522 10.1675 23.9326 11.3698 23.9326H13.4474V30.1008H10.35C5.83151 30.1008 2.5153 28.18 2.5153 22.2337V15.401H2.51441Z" fill="#FCEBD0"/>
<path d="M22.4475 9.12248C25.3632 9.12248 27.4036 10.4147 28.4606 12.2618V9.3811H35.6034V30.1008H28.4606V27.2201C27.4036 29.0664 25.3269 30.3594 22.4475 30.3594C17.6011 30.3594 13.7383 26.3338 13.7383 19.7221C13.7383 13.1104 17.6011 9.12158 22.4475 9.12158V9.12248ZM24.743 15.4379C22.7026 15.4379 21.0255 16.9151 21.0255 19.7221C21.0255 22.5291 22.7017 24.0431 24.743 24.0431C26.7843 24.0431 28.4597 22.5291 28.4597 19.7221C28.4597 16.9151 26.7471 15.4379 24.743 15.4379Z" fill="#FCEBD0"/>
<path d="M45.0065 9.38108V32.1329C45.0065 38.0424 41.7266 40 37.2082 40H34.6211V33.8319H36.1512C37.3907 33.8319 37.8638 33.3514 37.8638 32.2434V9.38108H45.0065ZM37.2445 3.76698C37.2445 1.66124 38.8844 0 41.4352 0C43.9859 0 45.5895 1.66214 45.5895 3.76698C45.5895 5.87181 43.9496 7.46032 41.4352 7.46032C38.9208 7.46032 37.2445 5.835 37.2445 3.76698Z" fill="#FCEBD0"/>
<path d="M54.7717 9.12248C57.6874 9.12248 59.7278 10.4147 60.7848 12.2618V9.3811H67.9276V30.1008H60.7848V27.2201C59.7278 29.0664 57.6511 30.3594 54.7717 30.3594C49.9254 30.3594 46.0625 26.3338 46.0625 19.7221C46.0625 13.1104 49.9254 9.12158 54.7717 9.12158V9.12248ZM57.0673 15.4379C55.0268 15.4379 53.3497 16.9151 53.3497 19.7221C53.3497 22.5291 55.026 24.0431 57.0673 24.0431C59.1085 24.0431 60.7839 22.5291 60.7839 19.7221C60.7839 16.9151 59.0713 15.4379 57.0673 15.4379Z" fill="#FCEBD0"/>
<path d="M99.9992 10.5456C99.9992 10.8015 99.9363 11.0395 99.8105 11.2595C99.6847 11.4804 99.5128 11.6537 99.2949 11.7812C99.0769 11.9087 98.8421 11.9716 98.5905 11.9716C98.3389 11.9716 98.1059 11.9078 97.8879 11.7812C97.67 11.6537 97.4981 11.4804 97.3723 11.2595C97.2465 11.0386 97.1836 10.8006 97.1836 10.5456C97.1836 10.2906 97.2465 10.0535 97.3723 9.83262C97.4981 9.61172 97.67 9.43751 97.8879 9.31C98.1059 9.18249 98.3398 9.11963 98.5905 9.11963C98.8413 9.11963 99.0778 9.18338 99.2949 9.31C99.5128 9.43751 99.6847 9.61172 99.8105 9.83262C99.9363 10.0535 99.9992 10.2915 99.9992 10.5456ZM99.7264 10.5456C99.7264 10.2277 99.6156 9.95654 99.3932 9.73115C99.1708 9.50665 98.9033 9.39351 98.5896 9.39351C98.276 9.39351 98.0084 9.50576 97.7861 9.73115C97.5637 9.95654 97.4529 10.2277 97.4529 10.5456C97.4529 10.8635 97.5637 11.1347 97.7861 11.3601C98.0084 11.5855 98.276 11.6977 98.5896 11.6977C98.9033 11.6977 99.1708 11.5855 99.3932 11.3601C99.6156 11.1356 99.7264 10.8635 99.7264 10.5456ZM97.9517 9.78323H98.6251C98.8156 9.78323 98.9538 9.82184 99.0388 9.89996C99.1239 9.97809 99.1673 10.0823 99.1673 10.2134C99.1673 10.3157 99.1345 10.4037 99.0698 10.4792C99.0052 10.5546 98.9024 10.6085 98.7615 10.6417C98.8191 10.6641 98.8616 10.6875 98.8891 10.7126C98.9272 10.7476 98.9671 10.7988 99.0087 10.868C99.0114 10.8734 99.092 11.0197 99.2524 11.3089H98.8094C98.6658 11.0188 98.5693 10.8446 98.5196 10.7881C98.4709 10.7315 98.4213 10.7027 98.3717 10.7027C98.3611 10.7027 98.3451 10.7045 98.3256 10.7081V11.308H97.9509V9.78233L97.9517 9.78323ZM98.3265 10.4298H98.4886C98.5967 10.4298 98.6729 10.4118 98.7172 10.3768C98.7615 10.3409 98.7837 10.2951 98.7837 10.2394C98.7837 10.1837 98.7624 10.1379 98.7199 10.102C98.6774 10.0661 98.6056 10.049 98.5028 10.049H98.3256V10.4307L98.3265 10.4298Z" fill="#E35B33"/>
<path d="M74.0067 12.2158L72.3703 19.1275C71.9495 20.9046 72.7318 22.7993 74.3434 23.6191C74.8776 23.8912 75.4801 24.0439 76.118 24.0439C78.3055 24.0439 80.0792 22.2461 80.0792 20.029C80.0792 22.2461 81.8529 24.0439 84.0404 24.0439C86.2279 24.0439 88.0016 22.2461 88.0016 20.029C88.0016 22.2461 89.7754 24.0439 91.9628 24.0439C92.6008 24.0439 93.2041 23.8912 93.7375 23.6191C95.3491 22.7993 96.1314 20.9046 95.7105 19.1275L94.0741 12.2158C93.6444 10.4001 92.0417 9.11963 90.1989 9.11963H77.882C76.0391 9.11963 74.4373 10.4001 74.0067 12.2158Z" fill="#FB5E13"/>
</svg>
