<svg width="25" height="24" viewBox="0 0 25 24" fill="none" xmlns="http://www.w3.org/2000/svg">
<path d="M17.5 2.43018H7.5C4.5 2.43018 2.5 4.43018 2.5 7.43018V13.4302C2.5 16.4302 4.5 18.4302 7.5 18.4302H11.5L15.95 21.3902C16.61 21.8302 17.5 21.3602 17.5 20.5602V18.4302C20.5 18.4302 22.5 16.4302 22.5 13.4302V7.43018C22.5 4.43018 20.5 2.43018 17.5 2.43018ZM16 11.2502H9C8.59 11.2502 8.25 10.9102 8.25 10.5002C8.25 10.0902 8.59 9.75018 9 9.75018H16C16.41 9.75018 16.75 10.0902 16.75 10.5002C16.75 10.9102 16.41 11.2502 16 11.2502Z" fill="white"/>
</svg>
