<svg xmlns="http://www.w3.org/2000/svg" xmlns:xlink="http://www.w3.org/1999/xlink" version="1.1" width="370" height="698" viewBox="0 0 370 698" xml:space="preserve">
<desc>Created with Fabric.js 3.5.0</desc>
<defs>
</defs>
<rect x="0" y="0" width="100%" height="100%" fill="#ffffff"/>
<g transform="matrix(0.9957 0.0929 -0.0929 0.9957 185.0001 348.9999)" id="935047">
<g style="" vector-effect="non-scaling-stroke">
		<g transform="matrix(0.9962 -0.0872 0.0872 0.9962 -0.1722 -0.0724)" clip-path="url(#CLIPPATH_4)">
<clipPath id="CLIPPATH_4">
	<rect transform="matrix(1 0 0 1 0 0)" id="clip0_1842_42834" x="-155.56" y="-336.562" rx="29.0766" ry="29.0766" width="311.12" height="673.124"/>
</clipPath>
<rect style="stroke: none; stroke-width: 1; stroke-dasharray: none; stroke-linecap: butt; stroke-dashoffset: 0; stroke-linejoin: miter; stroke-miterlimit: 4; is-custom-font: none; font-file-url: none; fill: rgb(13,14,15); fill-rule: nonzero; opacity: 1;" x="-155.56" y="-336.562" rx="29.0766" ry="29.0766" width="311.12" height="673.124"/>
</g>
		<g transform="matrix(1 0 0 1 42.6211 -119.4526)" clip-path="url(#CLIPPATH_5)">
<clipPath id="CLIPPATH_5">
	<rect transform="matrix(0.9962 -0.0872 0.0872 0.9962 -42.7932 119.3802)" id="clip0_1842_42834" x="-155.56" y="-336.562" rx="29.0766" ry="29.0766" width="311.12" height="673.124"/>
</clipPath>
<path style="stroke: none; stroke-width: 1; stroke-dasharray: none; stroke-linecap: butt; stroke-dashoffset: 0; stroke-linejoin: miter; stroke-miterlimit: 4; is-custom-font: none; font-file-url: none; fill: rgb(252,187,81); fill-rule: nonzero; opacity: 1;" transform=" translate(-227.621, -229.5474)" d="M 223.566 209.035 C 223.983 206.689 227.235 206.404 228.053 208.642 L 230.248 214.65 C 232.102 219.725 236.516 223.429 241.836 224.374 L 248.134 225.492 C 250.48 225.909 250.764 229.161 248.526 229.979 L 242.518 232.174 C 237.443 234.028 233.739 238.443 232.795 243.762 L 231.676 250.06 C 231.26 252.406 228.007 252.691 227.189 250.452 L 224.994 244.444 C 223.14 239.37 218.726 235.665 213.406 234.721 L 207.109 233.603 C 204.762 233.186 204.478 229.934 206.716 229.116 L 212.724 226.921 C 217.799 225.067 221.503 220.652 222.448 215.333 L 223.566 209.035 Z" stroke-linecap="round"/>
</g>
		<g transform="matrix(1 0 0 1 -86.2882 -141.0614)" clip-path="url(#CLIPPATH_6)">
<clipPath id="CLIPPATH_6">
	<rect transform="matrix(0.9962 -0.0872 0.0872 0.9962 86.1161 140.9889)" id="clip0_1842_42834" x="-155.56" y="-336.562" rx="29.0766" ry="29.0766" width="311.12" height="673.124"/>
</clipPath>
<path style="stroke: none; stroke-width: 1; stroke-dasharray: none; stroke-linecap: butt; stroke-dashoffset: 0; stroke-linejoin: miter; stroke-miterlimit: 4; is-custom-font: none; font-file-url: none; fill: rgb(252,235,208); fill-rule: nonzero; opacity: 1;" transform=" translate(-98.7117, -207.9386)" d="M 101.864 194.503 C 102.753 193.206 104.786 193.922 104.668 195.49 L 104.35 199.7 C 104.082 203.255 105.726 206.685 108.666 208.702 L 112.147 211.091 C 113.444 211.98 112.729 214.013 111.161 213.895 L 106.951 213.577 C 103.395 213.309 99.9658 214.953 97.9485 217.893 L 95.5601 221.374 C 94.6703 222.671 92.6378 221.956 92.7561 220.388 L 93.0737 216.178 C 93.342 212.623 91.6976 209.193 88.7574 207.176 L 85.2763 204.787 C 83.9794 203.897 84.6945 201.865 86.2629 201.983 L 90.4726 202.301 C 94.0282 202.569 97.4579 200.925 99.4752 197.984 L 101.864 194.503 Z" stroke-linecap="round"/>
</g>
		<g transform="matrix(1 0 0 1 -30.4455 -81.8767)" clip-path="url(#CLIPPATH_7)">
<clipPath id="CLIPPATH_7">
	<rect transform="matrix(0.9962 -0.0872 0.0872 0.9962 30.2733 81.8043)" id="clip0_1842_42834" x="-155.56" y="-336.562" rx="29.0766" ry="29.0766" width="311.12" height="673.124"/>
</clipPath>
<path style="stroke: none; stroke-width: 1; stroke-dasharray: none; stroke-linecap: butt; stroke-dashoffset: 0; stroke-linejoin: miter; stroke-miterlimit: 4; is-custom-font: none; font-file-url: none; fill: rgb(251,94,19); fill-rule: nonzero; opacity: 1;" transform=" translate(-154.5545, -267.1233)" d="M 151.878 253.585 C 152.153 252.036 154.3 251.849 154.839 253.326 L 156.288 257.291 C 157.512 260.641 160.425 263.085 163.936 263.709 L 168.093 264.447 C 169.641 264.722 169.829 266.868 168.352 267.408 L 164.386 268.857 C 161.037 270.08 158.592 272.994 157.969 276.505 L 157.231 280.662 C 156.956 282.21 154.809 282.398 154.27 280.921 L 152.821 276.955 C 151.597 273.606 148.684 271.161 145.173 270.538 L 141.016 269.8 C 139.468 269.525 139.28 267.378 140.757 266.838 L 144.722 265.39 C 148.072 264.166 150.517 261.252 151.14 257.742 L 151.878 253.585 Z" stroke-linecap="round"/>
</g>
		<g transform="matrix(1 0 0 1 5.549 86.2196)" clip-path="url(#CLIPPATH_8)">
<clipPath id="CLIPPATH_8">
	<rect transform="matrix(0.9962 -0.0872 0.0872 0.9962 -5.7212 -86.2919)" id="clip0_1842_42834" x="-155.56" y="-336.562" rx="29.0766" ry="29.0766" width="311.12" height="673.124"/>
</clipPath>
<path style="stroke: none; stroke-width: 1; stroke-dasharray: none; stroke-linecap: butt; stroke-dashoffset: 0; stroke-linejoin: miter; stroke-miterlimit: 4; is-custom-font: none; font-file-url: none; fill: rgb(252,235,208); fill-rule: nonzero; opacity: 1;" transform=" translate(-190.549, -435.2195)" d="M 68.9749 439.564 C 62.8514 440.1 57.8002 437.477 57.0936 431.736 L 64.4741 431.091 C 64.8685 433.263 66.3395 434.196 68.286 434.026 C 70.3137 433.849 71.5226 432.721 71.3772 431.059 C 70.9159 425.787 56.9304 429.871 56.1281 419.766 C 55.6562 414.373 59.8139 410.985 65.7751 410.464 C 71.9796 409.921 76.4261 412.637 77.1854 418.047 L 69.6832 418.703 C 69.4019 416.889 68.0085 415.907 66.1395 416.03 C 64.4733 416.135 63.2907 417.097 63.4468 418.881 C 63.8796 423.828 77.7562 420.367 78.5899 429.897 C 79.0086 434.682 75.6254 438.982 68.9749 439.564 Z M 81.109 430.289 L 80.3213 421.286 L 77.5638 421.528 L 77.06 415.769 L 79.8175 415.528 L 79.335 410.013 L 86.2695 409.406 L 86.752 414.921 L 91.2939 414.524 L 91.7977 420.282 L 87.2558 420.68 L 88.0505 429.763 C 88.1676 431.102 88.785 431.62 90.326 431.485 L 92.7997 431.269 L 93.3141 437.149 L 89.7861 437.457 C 85.082 437.869 81.6234 436.169 81.109 430.289 Z M 91.908 425.83 C 91.2835 418.693 95.3135 413.845 100.869 413.359 C 104.235 413.065 106.762 414.397 108.153 416.277 L 107.873 413.074 L 114.807 412.467 L 116.787 435.095 L 109.852 435.702 L 109.572 432.498 C 108.489 434.595 106.231 436.345 102.865 436.64 C 97.35 437.122 92.5324 432.967 91.908 425.83 Z M 108.862 424.388 C 108.547 420.778 106.061 418.994 103.425 419.224 C 100.83 419.451 98.6483 421.604 98.9641 425.213 C 99.2798 428.822 101.809 430.644 104.405 430.417 C 107.041 430.186 109.178 427.997 108.862 424.388 Z M 118.907 434.91 L 116.927 412.281 L 123.862 411.675 L 124.192 415.446 C 125.564 412.915 127.896 411.077 130.937 410.81 L 131.579 418.15 L 129.673 418.317 C 126.388 418.605 124.582 419.907 124.922 423.8 L 125.841 434.303 L 118.907 434.91 Z M 133.763 425.682 L 132.975 416.68 L 130.217 416.921 L 129.714 411.163 L 132.471 410.921 L 131.989 405.406 L 138.923 404.8 L 139.406 410.315 L 143.947 409.917 L 144.451 415.676 L 139.909 416.073 L 140.704 425.157 C 140.821 426.495 141.439 427.013 142.98 426.878 L 145.453 426.662 L 145.968 432.542 L 142.44 432.851 C 137.736 433.262 134.277 431.563 133.763 425.682 Z M 161.865 431.478 C 155.822 432.007 151.473 428.996 150.765 424.644 L 157.618 424.045 C 157.919 425.612 159.43 426.542 161.336 426.376 C 163.121 426.22 163.982 425.327 163.894 424.313 C 163.574 420.663 151.477 424.378 150.75 416.065 C 150.413 412.212 153.421 408.762 159.341 408.244 C 165.181 407.733 168.709 410.693 169.545 415.115 L 163.138 415.675 C 162.8 414.152 161.536 413.241 159.589 413.412 C 157.967 413.553 157.132 414.28 157.228 415.375 C 157.543 418.984 169.567 415.358 170.426 423.782 C 170.77 427.716 167.542 430.981 161.865 431.478 Z M 172.347 430.234 L 169.721 400.225 L 176.656 399.619 L 177.568 410.041 C 178.776 407.974 181.133 406.419 184.255 406.146 C 189.406 405.695 193.165 408.962 193.697 415.045 L 194.853 428.265 L 187.96 428.868 L 186.885 416.581 C 186.615 413.499 184.763 411.945 182.127 412.175 C 179.491 412.406 177.937 414.258 178.206 417.34 L 179.281 429.627 L 172.347 430.234 Z M 207.104 427.52 C 200.454 428.102 195.035 424.081 194.407 416.903 C 193.779 409.726 198.539 404.814 205.149 404.236 C 211.8 403.654 217.299 407.668 217.927 414.846 C 218.555 422.023 213.755 426.938 207.104 427.52 Z M 206.579 421.518 C 209.053 421.302 211.205 419.275 210.871 415.463 C 210.534 411.611 208.107 410.025 205.674 410.238 C 203.16 410.458 201.126 412.434 201.463 416.286 C 201.797 420.098 204.065 421.738 206.579 421.518 Z M 224.935 406.06 C 226.018 403.963 228.276 402.213 231.601 401.922 C 237.157 401.436 241.967 405.51 242.591 412.647 C 243.216 419.784 239.193 424.713 233.637 425.199 C 230.312 425.49 227.781 424.118 226.357 422.322 L 227.578 436.272 L 220.643 436.878 L 217.72 403.463 L 224.654 402.856 L 224.935 406.06 Z M 235.535 413.264 C 235.22 409.655 232.697 407.914 230.061 408.145 C 227.466 408.372 225.288 410.565 225.604 414.174 C 225.919 417.783 228.445 419.565 231.041 419.337 C 233.676 419.107 235.851 416.873 235.535 413.264 Z M 249.561 403.906 C 250.645 401.808 252.902 400.058 256.228 399.767 C 261.783 399.281 266.594 403.355 267.218 410.492 C 267.843 417.63 263.82 422.558 258.264 423.044 C 254.939 423.335 252.408 421.963 250.984 420.167 L 252.204 434.117 L 245.27 434.724 L 242.347 401.309 L 249.281 400.702 L 249.561 403.906 Z M 260.162 411.11 C 259.846 407.501 257.324 405.76 254.688 405.99 C 252.093 406.218 249.915 408.41 250.23 412.02 C 250.546 415.629 253.072 417.41 255.667 417.183 C 258.303 416.952 260.478 414.719 260.162 411.11 Z M 270.255 396.497 C 267.781 396.713 265.973 395.196 265.792 393.128 C 265.608 391.019 267.125 389.211 269.599 388.995 C 272.032 388.782 273.84 390.299 274.024 392.408 C 274.205 394.476 272.688 396.284 270.255 396.497 Z M 268.953 421.782 L 266.973 399.154 L 273.908 398.547 L 275.887 421.176 L 268.953 421.782 Z M 278.016 420.989 L 276.036 398.361 L 282.971 397.754 L 283.233 400.755 C 284.445 398.729 286.762 397.178 289.803 396.911 C 295.034 396.454 298.834 399.717 299.366 405.8 L 300.523 419.02 L 293.629 419.623 L 292.554 407.336 C 292.284 404.254 290.432 402.7 287.796 402.93 C 285.16 403.161 283.606 405.013 283.876 408.095 L 284.951 420.383 L 278.016 420.989 Z M 309.034 395.147 C 312.359 394.856 314.924 396.144 316.318 398.065 L 316.037 394.861 L 322.972 394.255 L 324.948 416.842 C 325.477 422.885 322.44 428.34 314.613 429.025 C 307.881 429.614 303.204 426.59 302.124 421.25 L 308.977 420.651 C 309.572 422.315 311.371 423.261 313.764 423.051 C 316.399 422.821 318.347 421.261 318.013 417.449 L 317.733 414.245 C 316.65 416.343 314.396 418.133 311.07 418.424 C 305.515 418.91 300.697 414.755 300.073 407.618 C 299.448 400.481 303.478 395.633 309.034 395.147 Z M 317.027 406.176 C 316.711 402.566 314.226 400.782 311.59 401.012 C 308.995 401.239 306.813 403.392 307.129 407.001 C 307.445 410.61 309.974 412.432 312.569 412.205 C 315.205 411.974 317.343 409.785 317.027 406.176 Z M 122.256 480.792 L 114.112 458.703 L 121.047 458.097 L 125.666 473.997 L 128.062 457.483 L 135.402 456.841 L 140.663 472.603 L 142.418 456.227 L 148.947 455.656 L 144.803 478.82 L 137.139 479.49 L 132.286 465.122 L 129.88 480.125 L 122.256 480.792 Z M 151.976 453.021 C 149.503 453.237 147.694 451.72 147.513 449.652 C 147.329 447.543 148.846 445.735 151.32 445.518 C 153.753 445.306 155.561 446.823 155.746 448.931 C 155.927 451 154.409 452.808 151.976 453.021 Z M 150.674 478.306 L 148.694 455.678 L 155.629 455.071 L 157.609 477.699 L 150.674 478.306 Z M 160.144 469.55 L 159.356 460.547 L 156.599 460.789 L 156.095 455.03 L 158.853 454.789 L 158.37 449.274 L 165.305 448.667 L 165.787 454.182 L 170.329 453.785 L 170.833 459.543 L 166.291 459.941 L 167.086 469.025 C 167.203 470.363 167.82 470.881 169.361 470.746 L 171.835 470.53 L 172.349 476.41 L 168.821 476.718 C 164.117 477.13 160.658 475.43 160.144 469.55 Z M 173.315 476.325 L 170.69 446.316 L 177.624 445.71 L 178.536 456.132 C 179.745 454.065 182.101 452.51 185.224 452.237 C 190.374 451.786 194.133 455.053 194.665 461.136 L 195.822 474.356 L 188.928 474.959 L 187.853 462.672 C 187.583 459.59 185.731 458.036 183.095 458.266 C 180.459 458.497 178.905 460.349 179.175 463.431 L 180.25 475.718 L 173.315 476.325 Z M 203.848 465.727 L 203.06 456.724 L 200.302 456.965 L 199.799 451.207 L 202.556 450.965 L 202.074 445.45 L 209.008 444.844 L 209.491 450.359 L 214.032 449.961 L 214.536 455.72 L 209.994 456.117 L 210.789 465.201 C 210.906 466.539 211.524 467.057 213.065 466.922 L 215.538 466.706 L 216.053 472.586 L 212.525 472.895 C 207.821 473.306 204.362 471.607 203.848 465.727 Z M 214.647 461.268 C 214.022 454.13 218.052 449.283 223.608 448.797 C 226.974 448.502 229.501 449.834 230.891 451.715 L 230.611 448.511 L 237.546 447.904 L 239.525 470.533 L 232.591 471.139 L 232.311 467.936 C 231.227 470.033 228.97 471.783 225.604 472.077 C 220.089 472.56 215.271 468.405 214.647 461.268 Z M 231.601 459.825 C 231.285 456.216 228.8 454.431 226.164 454.662 C 223.569 454.889 221.387 457.041 221.703 460.65 C 222.018 464.259 224.548 466.081 227.143 465.854 C 229.779 465.624 231.917 463.434 231.601 459.825 Z M 242.907 445.065 C 240.433 445.282 238.625 443.764 238.444 441.696 C 238.26 439.588 239.777 437.779 242.251 437.563 C 244.684 437.35 246.492 438.867 246.676 440.976 C 246.857 443.044 245.34 444.852 242.907 445.065 Z M 239.666 447.719 L 246.6 447.112 L 248.835 472.66 C 249.35 478.54 246.239 480.815 241.535 481.226 L 238.818 481.464 L 238.303 475.584 L 239.966 475.438 C 241.507 475.304 242.025 474.686 241.908 473.348 L 239.666 447.719 Z M 248.297 458.324 C 247.672 451.186 251.702 446.339 257.258 445.853 C 260.624 445.558 263.151 446.89 264.542 448.771 L 264.261 445.567 L 271.196 444.96 L 273.176 467.589 L 266.241 468.195 L 265.961 464.992 C 264.878 467.089 262.62 468.839 259.254 469.133 C 253.739 469.616 248.921 465.461 248.297 458.324 Z M 265.251 456.881 C 264.936 453.272 262.45 451.487 259.814 451.718 C 257.219 451.945 255.037 454.097 255.353 457.706 C 255.669 461.315 258.198 463.137 260.794 462.91 C 263.429 462.68 265.567 460.49 265.251 456.881 Z" stroke-linecap="round"/>
</g>
		<g transform="matrix(1 0 0 1 13.4566 163.6709)" clip-path="url(#CLIPPATH_9)">
<clipPath id="CLIPPATH_9">
	<rect transform="matrix(0.9962 -0.0872 0.0872 0.9962 -13.6288 -163.7434)" id="clip0_1842_42834" x="-155.56" y="-336.562" rx="29.0766" ry="29.0766" width="311.12" height="673.124"/>
</clipPath>
<path style="stroke: none; stroke-width: 1; stroke-dasharray: none; stroke-linecap: butt; stroke-dashoffset: 0; stroke-linejoin: miter; stroke-miterlimit: 4; is-custom-font: none; font-file-url: none; fill: rgb(133,120,116); fill-rule: nonzero; opacity: 1;" transform=" translate(-198.4566, -512.6709)" d="M 98.4336 517.547 L 96.3932 511.974 L 95.3414 517.817 L 94.1958 517.918 L 91.6632 510.804 L 92.7581 510.708 L 94.6476 516.192 L 95.688 510.452 L 96.8437 510.351 L 98.8457 515.835 L 99.7534 510.096 L 100.848 510.001 L 99.5893 517.446 L 98.4336 517.547 Z M 103.961 517.165 C 102.41 517.301 101.267 516.267 101.119 514.574 C 100.98 512.982 101.963 511.722 103.443 511.592 C 105.045 511.452 106.223 512.656 106.193 514.416 L 102.188 514.766 C 102.365 515.854 102.969 516.445 103.871 516.366 C 104.631 516.3 105.122 515.838 105.233 515.123 L 106.247 515.035 C 106.088 516.254 105.229 517.054 103.961 517.165 Z M 103.49 512.364 C 102.669 512.436 102.163 513.073 102.139 514.086 L 105.049 513.832 C 104.911 512.843 104.321 512.292 103.49 512.364 Z M 112.462 516.319 L 112.389 515.488 C 112.107 516.116 111.538 516.502 110.747 516.572 C 109.632 516.669 108.846 516.094 108.76 515.111 C 108.668 514.057 109.462 513.435 111.063 513.295 C 111.378 513.268 111.632 513.256 112.072 513.268 L 112.038 512.873 C 111.97 512.102 111.517 511.703 110.807 511.765 C 110.057 511.831 109.64 512.317 109.675 513.07 L 108.742 513.151 C 108.687 511.94 109.479 511.064 110.736 510.954 C 112.064 510.838 112.9 511.521 113.012 512.798 L 113.314 516.245 L 112.462 516.319 Z M 109.731 514.995 C 109.78 515.553 110.227 515.882 110.886 515.824 C 111.748 515.749 112.238 515.164 112.166 514.343 L 112.128 513.907 C 111.729 513.891 111.444 513.906 111.18 513.929 C 110.156 514.018 109.676 514.367 109.731 514.995 Z M 115.263 513.306 L 115.504 516.053 L 114.48 516.143 L 114.01 510.77 L 114.963 510.686 L 115.062 511.822 C 115.372 511.049 116.143 510.512 117.025 510.434 L 117.118 511.499 C 115.957 511.539 115.16 512.12 115.263 513.306 Z M 120.308 515.735 C 118.757 515.871 117.614 514.837 117.466 513.144 C 117.327 511.552 118.309 510.291 119.79 510.162 C 121.391 510.022 122.569 511.226 122.539 512.986 L 118.535 513.336 C 118.712 514.424 119.315 515.015 120.217 514.936 C 120.978 514.87 121.469 514.408 121.58 513.693 L 122.594 513.604 C 122.435 514.824 121.575 515.624 120.308 515.735 Z M 119.837 510.934 C 119.015 511.006 118.509 511.643 118.486 512.656 L 121.395 512.402 C 121.258 511.413 120.668 510.861 119.837 510.934 Z M 126.313 512.053 L 126.578 515.084 L 125.554 515.174 L 124.917 507.895 L 125.941 507.805 L 126.183 510.573 C 126.488 509.964 127.001 509.531 127.742 509.466 C 128.847 509.369 129.639 510.015 129.751 511.303 L 130.055 514.78 L 129.032 514.87 L 128.757 511.737 C 128.677 510.815 128.226 510.333 127.466 510.4 C 126.766 510.461 126.23 511.1 126.313 512.053 Z M 133.431 514.587 C 131.88 514.723 130.738 513.689 130.59 511.996 C 130.45 510.404 131.433 509.143 132.913 509.014 C 134.515 508.874 135.693 510.078 135.663 511.838 L 131.659 512.188 C 131.835 513.276 132.439 513.867 133.341 513.788 C 134.101 513.721 134.592 513.26 134.703 512.545 L 135.717 512.456 C 135.558 513.676 134.699 514.476 133.431 514.587 Z M 132.96 509.786 C 132.139 509.858 131.633 510.495 131.609 511.508 L 134.519 511.253 C 134.381 510.264 133.792 509.713 132.96 509.786 Z M 137.545 511.356 L 137.786 514.104 L 136.762 514.193 L 136.292 508.82 L 137.245 508.737 L 137.344 509.872 C 137.654 509.099 138.425 508.562 139.307 508.485 L 139.4 509.549 C 138.239 509.59 137.442 510.17 137.545 511.356 Z M 142.59 513.786 C 141.039 513.921 139.896 512.887 139.748 511.194 C 139.609 509.603 140.591 508.342 142.072 508.212 C 143.673 508.072 144.851 509.277 144.821 511.037 L 140.817 511.387 C 140.994 512.475 141.597 513.066 142.499 512.987 C 143.26 512.92 143.751 512.458 143.862 511.744 L 144.876 511.655 C 144.717 512.874 143.857 513.675 142.59 513.786 Z M 142.119 508.985 C 141.297 509.057 140.791 509.693 140.768 510.707 L 143.677 510.452 C 143.54 509.463 142.95 508.912 142.119 508.985 Z M 150.781 511.966 L 150.859 512.868 C 150.558 513.038 150.288 513.112 149.964 513.141 C 148.97 513.228 148.234 512.751 148.13 511.564 L 147.878 508.685 L 146.692 508.789 L 146.616 507.917 L 147.802 507.813 L 147.663 506.222 L 148.687 506.132 L 148.826 507.724 L 150.448 507.582 L 150.524 508.454 L 148.902 508.596 L 149.134 511.242 C 149.198 511.982 149.576 512.214 150.124 512.166 C 150.367 512.145 150.577 512.086 150.781 511.966 Z M 153.804 512.805 C 152.283 512.938 151.063 511.839 150.924 510.247 C 150.785 508.656 151.795 507.362 153.316 507.229 C 154.837 507.096 156.056 508.194 156.196 509.786 C 156.335 511.378 155.324 512.672 153.804 512.805 Z M 153.725 511.902 C 154.607 511.825 155.244 511.054 155.141 509.878 C 155.038 508.702 154.278 508.064 153.396 508.141 C 152.514 508.218 151.885 508.978 151.988 510.154 C 152.091 511.33 152.843 511.98 153.725 511.902 Z M 162.442 511.947 L 162.369 511.115 C 162.087 511.743 161.518 512.13 160.727 512.199 C 159.612 512.296 158.826 511.722 158.74 510.738 C 158.648 509.684 159.442 509.063 161.043 508.923 C 161.358 508.895 161.612 508.883 162.052 508.896 L 162.018 508.5 C 161.95 507.73 161.497 507.33 160.787 507.392 C 160.037 507.458 159.62 507.944 159.655 508.697 L 158.722 508.778 C 158.667 507.568 159.459 506.691 160.716 506.581 C 162.044 506.465 162.88 507.148 162.992 508.425 L 163.294 511.872 L 162.442 511.947 Z M 159.711 510.623 C 159.76 511.18 160.207 511.509 160.866 511.451 C 161.728 511.376 162.218 510.792 162.147 509.97 L 162.108 509.534 C 161.709 509.518 161.424 509.533 161.16 509.556 C 160.136 509.646 159.656 509.994 159.711 510.623 Z M 168.578 509.796 C 168.67 510.85 167.906 511.571 166.476 511.696 C 165.057 511.82 164.154 511.194 163.952 510.047 L 164.935 509.961 C 165.034 510.627 165.608 510.996 166.429 510.924 C 167.149 510.861 167.603 510.566 167.559 510.059 C 167.52 509.613 167.229 509.444 166.548 509.371 L 165.662 509.285 C 164.652 509.179 164.05 508.721 163.979 507.91 C 163.897 506.967 164.66 506.236 165.907 506.127 C 167.195 506.014 168.127 506.628 168.315 507.725 L 167.331 507.811 C 167.214 507.167 166.705 506.834 165.985 506.897 C 165.336 506.953 164.924 507.265 164.965 507.732 C 165.003 508.168 165.294 508.346 165.954 508.411 L 166.881 508.504 C 167.963 508.603 168.51 509.025 168.578 509.796 Z M 173.751 509.343 C 173.843 510.398 173.079 511.118 171.649 511.243 C 170.23 511.368 169.327 510.742 169.125 509.595 L 170.108 509.509 C 170.207 510.174 170.781 510.543 171.602 510.471 C 172.322 510.408 172.776 510.113 172.732 509.606 C 172.693 509.16 172.402 508.991 171.722 508.918 L 170.836 508.832 C 169.825 508.726 169.223 508.268 169.152 507.457 C 169.07 506.514 169.833 505.784 171.08 505.675 C 172.368 505.562 173.3 506.175 173.488 507.272 L 172.505 507.358 C 172.387 506.715 171.878 506.381 171.158 506.444 C 170.509 506.501 170.097 506.813 170.138 507.279 C 170.176 507.715 170.467 507.894 171.127 507.959 L 172.054 508.051 C 173.136 508.151 173.684 508.573 173.751 509.343 Z M 175.474 504.136 C 175.508 504.521 175.229 504.842 174.793 504.88 C 174.357 504.918 174.017 504.651 173.984 504.266 C 173.949 503.871 174.239 503.559 174.675 503.521 C 175.111 503.483 175.439 503.74 175.474 504.136 Z M 175.83 510.775 L 174.806 510.865 L 174.336 505.492 L 175.36 505.402 L 175.83 510.775 Z M 181.167 508.694 C 181.259 509.749 180.495 510.47 179.065 510.595 C 177.646 510.719 176.743 510.093 176.541 508.946 L 177.524 508.86 C 177.623 509.525 178.197 509.894 179.018 509.822 C 179.738 509.759 180.192 509.464 180.148 508.957 C 180.109 508.511 179.818 508.343 179.138 508.269 L 178.251 508.183 C 177.241 508.078 176.639 507.62 176.568 506.808 C 176.486 505.866 177.249 505.135 178.496 505.026 C 179.784 504.913 180.716 505.526 180.904 506.623 L 179.92 506.709 C 179.803 506.066 179.294 505.732 178.574 505.795 C 177.925 505.852 177.513 506.164 177.554 506.63 C 177.592 507.066 177.883 507.245 178.543 507.31 L 179.47 507.402 C 180.552 507.502 181.099 507.924 181.167 508.694 Z M 185.097 508.964 L 185.176 509.866 C 184.874 510.035 184.605 510.11 184.281 510.138 C 183.287 510.225 182.551 509.748 182.447 508.562 L 182.195 505.683 L 181.009 505.787 L 180.933 504.915 L 182.119 504.811 L 181.979 503.219 L 183.003 503.13 L 183.143 504.721 L 184.765 504.579 L 184.841 505.451 L 183.219 505.593 L 183.45 508.239 C 183.515 508.979 183.893 509.212 184.441 509.164 C 184.684 509.143 184.893 509.084 185.097 508.964 Z M 192.82 506.582 C 192.961 508.194 192.131 509.451 190.682 509.578 C 189.921 509.645 189.239 509.316 188.794 508.671 L 188.878 509.634 L 187.925 509.717 L 187.288 502.438 L 188.312 502.349 L 188.56 505.177 C 188.877 504.485 189.464 504.066 190.194 504.002 C 191.633 503.876 192.677 504.95 192.82 506.582 Z M 191.756 506.675 C 191.649 505.458 190.952 504.845 190.07 504.922 C 189.218 504.997 188.607 505.714 188.712 506.921 C 188.816 508.107 189.527 508.76 190.399 508.684 C 191.281 508.606 191.86 507.871 191.756 506.675 Z M 197.053 506.692 L 196.776 503.529 L 197.8 503.439 L 198.27 508.812 L 197.317 508.896 L 197.243 508.044 C 197.008 508.626 196.414 509.077 195.684 509.141 C 194.599 509.236 193.793 508.662 193.672 507.284 L 193.37 503.827 L 194.394 503.737 L 194.678 506.991 C 194.76 507.924 195.26 508.269 195.929 508.21 C 196.619 508.15 197.126 507.533 197.053 506.692 Z M 203.607 506.731 C 203.699 507.786 202.935 508.506 201.506 508.631 C 200.086 508.755 199.184 508.13 198.981 506.983 L 199.964 506.897 C 200.064 507.562 200.637 507.931 201.458 507.859 C 202.178 507.796 202.633 507.501 202.588 506.994 C 202.549 506.548 202.259 506.379 201.578 506.306 L 200.692 506.22 C 199.682 506.114 199.08 505.656 199.009 504.845 C 198.926 503.902 199.69 503.172 200.937 503.062 C 202.224 502.95 203.156 503.563 203.344 504.66 L 202.361 504.746 C 202.243 504.102 201.734 503.769 201.014 503.832 C 200.365 503.889 199.953 504.201 199.994 504.667 C 200.032 505.103 200.324 505.282 200.983 505.347 L 201.911 505.439 C 202.992 505.539 203.54 505.961 203.607 506.731 Z M 205.33 501.524 C 205.364 501.909 205.086 502.23 204.65 502.268 C 204.214 502.306 203.874 502.039 203.84 501.654 C 203.805 501.259 204.095 500.947 204.531 500.909 C 204.967 500.871 205.296 501.128 205.33 501.524 Z M 205.687 508.163 L 204.663 508.253 L 204.192 502.88 L 205.216 502.79 L 205.687 508.163 Z M 207.664 504.936 L 207.929 507.967 L 206.905 508.057 L 206.435 502.684 L 207.388 502.6 L 207.466 503.492 C 207.779 502.862 208.353 502.414 209.093 502.349 C 210.198 502.252 210.99 502.898 211.102 504.186 L 211.407 507.663 L 210.383 507.752 L 210.109 504.62 C 210.028 503.697 209.577 503.216 208.817 503.282 C 208.117 503.343 207.581 503.983 207.664 504.936 Z M 214.783 507.47 C 213.231 507.605 212.089 506.571 211.941 504.878 C 211.801 503.287 212.784 502.026 214.264 501.896 C 215.866 501.756 217.044 502.961 217.014 504.721 L 213.01 505.071 C 213.187 506.159 213.79 506.75 214.692 506.671 C 215.453 506.604 215.943 506.142 216.055 505.428 L 217.068 505.339 C 216.909 506.558 216.05 507.359 214.783 507.47 Z M 214.311 502.669 C 213.49 502.741 212.984 503.377 212.96 504.391 L 215.87 504.136 C 215.732 503.147 215.143 502.596 214.311 502.669 Z M 222.231 505.102 C 222.323 506.156 221.559 506.877 220.129 507.002 C 218.71 507.126 217.807 506.5 217.605 505.353 L 218.588 505.267 C 218.687 505.933 219.261 506.302 220.082 506.23 C 220.802 506.167 221.256 505.872 221.212 505.365 C 221.173 504.919 220.882 504.75 220.202 504.677 L 219.316 504.591 C 218.305 504.485 217.703 504.027 217.632 503.216 C 217.55 502.273 218.313 501.542 219.56 501.433 C 220.848 501.32 221.78 501.934 221.968 503.031 L 220.985 503.117 C 220.867 502.473 220.358 502.14 219.638 502.203 C 218.989 502.259 218.577 502.571 218.618 503.038 C 218.656 503.474 218.947 503.652 219.607 503.717 L 220.534 503.81 C 221.616 503.909 222.163 504.331 222.231 505.102 Z M 227.404 504.649 C 227.496 505.704 226.732 506.424 225.302 506.549 C 223.883 506.674 222.98 506.048 222.778 504.901 L 223.761 504.815 C 223.86 505.48 224.434 505.849 225.255 505.777 C 225.975 505.714 226.429 505.419 226.385 504.912 C 226.346 504.466 226.055 504.297 225.375 504.224 L 224.489 504.138 C 223.478 504.032 222.876 503.574 222.805 502.763 C 222.723 501.82 223.486 501.09 224.733 500.98 C 226.021 500.868 226.953 501.481 227.141 502.578 L 226.158 502.664 C 226.04 502.021 225.531 501.687 224.811 501.75 C 224.162 501.807 223.75 502.119 223.791 502.585 C 223.829 503.021 224.121 503.2 224.78 503.265 L 225.708 503.357 C 226.789 503.457 227.337 503.879 227.404 504.649 Z M 230.678 506.079 C 229.127 506.215 227.985 505.181 227.836 503.488 C 227.697 501.896 228.68 500.635 230.16 500.506 C 231.762 500.366 232.94 501.57 232.91 503.33 L 228.905 503.68 C 229.082 504.768 229.686 505.359 230.588 505.28 C 231.348 505.213 231.839 504.752 231.95 504.037 L 232.964 503.948 C 232.805 505.168 231.946 505.968 230.678 506.079 Z M 230.207 501.278 C 229.386 501.35 228.88 501.987 228.856 503 L 231.766 502.745 C 231.628 501.756 231.039 501.205 230.207 501.278 Z M 238.127 503.711 C 238.219 504.765 237.454 505.486 236.025 505.611 C 234.606 505.735 233.703 505.109 233.501 503.963 L 234.484 503.877 C 234.583 504.542 235.157 504.911 235.978 504.839 C 236.698 504.776 237.152 504.481 237.108 503.974 C 237.069 503.528 236.778 503.359 236.097 503.286 L 235.211 503.2 C 234.201 503.094 233.599 502.636 233.528 501.825 C 233.446 500.882 234.209 500.151 235.456 500.042 C 236.744 499.93 237.676 500.543 237.864 501.64 L 236.88 501.726 C 236.763 501.082 236.253 500.749 235.534 500.812 C 234.885 500.869 234.473 501.181 234.514 501.647 C 234.552 502.083 234.843 502.262 235.503 502.327 L 236.43 502.419 C 237.512 502.519 238.059 502.941 238.127 503.711 Z M 245.538 504.677 L 243.972 500.789 L 243.095 504.891 L 242.061 504.981 L 240.04 499.743 L 241.044 499.656 L 242.471 503.474 L 243.345 499.454 L 244.359 499.366 L 245.898 503.184 L 246.64 499.166 L 247.654 499.077 L 246.562 504.587 L 245.538 504.677 Z M 249.424 497.666 C 249.458 498.051 249.179 498.372 248.743 498.41 C 248.307 498.448 247.967 498.182 247.934 497.796 C 247.899 497.401 248.189 497.09 248.624 497.051 C 249.06 497.013 249.389 497.271 249.424 497.666 Z M 249.78 504.306 L 248.756 504.395 L 248.286 499.022 L 249.31 498.932 L 249.78 504.306 Z M 253.943 502.94 L 254.022 503.843 C 253.72 504.012 253.451 504.087 253.127 504.115 C 252.133 504.202 251.397 503.725 251.293 502.539 L 251.041 499.66 L 249.855 499.763 L 249.779 498.891 L 250.965 498.788 L 250.825 497.196 L 251.849 497.106 L 251.989 498.698 L 253.611 498.556 L 253.687 499.428 L 252.065 499.57 L 252.296 502.216 C 252.361 502.956 252.739 503.189 253.287 503.141 C 253.53 503.119 253.739 503.06 253.943 502.94 Z M 255.614 500.741 L 255.879 503.772 L 254.855 503.862 L 254.218 496.582 L 255.242 496.493 L 255.485 499.261 C 255.789 498.652 256.303 498.219 257.043 498.154 C 258.148 498.057 258.94 498.703 259.052 499.99 L 259.357 503.468 L 258.333 503.557 L 258.059 500.425 C 257.978 499.502 257.527 499.021 256.767 499.087 C 256.067 499.148 255.531 499.788 255.614 500.741 Z M 264.558 503.125 C 263.088 503.254 261.953 502.188 261.809 500.546 C 261.667 498.924 262.62 497.666 264.069 497.539 C 265.398 497.423 266.438 498.221 266.753 499.603 L 265.678 499.697 C 265.491 498.845 264.909 498.375 264.159 498.44 C 263.277 498.518 262.764 499.318 262.864 500.454 C 262.964 501.599 263.606 502.289 264.488 502.212 C 265.249 502.145 265.732 501.592 265.777 500.71 L 266.842 500.617 C 266.783 502.052 265.907 503.007 264.558 503.125 Z M 271.023 500.22 L 270.746 497.057 L 271.77 496.967 L 272.24 502.341 L 271.287 502.424 L 271.212 501.572 C 270.977 502.155 270.383 502.605 269.653 502.669 C 268.569 502.764 267.762 502.191 267.642 500.812 L 267.339 497.355 L 268.363 497.266 L 268.648 500.52 C 268.73 501.453 269.23 501.797 269.899 501.738 C 270.588 501.678 271.096 501.062 271.023 500.22 Z M 277.577 500.26 C 277.669 501.314 276.905 502.035 275.475 502.16 C 274.056 502.284 273.153 501.658 272.951 500.511 L 273.934 500.425 C 274.033 501.091 274.607 501.459 275.428 501.388 C 276.148 501.325 276.602 501.029 276.558 500.522 C 276.519 500.076 276.228 499.908 275.548 499.834 L 274.662 499.749 C 273.651 499.643 273.049 499.185 272.978 498.374 C 272.896 497.431 273.659 496.7 274.906 496.591 C 276.194 496.478 277.126 497.091 277.314 498.188 L 276.331 498.274 C 276.213 497.631 275.704 497.298 274.984 497.361 C 274.335 497.417 273.923 497.729 273.964 498.196 C 274.002 498.631 274.293 498.81 274.953 498.875 L 275.88 498.968 C 276.962 499.067 277.51 499.489 277.577 500.26 Z M 281.507 500.529 L 281.586 501.431 C 281.284 501.6 281.015 501.675 280.691 501.703 C 279.697 501.79 278.961 501.313 278.857 500.127 L 278.605 497.248 L 277.419 497.352 L 277.343 496.48 L 278.529 496.376 L 278.39 494.784 L 279.414 494.695 L 279.553 496.287 L 281.175 496.145 L 281.251 497.017 L 279.629 497.158 L 279.861 499.804 C 279.925 500.545 280.303 500.777 280.851 500.729 C 281.094 500.708 281.303 500.649 281.507 500.529 Z M 284.53 501.368 C 283.01 501.501 281.79 500.402 281.651 498.81 C 281.511 497.219 282.522 495.925 284.043 495.792 C 285.563 495.659 286.783 496.757 286.922 498.349 C 287.062 499.941 286.051 501.235 284.53 501.368 Z M 284.451 500.465 C 285.333 500.388 285.971 499.617 285.868 498.441 C 285.765 497.265 285.004 496.627 284.122 496.704 C 283.24 496.781 282.612 497.541 282.715 498.717 C 282.818 499.893 283.569 500.542 284.451 500.465 Z M 289.022 500.872 L 287.999 500.962 L 287.528 495.589 L 288.481 495.505 L 288.559 496.398 C 288.87 495.747 289.415 495.322 290.155 495.257 C 290.946 495.188 291.58 495.541 291.885 496.229 C 292.2 495.507 292.781 495.027 293.602 494.955 C 294.707 494.859 295.48 495.516 295.592 496.794 L 295.896 500.271 L 294.872 500.361 L 294.596 497.208 C 294.518 496.316 294.077 495.823 293.327 495.889 C 292.627 495.95 292.111 496.587 292.19 497.49 L 292.459 500.572 L 291.435 500.661 L 291.159 497.508 C 291.081 496.616 290.64 496.124 289.89 496.189 C 289.18 496.251 288.674 496.888 288.753 497.79 L 289.022 500.872 Z M 299.282 500.077 C 297.73 500.213 296.588 499.179 296.44 497.486 C 296.3 495.894 297.283 494.633 298.763 494.504 C 300.365 494.364 301.543 495.568 301.513 497.328 L 297.509 497.678 C 297.686 498.766 298.289 499.357 299.191 499.278 C 299.952 499.211 300.442 498.75 300.554 498.035 L 301.567 497.946 C 301.408 499.166 300.549 499.966 299.282 500.077 Z M 298.81 495.276 C 297.989 495.348 297.483 495.985 297.459 496.998 L 300.369 496.743 C 300.231 495.754 299.642 495.203 298.81 495.276 Z M 303.396 496.846 L 303.636 499.594 L 302.612 499.683 L 302.142 494.31 L 303.095 494.227 L 303.194 495.362 C 303.505 494.589 304.275 494.052 305.157 493.975 L 305.25 495.039 C 304.089 495.08 303.292 495.66 303.396 496.846 Z M 113.866 531.356 C 112.346 531.489 111.126 530.39 110.987 528.799 C 110.847 527.207 111.858 525.913 113.379 525.78 C 114.899 525.647 116.119 526.746 116.258 528.337 C 116.398 529.929 115.387 531.223 113.866 531.356 Z M 113.787 530.454 C 114.669 530.377 115.307 529.606 115.204 528.43 C 115.101 527.254 114.34 526.615 113.458 526.692 C 112.576 526.77 111.948 527.53 112.051 528.706 C 112.154 529.882 112.905 530.531 113.787 530.454 Z M 118.118 528.113 L 118.358 530.861 L 117.334 530.95 L 116.864 525.577 L 117.817 525.494 L 117.917 526.629 C 118.227 525.856 118.997 525.319 119.879 525.242 L 119.972 526.306 C 118.811 526.347 118.014 526.927 118.118 528.113 Z M 120.323 527.982 C 120.18 526.35 121.012 525.112 122.462 524.985 C 123.181 524.922 123.842 525.232 124.275 525.859 L 124.027 523.03 L 125.051 522.94 L 125.688 530.22 L 124.735 530.303 L 124.651 529.34 C 124.325 530.053 123.71 530.495 122.949 530.561 C 121.5 530.688 120.464 529.594 120.323 527.982 Z M 121.388 527.889 C 121.492 529.085 122.18 529.709 123.072 529.631 C 123.944 529.555 124.531 528.788 124.427 527.602 C 124.322 526.396 123.595 525.795 122.743 525.87 C 121.851 525.948 121.281 526.672 121.388 527.889 Z M 129.128 530.021 C 127.576 530.157 126.434 529.123 126.286 527.43 C 126.146 525.838 127.129 524.577 128.609 524.448 C 130.211 524.307 131.389 525.512 131.359 527.272 L 127.355 527.622 C 127.532 528.71 128.135 529.301 129.037 529.222 C 129.798 529.155 130.288 528.693 130.4 527.979 L 131.413 527.89 C 131.254 529.109 130.395 529.91 129.128 530.021 Z M 128.656 525.22 C 127.835 525.292 127.329 525.928 127.305 526.942 L 130.215 526.687 C 130.077 525.698 129.488 525.147 128.656 525.22 Z M 133.242 526.79 L 133.482 529.538 L 132.458 529.627 L 131.988 524.254 L 132.941 524.171 L 133.04 525.306 C 133.351 524.533 134.121 523.996 135.003 523.919 L 135.096 524.983 C 133.935 525.024 133.138 525.604 133.242 526.79 Z M 140.205 527.335 C 140.297 528.39 139.532 529.111 138.103 529.236 C 136.684 529.36 135.781 528.734 135.578 527.587 L 136.562 527.501 C 136.661 528.167 137.235 528.535 138.056 528.463 C 138.776 528.4 139.23 528.105 139.186 527.598 C 139.147 527.152 138.856 526.984 138.175 526.91 L 137.289 526.824 C 136.279 526.719 135.677 526.261 135.606 525.449 C 135.524 524.507 136.287 523.776 137.534 523.667 C 138.822 523.554 139.754 524.167 139.942 525.264 L 138.958 525.35 C 138.841 524.707 138.331 524.373 137.612 524.436 C 136.963 524.493 136.551 524.805 136.592 525.271 C 136.63 525.707 136.921 525.886 137.581 525.951 L 138.508 526.043 C 139.589 526.143 140.137 526.565 140.205 527.335 Z M 146.43 528.405 L 146.357 527.574 C 146.075 528.201 145.506 528.588 144.716 528.657 C 143.6 528.755 142.815 528.18 142.729 527.196 C 142.636 526.142 143.43 525.521 145.032 525.381 C 145.346 525.353 145.6 525.341 146.041 525.354 L 146.006 524.958 C 145.939 524.188 145.485 523.788 144.775 523.85 C 144.025 523.916 143.608 524.402 143.643 525.155 L 142.71 525.237 C 142.655 524.026 143.447 523.149 144.704 523.039 C 146.032 522.923 146.868 523.606 146.98 524.883 L 147.282 528.33 L 146.43 528.405 Z M 143.699 527.081 C 143.748 527.638 144.196 527.967 144.855 527.909 C 145.716 527.834 146.207 527.25 146.135 526.428 L 146.097 525.993 C 145.697 525.976 145.412 525.991 145.148 526.014 C 144.124 526.104 143.644 526.452 143.699 527.081 Z M 149.207 525.107 L 149.472 528.139 L 148.448 528.228 L 147.978 522.855 L 148.931 522.772 L 149.009 523.664 C 149.322 523.034 149.895 522.585 150.635 522.521 C 151.741 522.424 152.533 523.07 152.645 524.357 L 152.949 527.835 L 151.925 527.924 L 151.651 524.791 C 151.571 523.869 151.12 523.387 150.36 523.454 C 149.66 523.515 149.123 524.154 149.207 525.107 Z M 153.486 525.08 C 153.343 523.448 154.175 522.211 155.625 522.084 C 156.344 522.021 157.005 522.331 157.438 522.957 L 157.19 520.129 L 158.214 520.039 L 158.851 527.318 L 157.898 527.402 L 157.814 526.438 C 157.488 527.151 156.873 527.593 156.113 527.66 C 154.663 527.787 153.627 526.692 153.486 525.08 Z M 154.551 524.987 C 154.655 526.184 155.343 526.808 156.235 526.73 C 157.107 526.654 157.694 525.887 157.59 524.701 C 157.485 523.494 156.758 522.894 155.906 522.969 C 155.014 523.047 154.444 523.771 154.551 524.987 Z M 163.012 526.954 L 161.988 527.044 L 161.518 521.671 L 162.47 521.587 L 162.549 522.479 C 162.859 521.829 163.404 521.403 164.145 521.339 C 164.935 521.269 165.569 521.623 165.874 522.311 C 166.189 521.589 166.77 521.109 167.592 521.037 C 168.697 520.94 169.469 521.598 169.581 522.875 L 169.885 526.353 L 168.861 526.442 L 168.585 523.289 C 168.507 522.397 168.066 521.905 167.316 521.97 C 166.616 522.032 166.1 522.669 166.179 523.572 L 166.448 526.654 L 165.424 526.743 L 165.149 523.59 C 165.071 522.698 164.629 522.205 163.879 522.271 C 163.169 522.333 162.663 522.97 162.742 523.872 L 163.012 526.954 Z M 173.311 526.155 C 171.791 526.288 170.571 525.19 170.431 523.598 C 170.292 522.006 171.303 520.712 172.823 520.579 C 174.344 520.446 175.564 521.545 175.703 523.137 C 175.842 524.728 174.832 526.022 173.311 526.155 Z M 173.232 525.253 C 174.114 525.176 174.752 524.405 174.649 523.229 C 174.546 522.053 173.785 521.415 172.903 521.492 C 172.021 521.569 171.393 522.329 171.496 523.505 C 171.599 524.681 172.35 525.33 173.232 525.253 Z M 177.563 522.913 L 177.803 525.66 L 176.779 525.75 L 176.309 520.377 L 177.262 520.293 L 177.362 521.429 C 177.672 520.656 178.442 520.118 179.324 520.041 L 179.417 521.106 C 178.256 521.146 177.459 521.727 177.563 522.913 Z M 182.607 525.342 C 181.056 525.478 179.913 524.444 179.765 522.751 C 179.626 521.159 180.609 519.898 182.089 519.769 C 183.691 519.629 184.869 520.833 184.839 522.593 L 180.834 522.943 C 181.011 524.031 181.615 524.622 182.517 524.543 C 183.277 524.476 183.768 524.015 183.879 523.3 L 184.893 523.211 C 184.734 524.431 183.874 525.231 182.607 525.342 Z M 182.136 520.541 C 181.315 520.613 180.809 521.25 180.785 522.263 L 183.695 522.008 C 183.557 521.019 182.967 520.468 182.136 520.541 Z M 191.971 522.806 C 192.064 523.861 191.299 524.582 189.87 524.707 C 188.45 524.831 187.548 524.205 187.345 523.058 L 188.329 522.972 C 188.428 523.638 189.002 524.006 189.823 523.934 C 190.542 523.871 190.997 523.576 190.952 523.069 C 190.913 522.623 190.623 522.455 189.942 522.381 L 189.056 522.295 C 188.046 522.19 187.444 521.732 187.373 520.92 C 187.29 519.978 188.054 519.247 189.301 519.138 C 190.588 519.025 191.521 519.638 191.709 520.735 L 190.725 520.821 C 190.608 520.178 190.098 519.844 189.378 519.907 C 188.73 519.964 188.318 520.276 188.358 520.742 C 188.397 521.178 188.688 521.357 189.347 521.422 L 190.275 521.514 C 191.356 521.614 191.904 522.036 191.971 522.806 Z M 197.922 521.193 C 198.064 522.815 197.233 524.062 195.793 524.188 C 195.063 524.252 194.413 523.941 193.971 523.326 L 194.222 526.195 L 193.198 526.285 L 192.557 518.955 L 193.51 518.872 L 193.596 519.855 C 193.921 519.132 194.545 518.679 195.305 518.612 C 196.735 518.487 197.78 519.571 197.922 521.193 Z M 196.857 521.286 C 196.752 520.08 196.053 519.456 195.171 519.533 C 194.32 519.608 193.71 520.346 193.816 521.552 C 193.919 522.738 194.639 523.37 195.501 523.295 C 196.383 523.217 196.963 522.492 196.857 521.286 Z M 201.211 523.714 C 199.66 523.85 198.517 522.816 198.369 521.123 C 198.23 519.531 199.213 518.271 200.693 518.141 C 202.295 518.001 203.473 519.205 203.443 520.965 L 199.438 521.316 C 199.615 522.403 200.218 522.994 201.121 522.915 C 201.881 522.849 202.372 522.387 202.483 521.672 L 203.497 521.584 C 203.338 522.803 202.478 523.603 201.211 523.714 Z M 200.74 518.913 C 199.919 518.985 199.413 519.622 199.389 520.635 L 202.299 520.381 C 202.161 519.392 201.571 518.841 200.74 518.913 Z M 206.571 523.256 C 205.101 523.384 203.966 522.319 203.822 520.677 C 203.68 519.054 204.633 517.796 206.082 517.67 C 207.41 517.553 208.451 518.351 208.766 519.733 L 207.691 519.827 C 207.504 518.975 206.922 518.505 206.171 518.571 C 205.289 518.648 204.777 519.449 204.877 520.584 C 204.977 521.73 205.619 522.419 206.501 522.342 C 207.262 522.276 207.745 521.723 207.79 520.84 L 208.854 520.747 C 208.796 522.182 207.919 523.138 206.571 523.256 Z M 210.541 516.125 C 210.575 516.51 210.296 516.831 209.86 516.869 C 209.424 516.907 209.084 516.641 209.051 516.255 C 209.016 515.86 209.305 515.549 209.741 515.511 C 210.177 515.472 210.506 515.73 210.541 516.125 Z M 210.897 522.765 L 209.873 522.854 L 209.403 517.481 L 210.427 517.392 L 210.897 522.765 Z M 215.37 522.373 L 215.297 521.542 C 215.015 522.17 214.446 522.556 213.655 522.626 C 212.54 522.723 211.754 522.148 211.668 521.165 C 211.576 520.111 212.37 519.489 213.972 519.349 C 214.286 519.322 214.54 519.31 214.981 519.322 L 214.946 518.927 C 214.879 518.156 214.425 517.757 213.715 517.819 C 212.965 517.885 212.548 518.371 212.583 519.124 L 211.65 519.205 C 211.595 517.994 212.387 517.118 213.644 517.008 C 214.972 516.892 215.808 517.575 215.92 518.852 L 216.222 522.299 L 215.37 522.373 Z M 212.639 521.049 C 212.688 521.607 213.135 521.936 213.794 521.878 C 214.656 521.803 215.146 521.218 215.075 520.397 L 215.036 519.961 C 214.637 519.945 214.352 519.96 214.088 519.983 C 213.064 520.072 212.584 520.421 212.639 521.049 Z M 218.422 522.106 L 217.388 522.197 L 216.751 514.918 L 217.785 514.827 L 218.422 522.106 Z M 220.308 515.271 C 220.342 515.656 220.064 515.976 219.628 516.015 C 219.192 516.053 218.852 515.786 218.818 515.401 C 218.783 515.006 219.073 514.694 219.509 514.656 C 219.945 514.618 220.274 514.875 220.308 515.271 Z M 220.664 521.91 L 219.641 522 L 219.17 516.627 L 220.194 516.537 L 220.664 521.91 Z M 225.949 521.448 L 221.518 521.836 L 221.448 521.035 L 224.177 517.077 L 221.176 517.34 L 221.099 516.458 L 225.377 516.084 L 225.449 516.905 L 222.718 520.832 L 225.87 520.556 L 225.949 521.448 Z M 228.879 521.294 C 227.328 521.429 226.186 520.395 226.037 518.702 C 225.898 517.111 226.881 515.85 228.361 515.72 C 229.963 515.58 231.141 516.785 231.111 518.545 L 227.106 518.895 C 227.283 519.983 227.887 520.573 228.789 520.495 C 229.549 520.428 230.04 519.966 230.151 519.252 L 231.165 519.163 C 231.006 520.382 230.147 521.183 228.879 521.294 Z M 228.408 516.493 C 227.587 516.565 227.081 517.201 227.057 518.215 L 229.967 517.96 C 229.829 516.971 229.24 516.42 228.408 516.493 Z M 231.49 518.256 C 231.348 516.624 232.179 515.386 233.629 515.26 C 234.349 515.197 235.009 515.507 235.442 516.133 L 235.195 513.304 L 236.219 513.215 L 236.855 520.494 L 235.902 520.577 L 235.818 519.614 C 235.492 520.327 234.877 520.769 234.117 520.835 C 232.667 520.962 231.631 519.868 231.49 518.256 Z M 232.555 518.163 C 232.66 519.359 233.348 519.983 234.24 519.905 C 235.112 519.829 235.698 519.063 235.595 517.876 C 235.489 516.67 234.762 516.07 233.911 516.144 C 233.019 516.222 232.449 516.946 232.555 518.163 Z M 244.887 517.084 C 245.029 518.706 244.198 519.953 242.758 520.079 C 242.028 520.143 241.378 519.832 240.936 519.217 L 241.187 522.086 L 240.163 522.176 L 239.522 514.846 L 240.475 514.763 L 240.561 515.746 C 240.886 515.023 241.51 514.57 242.271 514.503 C 243.7 514.378 244.745 515.462 244.887 517.084 Z M 243.822 517.177 C 243.717 515.971 243.019 515.347 242.137 515.424 C 241.285 515.499 240.675 516.237 240.781 517.443 C 240.885 518.629 241.604 519.261 242.466 519.186 C 243.348 519.108 243.928 518.383 243.822 517.177 Z M 249.12 517.194 L 248.843 514.031 L 249.867 513.941 L 250.337 519.314 L 249.384 519.398 L 249.309 518.546 C 249.074 519.128 248.48 519.579 247.75 519.643 C 246.666 519.738 245.859 519.165 245.739 517.786 L 245.436 514.329 L 246.46 514.239 L 246.745 517.493 C 246.827 518.426 247.327 518.771 247.996 518.712 C 248.685 518.652 249.193 518.035 249.12 517.194 Z M 252.34 516.371 L 252.58 519.118 L 251.556 519.208 L 251.086 513.834 L 252.039 513.751 L 252.138 514.886 C 252.449 514.114 253.219 513.576 254.101 513.499 L 254.194 514.564 C 253.033 514.604 252.236 515.184 252.34 516.371 Z M 257.294 518.818 C 255.824 518.947 254.688 517.881 254.545 516.239 C 254.403 514.617 255.355 513.359 256.805 513.232 C 258.133 513.116 259.173 513.913 259.488 515.296 L 258.414 515.39 C 258.227 514.538 257.644 514.068 256.894 514.133 C 256.012 514.21 255.5 515.011 255.599 516.147 C 255.699 517.292 256.342 517.982 257.224 517.905 C 257.984 517.838 258.467 517.285 258.513 516.403 L 259.577 516.309 C 259.519 517.745 258.642 518.7 257.294 518.818 Z M 261.354 515.296 L 261.62 518.327 L 260.596 518.417 L 259.959 511.138 L 260.983 511.048 L 261.225 513.816 C 261.529 513.207 262.043 512.774 262.783 512.709 C 263.888 512.612 264.68 513.258 264.793 514.546 L 265.097 518.023 L 264.073 518.112 L 263.799 514.98 C 263.718 514.057 263.267 513.576 262.507 513.642 C 261.808 513.703 261.271 514.343 261.354 515.296 Z M 269.508 517.637 L 269.436 516.806 C 269.153 517.433 268.584 517.82 267.794 517.889 C 266.678 517.987 265.893 517.412 265.807 516.428 C 265.714 515.374 266.508 514.753 268.11 514.613 C 268.424 514.585 268.678 514.573 269.119 514.586 L 269.084 514.191 C 269.017 513.42 268.563 513.02 267.853 513.083 C 267.103 513.148 266.686 513.634 266.721 514.387 L 265.788 514.469 C 265.734 513.258 266.525 512.381 267.782 512.271 C 269.11 512.155 269.947 512.838 270.058 514.115 L 270.36 517.562 L 269.508 517.637 Z M 266.777 516.313 C 266.826 516.87 267.274 517.199 267.933 517.141 C 268.794 517.066 269.285 516.482 269.213 515.661 L 269.175 515.225 C 268.775 515.208 268.49 515.223 268.226 515.246 C 267.203 515.336 266.722 515.684 266.777 516.313 Z M 275.644 515.486 C 275.736 516.54 274.972 517.261 273.542 517.386 C 272.123 517.51 271.22 516.884 271.018 515.738 L 272.001 515.652 C 272.1 516.317 272.674 516.686 273.495 516.614 C 274.215 516.551 274.669 516.256 274.625 515.749 C 274.586 515.303 274.295 515.134 273.615 515.061 L 272.729 514.975 C 271.718 514.869 271.116 514.411 271.045 513.6 C 270.963 512.657 271.726 511.926 272.973 511.817 C 274.261 511.705 275.193 512.318 275.381 513.415 L 274.398 513.501 C 274.28 512.857 273.771 512.524 273.051 512.587 C 272.402 512.644 271.99 512.956 272.031 513.422 C 272.069 513.858 272.361 514.037 273.02 514.102 L 273.948 514.194 C 275.029 514.294 275.577 514.716 275.644 515.486 Z M 278.918 516.916 C 277.367 517.052 276.225 516.018 276.076 514.325 C 275.937 512.733 276.92 511.472 278.4 511.343 C 280.002 511.202 281.18 512.407 281.15 514.167 L 277.145 514.517 C 277.322 515.605 277.926 516.196 278.828 516.117 C 279.588 516.05 280.079 515.588 280.19 514.874 L 281.204 514.785 C 281.045 516.004 280.186 516.805 278.918 516.916 Z M 278.447 512.115 C 277.626 512.187 277.12 512.823 277.096 513.837 L 280.006 513.582 C 279.868 512.593 279.279 512.042 278.447 512.115 Z M 286.367 514.548 C 286.459 515.602 285.694 516.323 284.265 516.448 C 282.846 516.572 281.943 515.946 281.741 514.799 L 282.724 514.713 C 282.823 515.379 283.397 515.748 284.218 515.676 C 284.938 515.613 285.392 515.318 285.348 514.811 C 285.309 514.365 285.018 514.196 284.337 514.123 L 283.451 514.037 C 282.441 513.931 281.839 513.473 281.768 512.662 C 281.686 511.719 282.449 510.988 283.696 510.879 C 284.984 510.767 285.916 511.38 286.104 512.477 L 285.12 512.563 C 285.003 511.919 284.493 511.586 283.774 511.649 C 283.125 511.706 282.713 512.017 282.754 512.484 C 282.792 512.92 283.083 513.099 283.743 513.163 L 284.67 513.256 C 285.752 513.355 286.299 513.777 286.367 514.548 Z M 288.747 515.218 C 288.787 515.674 288.501 516.026 288.035 516.067 C 287.578 516.107 287.226 515.811 287.186 515.355 C 287.144 514.878 287.44 514.526 287.896 514.486 C 288.363 514.445 288.705 514.742 288.747 515.218 Z" stroke-linecap="round"/>
</g>
		<g transform="matrix(0.9962 -0.0872 0.0872 0.9962 19.9683 230.1069)" clip-path="url(#CLIPPATH_10)">
<clipPath id="CLIPPATH_10">
	<rect transform="matrix(1 0 0 1 -0.0024 -231.0588)" id="clip0_1842_42834" x="-155.56" y="-336.562" rx="29.0766" ry="29.0766" width="311.12" height="673.124"/>
</clipPath>
<rect style="stroke: none; stroke-width: 1; stroke-dasharray: none; stroke-linecap: butt; stroke-dashoffset: 0; stroke-linejoin: miter; stroke-miterlimit: 4; is-custom-font: none; font-file-url: none; fill: rgb(251,94,19); fill-rule: nonzero; opacity: 1;" x="-138.841" y="-22.5344" rx="22.5344" ry="22.5344" width="277.682" height="45.0688"/>
</g>
		<g transform="matrix(1 0 0 1 20.0963 232.0927)" clip-path="url(#CLIPPATH_11)">
<clipPath id="CLIPPATH_11">
	<rect transform="matrix(0.9962 -0.0872 0.0872 0.9962 -20.2685 -232.1651)" id="clip0_1842_42834" x="-155.56" y="-336.562" rx="29.0766" ry="29.0766" width="311.12" height="673.124"/>
</clipPath>
<path style="stroke: none; stroke-width: 1; stroke-dasharray: none; stroke-linecap: butt; stroke-dashoffset: 0; stroke-linejoin: miter; stroke-miterlimit: 4; is-custom-font: none; font-file-url: none; fill: rgb(255,255,255); fill-rule: nonzero; opacity: 1;" transform=" translate(-205.0963, -581.0927)" d="M 191.595 582.05 C 191.745 583.765 190.476 585.009 188.31 585.198 C 186.143 585.388 184.652 584.362 184.34 582.533 L 186.553 582.34 C 186.646 583.126 187.211 583.578 188.114 583.499 C 188.867 583.433 189.34 583.1 189.295 582.579 C 189.263 582.219 188.881 581.984 188.386 581.934 L 186.843 581.777 C 185.488 581.639 184.54 580.94 184.422 579.596 C 184.286 578.043 185.558 576.834 187.423 576.671 C 189.405 576.498 190.929 577.509 191.214 579.293 L 189.001 579.487 C 188.877 578.739 188.325 578.297 187.595 578.361 C 186.946 578.418 186.582 578.8 186.622 579.251 C 186.654 579.622 187.044 579.81 187.492 579.853 L 189.13 580.024 C 190.638 580.184 191.49 580.845 191.595 582.05 Z M 194.369 576.811 C 194.426 577.46 193.946 577.98 193.193 578.046 C 192.44 578.112 191.877 577.683 191.82 577.034 C 191.762 576.373 192.242 575.853 192.995 575.787 C 193.749 575.721 194.311 576.15 194.369 576.811 Z M 194.775 584.516 L 192.794 584.689 L 192.248 578.456 L 194.229 578.282 L 194.775 584.516 Z M 199.061 586.511 C 197.335 586.662 196.07 585.815 195.874 584.373 L 197.797 584.205 C 197.915 584.755 198.301 585.025 198.915 584.971 C 199.656 584.906 200.004 584.479 199.938 583.726 L 199.875 582.996 C 199.591 583.487 199.024 583.817 198.352 583.876 C 196.834 584.009 195.538 582.803 195.389 581.1 C 195.235 579.339 196.215 577.992 197.744 577.858 C 198.532 577.789 199.12 577.971 199.64 578.451 L 199.585 577.814 L 201.404 577.655 L 201.918 583.529 C 202.065 585.209 200.973 586.344 199.061 586.511 Z M 197.394 580.936 C 197.462 581.712 197.935 582.173 198.607 582.114 C 199.302 582.053 199.72 581.491 199.653 580.727 C 199.585 579.95 199.077 579.481 198.382 579.542 C 197.71 579.601 197.326 580.148 197.394 580.936 Z M 204.943 580.322 L 205.23 583.601 L 203.248 583.774 L 202.703 577.541 L 204.522 577.382 L 204.588 578.135 C 205.027 577.548 205.578 577.173 206.366 577.104 C 207.594 576.996 208.535 577.743 208.668 579.261 L 209.018 583.27 L 207.037 583.443 L 206.744 580.095 C 206.675 579.307 206.36 578.902 205.757 578.955 C 205.271 578.998 204.861 579.384 204.943 580.322 Z M 216.147 579.949 L 215.836 576.392 L 217.817 576.219 L 218.362 582.452 L 216.543 582.611 L 216.485 581.939 C 216.177 582.433 215.545 582.815 214.815 582.879 C 213.576 582.988 212.569 582.294 212.425 580.648 L 212.082 576.72 L 214.063 576.547 L 214.374 580.104 C 214.434 580.788 214.799 581.094 215.356 581.046 C 215.75 581.011 216.209 580.656 216.147 579.949 Z M 225.836 578.658 C 225.994 580.465 225.018 581.987 223.338 582.134 C 222.689 582.19 222.113 582.007 221.586 581.586 L 221.832 584.402 L 219.851 584.575 L 219.11 576.106 L 220.929 575.946 L 220.991 576.653 C 221.454 576.076 222.042 575.732 222.772 575.668 C 224.452 575.521 225.68 576.873 225.836 578.658 Z M 223.774 578.838 C 223.688 577.865 223.056 577.442 222.453 577.494 C 221.839 577.548 221.302 578.074 221.388 579.059 C 221.475 580.055 222.104 580.444 222.707 580.391 C 223.309 580.338 223.861 579.835 223.774 578.838 Z" stroke-linecap="round"/>
</g>
		<g transform="matrix(1 0 0 1 24.923 286.0803)" clip-path="url(#CLIPPATH_12)">
<clipPath id="CLIPPATH_12">
	<rect transform="matrix(0.9962 -0.0872 0.0872 0.9962 -25.0952 -286.1527)" id="clip0_1842_42834" x="-155.56" y="-336.562" rx="29.0766" ry="29.0766" width="311.12" height="673.124"/>
</clipPath>
<path style="stroke: none; stroke-width: 1; stroke-dasharray: none; stroke-linecap: butt; stroke-dashoffset: 0; stroke-linejoin: miter; stroke-miterlimit: 4; is-custom-font: none; font-file-url: none; fill: rgb(203,209,215); fill-rule: nonzero; opacity: 1;" transform=" translate(-209.923, -635.0803)" d="M 199.911 639.573 L 194.222 640.071 L 193.494 631.752 L 195.684 631.561 L 196.239 637.898 L 199.738 637.592 L 199.911 639.573 Z M 203.664 639.362 C 201.822 639.523 200.282 638.198 200.126 636.414 C 199.97 634.63 201.256 633.058 203.099 632.897 C 204.941 632.735 206.481 634.06 206.637 635.844 C 206.793 637.629 205.506 639.201 203.664 639.362 Z M 203.509 637.589 C 204.123 637.535 204.66 636.998 204.575 636.025 C 204.49 635.052 203.869 634.627 203.255 634.681 C 202.641 634.735 202.103 635.26 202.188 636.234 C 202.273 637.207 202.895 637.643 203.509 637.589 Z M 210.692 641 C 208.966 641.151 207.701 640.305 207.505 638.862 L 209.428 638.694 C 209.546 639.244 209.932 639.514 210.546 639.46 C 211.287 639.395 211.635 638.968 211.569 638.215 L 211.505 637.485 C 211.222 637.977 210.655 638.307 209.983 638.365 C 208.465 638.498 207.169 637.292 207.02 635.589 C 206.866 633.828 207.845 632.481 209.375 632.348 C 210.163 632.279 210.751 632.461 211.271 632.94 L 211.215 632.303 L 213.035 632.144 L 213.548 638.018 C 213.695 639.698 212.604 640.833 210.692 641 Z M 209.025 635.425 C 209.093 636.202 209.565 636.662 210.237 636.603 C 210.933 636.543 211.35 635.981 211.284 635.216 C 211.216 634.44 210.708 633.97 210.012 634.031 C 209.34 634.09 208.956 634.637 209.025 635.425 Z M 218.876 630.174 C 218.933 630.822 218.453 631.343 217.7 631.409 C 216.947 631.475 216.384 631.045 216.327 630.397 C 216.269 629.736 216.749 629.216 217.502 629.15 C 218.256 629.084 218.818 629.513 218.876 630.174 Z M 219.282 637.879 L 217.301 638.052 L 216.755 631.819 L 218.736 631.645 L 219.282 637.879 Z M 222.276 634.313 L 222.563 637.592 L 220.582 637.765 L 220.037 631.531 L 221.856 631.372 L 221.921 632.125 C 222.36 631.538 222.911 631.163 223.699 631.094 C 224.927 630.987 225.868 631.733 226.001 633.251 L 226.352 637.26 L 224.371 637.433 L 224.078 634.085 C 224.009 633.297 223.693 632.893 223.091 632.945 C 222.604 632.988 222.194 633.374 222.276 634.313 Z" stroke-linecap="round"/>
</g>
		<g transform="matrix(0.9962 -0.0872 0.0872 0.9962 103.309 -326.4424)" clip-path="url(#CLIPPATH_13)">
<clipPath id="CLIPPATH_13">
	<rect transform="matrix(1 0 0 1 -131.5324 316.109)" id="clip0_1842_42834" x="-155.56" y="-336.562" rx="29.0766" ry="29.0766" width="311.12" height="673.124"/>
</clipPath>
<rect style="stroke: rgb(255,255,255); stroke-width: 0.8642; stroke-dasharray: none; stroke-linecap: butt; stroke-dashoffset: 0; stroke-linejoin: miter; stroke-miterlimit: 4; is-custom-font: none; font-file-url: none; fill: none; fill-rule: nonzero; opacity: 0.35;" x="-9.07435" y="-4.46515" rx="1.87248" ry="1.87248" width="18.1487" height="8.9303"/>
</g>
		<g transform="matrix(1 0 0 1 114.1406 -327.3462)" clip-path="url(#CLIPPATH_14)">
<clipPath id="CLIPPATH_14">
	<rect transform="matrix(0.9962 -0.0872 0.0872 0.9962 -114.3128 327.2738)" id="clip0_1842_42834" x="-155.56" y="-336.562" rx="29.0766" ry="29.0766" width="311.12" height="673.124"/>
</clipPath>
<path style="stroke: none; stroke-width: 1; stroke-dasharray: none; stroke-linecap: butt; stroke-dashoffset: 0; stroke-linejoin: miter; stroke-miterlimit: 4; is-custom-font: none; font-file-url: none; fill: rgb(255,255,255); fill-rule: nonzero; opacity: 0.4;" transform=" translate(-299.1406, -21.6537)" d="M 298.49 19.9319 L 298.791 23.3756 C 299.458 23.0233 299.85 22.3054 299.784 21.5537 C 299.718 20.802 299.208 20.1629 298.49 19.9319 Z" stroke-linecap="round"/>
</g>
		<g transform="matrix(0.9962 -0.0872 0.0872 0.9962 103.3086 -326.4424)" clip-path="url(#CLIPPATH_15)">
<clipPath id="CLIPPATH_15">
	<rect transform="matrix(1 0 0 1 -131.532 316.1091)" id="clip0_1842_42834" x="-155.56" y="-336.562" rx="29.0766" ry="29.0766" width="311.12" height="673.124"/>
</clipPath>
<rect style="stroke: none; stroke-width: 1; stroke-dasharray: none; stroke-linecap: butt; stroke-dashoffset: 0; stroke-linejoin: miter; stroke-miterlimit: 4; is-custom-font: none; font-file-url: none; fill: rgb(255,255,255); fill-rule: nonzero; opacity: 1;" x="-7.778" y="-3.1688" rx="1.1523" ry="1.1523" width="15.556" height="6.3376"/>
</g>
		<g transform="matrix(1 0 0 1 82.7527 -324.8207)" clip-path="url(#CLIPPATH_16)">
<clipPath id="CLIPPATH_16">
	<rect transform="matrix(0.9962 -0.0872 0.0872 0.9962 -82.9248 324.7483)" id="clip0_1842_42834" x="-155.56" y="-336.562" rx="29.0766" ry="29.0766" width="311.12" height="673.124"/>
</clipPath>
<path style="stroke: none; stroke-width: 1; stroke-dasharray: none; stroke-linecap: butt; stroke-dashoffset: 0; stroke-linejoin: miter; stroke-miterlimit: 4; is-custom-font: none; font-file-url: none; fill: rgb(255,255,255); fill-rule: evenodd; opacity: 1;" transform=" translate(-267.7527, -24.1793)" d="M 267.679 21.4286 C 269.594 21.2611 271.5 21.8353 273.004 23.0324 C 273.117 23.1251 273.284 23.1092 273.378 22.9968 L 274.289 21.9018 C 274.337 21.8448 274.36 21.7712 274.353 21.6973 C 274.346 21.6235 274.31 21.5554 274.253 21.5082 C 270.304 18.3382 264.556 18.8411 261.218 22.6486 C 261.17 22.705 261.146 22.7782 261.152 22.8522 C 261.158 22.9262 261.193 22.9947 261.25 23.0426 L 262.337 23.9627 C 262.449 24.0573 262.617 24.0439 262.712 23.9328 C 263.985 22.4927 265.763 21.5962 267.679 21.4286 Z M 267.965 24.7065 C 269.018 24.6144 270.067 24.9164 270.909 25.5539 C 271.023 25.6449 271.189 25.6282 271.283 25.5163 L 272.193 24.4214 C 272.241 24.3639 272.264 24.2897 272.256 24.2152 C 272.249 24.1408 272.212 24.0724 272.154 24.0253 C 269.585 22.0254 265.907 22.3472 263.724 24.7628 C 263.675 24.8193 263.651 24.8931 263.657 24.9677 C 263.662 25.0423 263.698 25.1114 263.755 25.1596 L 264.841 26.0798 C 264.953 26.1737 265.119 26.1614 265.216 26.052 C 265.934 25.2785 266.914 24.799 267.965 24.7065 Z M 270.157 26.7372 C 270.165 26.8117 270.142 26.8863 270.094 26.9433 L 268.519 28.8352 C 268.473 28.8908 268.407 28.9256 268.335 28.9319 C 268.263 28.9382 268.191 28.9154 268.136 28.8687 L 266.257 27.279 C 266.199 27.2313 266.164 27.1618 266.159 27.0869 C 266.154 27.0121 266.18 26.9385 266.231 26.8836 C 267.252 25.8553 268.867 25.7141 270.051 26.5494 C 270.111 26.5946 270.149 26.6626 270.157 26.7372 Z" stroke-linecap="round"/>
</g>
		<g transform="matrix(1 0 0 1 64.936 -323.3524)" clip-path="url(#CLIPPATH_17)">
<clipPath id="CLIPPATH_17">
	<rect transform="matrix(0.9962 -0.0872 0.0872 0.9962 -65.1082 323.28)" id="clip0_1842_42834" x="-155.56" y="-336.562" rx="29.0766" ry="29.0766" width="311.12" height="673.124"/>
</clipPath>
<path style="stroke: none; stroke-width: 1; stroke-dasharray: none; stroke-linecap: butt; stroke-dashoffset: 0; stroke-linejoin: miter; stroke-miterlimit: 4; is-custom-font: none; font-file-url: none; fill: rgb(255,255,255); fill-rule: evenodd; opacity: 1;" transform=" translate(-249.936, -25.6476)" d="M 255.74 20.491 L 254.879 20.5663 C 254.404 20.6079 254.052 21.0271 254.094 21.5026 L 254.747 28.964 C 254.788 29.4395 255.207 29.7912 255.683 29.7496 L 256.544 29.6743 C 257.019 29.6327 257.371 29.2135 257.329 28.738 L 256.677 21.2766 C 256.635 20.8011 256.216 20.4494 255.74 20.491 Z M 251.037 22.9267 L 251.898 22.8514 C 252.374 22.8098 252.793 23.1615 252.834 23.637 L 253.311 29.0896 C 253.353 29.565 253.001 29.9842 252.526 30.0258 L 251.665 30.1011 C 251.189 30.1427 250.77 29.791 250.729 29.3155 L 250.252 23.863 C 250.21 23.3875 250.562 22.9683 251.037 22.9267 Z M 248.056 25.2117 L 247.195 25.2871 C 246.72 25.3287 246.368 25.7478 246.41 26.2233 L 246.711 29.6671 C 246.753 30.1425 247.172 30.4943 247.647 30.4527 L 248.508 30.3773 C 248.984 30.3357 249.336 29.9166 249.294 29.4411 L 248.993 25.9974 C 248.951 25.5219 248.532 25.1701 248.056 25.2117 Z M 244.189 27.2852 L 243.328 27.3605 C 242.853 27.4021 242.501 27.8213 242.543 28.2967 L 242.693 30.0186 C 242.735 30.4941 243.154 30.8458 243.63 30.8042 L 244.491 30.7289 C 244.966 30.6873 245.318 30.2681 245.276 29.7926 L 245.126 28.0708 C 245.084 27.5953 244.665 27.2436 244.189 27.2852 Z" stroke-linecap="round"/>
</g>
		<g transform="matrix(1 0 0 1 -125.8464 -298.6304)" clip-path="url(#CLIPPATH_18)">
<clipPath id="CLIPPATH_18">
	<rect transform="matrix(0.9962 -0.0872 0.0872 0.9962 125.6742 298.558)" id="clip0_1842_42834" x="-155.56" y="-336.562" rx="29.0766" ry="29.0766" width="311.12" height="673.124"/>
</clipPath>
<path style="stroke: none; stroke-width: 1; stroke-dasharray: none; stroke-linecap: butt; stroke-dashoffset: 0; stroke-linejoin: miter; stroke-miterlimit: 4; is-custom-font: none; font-file-url: none; fill: rgb(255,255,255); fill-rule: nonzero; opacity: 1;" transform=" translate(-59.1536, -50.3696)" d="M 46.0624 44.9129 C 48.7342 44.6791 51.2252 46.3755 51.6198 50.8862 L 51.6213 50.9036 C 51.9902 55.1194 50.309 57.7839 47.1602 58.0594 C 44.8614 58.2605 43.0247 57.0489 42.458 55.1667 L 42.4323 55.0728 L 44.6356 54.88 L 44.6692 54.9645 C 45.0755 55.8118 45.8976 56.3168 46.9993 56.2204 C 48.9857 56.0466 49.6572 54.0299 49.5431 51.6273 C 49.5348 51.5319 49.5351 51.4357 49.5268 51.3403 L 49.3533 51.3555 C 48.98 52.3846 47.9637 53.3564 46.2461 53.5066 C 43.8433 53.7169 42.0071 52.1118 41.7992 49.735 L 41.7977 49.7177 C 41.5753 47.176 43.3473 45.1504 46.0624 44.9129 Z M 46.651 51.7405 C 48.065 51.6168 49.0598 50.4984 48.9361 49.0844 L 48.9345 49.0671 C 48.8093 47.6358 47.6271 46.6116 46.2392 46.733 C 44.8599 46.8537 43.8546 48.0517 43.9768 49.4483 L 43.9783 49.4657 C 44.1051 50.9143 45.2284 51.865 46.651 51.7405 Z M 55.1258 48.875 C 54.3365 48.9441 53.6935 48.3885 53.6267 47.6251 C 53.5591 46.8531 54.0966 46.2029 54.886 46.1339 C 55.6841 46.064 56.3176 46.6117 56.3852 47.3838 C 56.452 48.1471 55.9239 48.8052 55.1258 48.875 Z M 55.689 55.3115 C 54.8996 55.3806 54.2573 54.8337 54.1898 54.0616 C 54.1223 53.2896 54.6598 52.6394 55.4491 52.5704 C 56.2472 52.5006 56.8808 53.0483 56.9483 53.8203 C 57.0158 54.5923 56.487 55.2417 55.689 55.3115 Z M 65.5616 56.1348 L 65.3514 53.7319 L 59.2272 54.2677 L 59.067 52.4374 C 60.4425 49.4763 61.9688 46.4407 63.4429 43.707 L 66.6091 43.43 L 67.3324 51.6968 L 69.0152 51.5496 L 69.1769 53.3973 L 67.494 53.5445 L 67.7042 55.9473 L 65.5616 56.1348 Z M 61.152 52.29 L 65.229 51.9333 L 64.6575 45.4013 L 64.5274 45.4127 C 63.4151 47.4855 62.1691 49.9283 61.1406 52.1599 L 61.152 52.29 Z M 74.2902 55.3711 L 73.3879 45.0571 L 73.2404 45.07 L 70.319 47.5458 L 70.1346 45.4379 L 73.2038 42.853 L 75.4331 42.658 L 76.5283 55.1753 L 74.2902 55.3711 Z" stroke-linecap="round"/>
</g>
</g>
</g>
</svg>