<svg width="40" height="40" viewBox="0 0 40 40" fill="none" xmlns="http://www.w3.org/2000/svg">
<path d="M29.4333 37.7826C28.55 37.7826 27.4167 37.4992 26 36.6659L21.0167 33.7159C20.5 33.4159 19.5 33.4159 19 33.7159L14 36.6659C11.05 38.4159 9.31666 37.7159 8.53333 37.1492C7.76666 36.5826 6.56666 35.1326 7.34999 31.7992L8.53333 26.6826C8.66666 26.1492 8.39999 25.2326 7.99999 24.8326L3.86666 20.6992C1.79999 18.6326 1.96666 16.8659 2.24999 15.9992C2.53333 15.1326 3.43333 13.5992 6.29999 13.1159L11.6167 12.2326C12.1167 12.1492 12.8333 11.6159 13.05 11.1659L16 5.28255C17.3333 2.59922 19.0833 2.19922 20 2.19922C20.9167 2.19922 22.6667 2.59922 24 5.28255L26.9333 11.1492C27.1667 11.5992 27.8833 12.1326 28.3833 12.2159L33.7 13.0992C36.5833 13.5826 37.4833 15.1159 37.75 15.9826C38.0167 16.8492 38.1833 18.6159 36.1333 20.6826L32 24.8326C31.6 25.2326 31.35 26.1326 31.4667 26.6826L32.65 31.7992C33.4167 35.1326 32.2333 36.5826 31.4667 37.1492C31.05 37.4492 30.3833 37.7826 29.4333 37.7826ZM20 30.9826C20.8167 30.9826 21.6333 31.1826 22.2833 31.5659L27.2667 34.5159C28.7167 35.3825 29.6333 35.3826 29.9833 35.1326C30.3333 34.8826 30.5833 33.9992 30.2167 32.3659L29.0333 27.2492C28.7167 25.8659 29.2333 24.0826 30.2333 23.0659L34.3667 18.9326C35.1833 18.1159 35.55 17.3159 35.3833 16.7659C35.2 16.2159 34.4333 15.7659 33.3 15.5826L27.9833 14.6992C26.7 14.4826 25.3 13.4492 24.7167 12.2826L21.7833 6.41588C21.25 5.34922 20.5833 4.71589 20 4.71589C19.4167 4.71589 18.75 5.34922 18.2333 6.41588L15.2833 12.2826C14.7 13.4492 13.3 14.4826 12.0167 14.6992L6.71666 15.5826C5.58333 15.7659 4.81666 16.2159 4.63333 16.7659C4.44999 17.3159 4.83333 18.1326 5.64999 18.9326L9.78333 23.0659C10.7833 24.0659 11.3 25.8659 10.9833 27.2492L9.79999 32.3659C9.41666 34.0159 9.68333 34.8826 10.0333 35.1326C10.3833 35.3826 11.2833 35.3659 12.75 34.5159L17.7333 31.5659C18.3667 31.1826 19.1833 30.9826 20 30.9826Z" fill="#132D46"/>
</svg>
