<svg width="86" height="48" viewBox="0 0 86 48" fill="none" xmlns="http://www.w3.org/2000/svg">
<rect x="59.1492" y="0.339844" width="26.8505" height="12.7035" rx="6.35174" fill="#132D46"/>
<rect x="86" y="0.339844" width="26.8505" height="12.7035" rx="6.35174" transform="rotate(90 86 0.339844)" fill="#01C38E"/>
<rect x="86" y="0.339844" width="12.7035" height="12.7035" transform="rotate(90 86 0.339844)" fill="#099972"/>
<path d="M2.51891 23.4787H0V17.5275H2.51891V12.5625H9.71086V17.5275H13.4342V23.4787H9.71086V30.3413C9.71086 31.4366 10.1857 31.9114 11.3901 31.9114H13.4715V38.0081H10.3685C5.84196 38.0081 2.5198 36.1096 2.5198 30.2322V23.4787H2.51891Z" fill="#132D46"/>
<path d="M22.4868 17.1396C25.4078 17.1396 27.4518 18.4168 28.5107 20.2425V17.3952H35.6663V37.8749H28.5107V35.0276C27.4518 36.8524 25.3714 38.1305 22.4868 38.1305C17.6318 38.1305 13.762 34.1515 13.762 27.6164C13.762 21.0812 17.6318 17.1387 22.4868 17.1387V17.1396ZM24.7865 23.3818C22.7424 23.3818 21.0623 24.8419 21.0623 27.6164C21.0623 30.3909 22.7415 31.8874 24.7865 31.8874C26.8314 31.8874 28.5098 30.3909 28.5098 27.6164C28.5098 24.8419 26.7941 23.3818 24.7865 23.3818Z" fill="#132D46"/>
<path d="M45.0856 17.3954V39.8837C45.0856 45.7248 41.7998 47.6597 37.2732 47.6597H34.6815V41.563H36.2143C37.456 41.563 37.93 41.0881 37.93 39.9929V17.3954H45.0856ZM37.3096 11.8464C37.3096 9.76504 38.9525 8.12305 41.5078 8.12305C44.0631 8.12305 45.6696 9.76593 45.6696 11.8464C45.6696 13.9268 44.0267 15.4969 41.5078 15.4969C38.9889 15.4969 37.3096 13.8904 37.3096 11.8464Z" fill="#132D46"/>
<path d="M54.8702 17.1396C57.7911 17.1396 59.8352 18.4168 60.8941 20.2425V17.3952H68.0496V37.8749H60.8941V35.0276C59.8352 36.8524 57.7547 38.1305 54.8702 38.1305C50.0152 38.1305 46.1454 34.1515 46.1454 27.6164C46.1454 21.0812 50.0152 17.1387 54.8702 17.1387V17.1396ZM57.1698 23.3818C55.1258 23.3818 53.4456 24.8419 53.4456 27.6164C53.4456 30.3909 55.1249 31.8874 57.1698 31.8874C59.2148 31.8874 60.8932 30.3909 60.8932 27.6164C60.8932 24.8419 59.1775 23.3818 57.1698 23.3818Z" fill="#132D46"/>
</svg>
