<svg width="41" height="51" viewBox="0 0 41 51" fill="none" xmlns="http://www.w3.org/2000/svg">
<path d="M33.9842 26.9978C33.9285 20.7811 39.0544 17.7567 39.2888 17.6159C36.3858 13.3666 31.8862 12.786 30.305 12.7397C26.5259 12.3405 22.8602 15.01 20.9351 15.01C18.9715 15.01 16.007 12.7783 12.812 12.8439C8.70048 12.9076 4.85412 15.2974 2.74458 19.0085C-1.60899 26.5754 1.63794 37.6952 5.80899 43.8116C7.89547 46.8071 10.3335 50.1517 13.5248 50.034C16.6468 49.9048 17.813 48.0358 21.5806 48.0358C25.3136 48.0358 26.4087 50.034 29.6633 49.9588C33.014 49.9048 35.1235 46.9498 37.137 43.9273C39.5482 40.494 40.5165 37.1127 40.5549 36.9391C40.4762 36.9121 34.0476 34.4489 33.9842 26.9978Z" fill="white"/>
<path d="M27.8362 8.71617C29.5154 6.60793 30.6643 3.73973 30.3454 0.829102C27.915 0.937117 24.8756 2.51684 23.1253 4.57878C21.5768 6.39576 20.1934 9.3739 20.5508 12.1746C23.2809 12.3791 26.084 10.7916 27.8362 8.71617Z" fill="white"/>
</svg>
