<svg width="56" height="56" viewBox="0 0 56 56" fill="none" xmlns="http://www.w3.org/2000/svg">
<g opacity="0.44">
<path d="M34.8964 24.1561H35.7883H35.7986L35.7986 24.1563C35.9849 24.1627 36.1649 24.2251 36.3151 24.3355C36.4654 24.4458 36.5788 24.599 36.6406 24.7748L36.6576 24.8231V24.8743C36.6576 25.0408 36.6515 25.2045 36.6425 25.3653L39.5189 37.5197C39.6257 37.9709 39.629 38.4405 39.5285 38.8931C39.428 39.3458 39.2264 39.7699 38.9387 40.1335C38.6511 40.4972 38.2848 40.7911 37.8675 40.9931C37.4501 41.1951 36.9924 41.3 36.5288 41.3H18.7727C18.309 41.3 17.8514 41.1951 17.434 40.9931C17.0166 40.7911 16.6504 40.4972 16.3628 40.1335C16.0751 39.7699 15.8735 39.3458 15.773 38.8931C15.6725 38.4405 15.6758 37.9709 15.7826 37.5197L18.659 25.3653C18.65 25.2045 18.6439 25.0408 18.6439 24.8743M34.8964 24.1561L18.9439 24.8743M34.8964 24.1561V20.9457C34.8964 19.024 34.133 17.181 32.7742 15.8222C31.4154 14.4634 29.5724 13.7 27.6507 13.7C25.7291 13.7 23.8861 14.4634 22.5273 15.8222C21.1684 17.181 20.4051 19.024 20.4051 20.9457V24.1561M34.8964 24.1561H20.4051M18.6439 24.8743H18.9439M18.6439 24.8743C18.6439 24.8746 18.6439 24.8749 18.6439 24.8753L18.9439 24.8743M18.6439 24.8743C18.6437 24.7691 18.6666 24.6651 18.7111 24.5697C18.7558 24.4741 18.821 24.3895 18.9021 24.322C18.9833 24.2544 19.0783 24.2057 19.1805 24.1791C19.2645 24.1573 19.3517 24.151 19.4377 24.1603M18.9439 24.8743C18.9437 24.8129 18.957 24.7522 18.983 24.6966C19.009 24.641 19.0469 24.5918 19.094 24.5525C19.1412 24.5133 19.1965 24.4849 19.2559 24.4695C19.3153 24.4541 19.3774 24.4519 19.4377 24.4633M19.4377 24.1603C19.4192 24.1623 19.4007 24.165 19.3824 24.1684L19.4377 24.4633M19.4377 24.1603C19.4624 24.1576 19.4871 24.1562 19.5119 24.1561L19.5132 24.1561L20.4051 24.1561M19.4377 24.1603C19.4563 24.1623 19.4747 24.165 19.4931 24.1685L19.4377 24.4633M19.4377 24.4633C19.4626 24.4586 19.4878 24.4562 19.5132 24.4561L20.4051 24.1561M37.8127 39.2418L37.8117 39.243C37.6591 39.437 37.4644 39.5937 37.2422 39.7012C37.0201 39.8088 36.7764 39.8643 36.5296 39.8636H36.5288H18.7727C18.5258 39.8636 18.2821 39.8077 18.0598 39.7002C17.8375 39.5926 17.6425 39.4361 17.4893 39.2424C17.3361 39.0488 17.2287 38.8229 17.1752 38.5819C17.1217 38.3408 17.1234 38.0907 17.1803 37.8504L19.3985 28.4772C19.8366 29.4756 20.4527 30.3892 21.2195 31.172C22.1724 32.145 23.3321 32.8895 24.6115 33.3511C24.6733 33.9412 25.0226 34.4465 25.5235 34.8053C26.076 35.2011 26.8265 35.4319 27.6507 35.4319C28.475 35.4319 29.2255 35.2011 29.778 34.8053C30.2789 34.4465 30.6282 33.9412 30.69 33.3511C31.9693 32.8895 33.129 32.145 34.082 31.172C34.8487 30.3892 35.4649 29.4756 35.903 28.4772L38.1212 37.8504L38.1214 37.8512C38.1788 38.0912 38.1809 38.3412 38.1275 38.5821C38.074 38.823 37.9664 39.0486 37.8127 39.2418ZM21.8414 20.9457C21.8414 19.405 22.4535 17.9273 23.5429 16.8379C24.6324 15.7484 26.11 15.1363 27.6508 15.1363C29.1915 15.1363 30.6691 15.7484 31.7586 16.8379C32.8481 17.9273 33.4601 19.405 33.4601 20.9457V24.1561H21.8414L21.8414 20.9457ZM21.6787 29.5193C20.7956 28.384 20.2541 27.022 20.1157 25.5924H35.1858C35.0474 27.022 34.5058 28.384 33.6227 29.5193C32.7537 30.6365 31.5903 31.4872 30.2654 31.977C29.7233 31.3027 28.7435 30.8937 27.6507 30.8937C26.558 30.8937 25.5782 31.3027 25.0361 31.977C23.7112 31.4871 22.5478 30.6365 21.6787 29.5193ZM29.2634 33.1628C29.2634 33.3176 29.1487 33.5203 28.843 33.7013C28.5467 33.8769 28.1227 33.9956 27.6507 33.9956C27.1788 33.9956 26.7548 33.8769 26.4585 33.7013C26.1527 33.5203 26.0381 33.3176 26.0381 33.1628C26.0381 33.008 26.1527 32.8053 26.4585 32.6242C26.7548 32.4487 27.1788 32.33 27.6507 32.33C28.1227 32.33 28.5467 32.4487 28.843 32.6243C29.1488 32.8054 29.2634 33.008 29.2634 33.1628Z" fill="white" stroke="white" stroke-width="0.6"/>
</g>
</svg>
