<svg width="56" height="56" viewBox="0 0 56 56" fill="none" xmlns="http://www.w3.org/2000/svg">
<g clip-path="url(#clip0_670_8585)">
<path d="M39.6471 25.471L38.8601 24.4C38.3148 23.6579 37.6029 23.0542 36.7817 22.6374C35.9606 22.2205 35.053 22.0022 34.1321 22H22.8831C21.9811 22.0024 21.0917 22.2118 20.2835 22.6121C19.4752 23.0124 18.7696 23.593 18.2211 24.309L17.4001 25.383C16.7336 26.2623 16.4202 27.3592 16.5216 28.4579C16.6231 29.5566 17.1319 30.5776 17.9481 31.32L25.9381 39.027C26.6399 39.6528 27.5478 39.9979 28.4881 39.996C29.4483 39.9941 30.3741 39.638 31.0881 38.996L39.0241 31.363C39.845 30.6361 40.3642 29.6283 40.4795 28.5379C40.5948 27.4476 40.2978 26.3535 39.6471 25.471ZM37.2471 25.578L38.0341 26.652C38.1132 26.7619 38.1828 26.8783 38.2421 27H33.4511C33.3787 26.5211 33.254 26.0516 33.0791 25.6L32.4391 24H34.1321C34.7386 24.0011 35.3363 24.1445 35.8773 24.4186C36.4183 24.6926 36.8874 25.0897 37.2471 25.578ZM28.4901 36.088L25.7211 29.818C25.621 29.5528 25.5453 29.279 25.4951 29H31.4471C31.4052 29.2199 31.3463 29.4362 31.2711 29.647L28.4901 36.088ZM25.6001 27C25.6419 26.8207 25.6944 26.6441 25.7571 26.471L26.7411 24H30.2851L31.2221 26.343C31.3044 26.5569 31.3712 26.7765 31.4221 27H25.6001ZM19.8111 25.521C20.1727 25.0493 20.6377 24.667 21.1702 24.4033C21.7028 24.1396 22.2888 24.0016 22.8831 24H24.5831L23.9001 25.729C23.7353 26.1392 23.6124 26.5651 23.5331 27H18.7451C18.8137 26.8587 18.8965 26.7246 18.9921 26.6L19.8111 25.521ZM19.3111 29.854C19.0502 29.6174 18.8453 29.3257 18.7111 29H23.4831C23.5494 29.5388 23.6793 30.0678 23.8701 30.576L26.6971 36.976L19.3111 29.854ZM30.2711 37.014L33.1251 30.4C33.2908 29.9474 33.4061 29.4779 33.4691 29H38.3001C38.1586 29.3433 37.9423 29.6507 37.6671 29.9L30.2711 37.014Z" fill="#FDA378"/>
<path d="M28.5 20C28.7652 20 29.0196 19.8946 29.2071 19.7071C29.3947 19.5196 29.5 19.2652 29.5 19V17C29.5 16.7348 29.3947 16.4804 29.2071 16.2929C29.0196 16.1053 28.7652 16 28.5 16C28.2348 16 27.9804 16.1053 27.7929 16.2929C27.6054 16.4804 27.5 16.7348 27.5 17V19C27.5 19.2652 27.6054 19.5196 27.7929 19.7071C27.9804 19.8946 28.2348 20 28.5 20Z" fill="#FDA378"/>
<path d="M33.0526 19.8999C33.1706 19.9592 33.2993 19.9946 33.4311 20.0039C33.5629 20.0133 33.6953 19.9964 33.8205 19.9543C33.9458 19.9122 34.0615 19.8456 34.1608 19.7585C34.2602 19.6714 34.3414 19.5655 34.3996 19.4469L35.3996 17.4469C35.5181 17.2095 35.5375 16.9348 35.4535 16.6831C35.3695 16.4314 35.1889 16.2234 34.9516 16.1049C34.7142 15.9863 34.4395 15.9669 34.1878 16.0509C33.9361 16.135 33.7281 16.3155 33.6096 16.5529L32.6096 18.5529C32.5498 18.6703 32.5139 18.7984 32.5039 18.9298C32.4938 19.0612 32.5099 19.1933 32.551 19.3185C32.5922 19.4436 32.6577 19.5594 32.7438 19.6592C32.8298 19.759 32.9348 19.8408 33.0526 19.8999Z" fill="#FDA378"/>
<path d="M22.6053 19.4469C22.7239 19.6849 22.9321 19.8661 23.1842 19.9506C23.4364 20.0351 23.7118 20.0159 23.9498 19.8974C24.1878 19.7788 24.369 19.5706 24.4535 19.3184C24.538 19.0663 24.5189 18.7909 24.4003 18.5529L23.4003 16.5529C23.3416 16.4353 23.2603 16.3305 23.1611 16.2444C23.0619 16.1583 22.9467 16.0925 22.8221 16.0509C22.5704 15.9669 22.2957 15.9863 22.0583 16.1049C21.8209 16.2234 21.6404 16.4314 21.5564 16.6831C21.4723 16.9348 21.4917 17.2095 21.6103 17.4469L22.6053 19.4469Z" fill="#FDA378"/>
</g>
<defs>
<clipPath id="clip0_670_8585">
<rect width="24" height="24" fill="white" transform="translate(16.5 16)"/>
</clipPath>
</defs>
</svg>
