<svg width="75" height="22" viewBox="0 0 75 22" fill="none" xmlns="http://www.w3.org/2000/svg">
<g clip-path="url(#clip0_670_8578)">
<path fill-rule="evenodd" clip-rule="evenodd" d="M51.6246 16.041C50.4752 17.217 49.0385 17.7704 47.3862 17.7704C45.6622 17.7704 44.2254 17.217 43.1479 16.041C42.0703 14.9342 41.4956 13.2048 41.4956 11.1987C41.4956 9.26174 42.1422 7.53234 43.2197 6.42552C44.3691 5.24953 45.8058 4.69612 47.4581 4.69612C49.1822 4.69612 50.5471 5.31871 51.6964 6.42552C52.774 7.53234 53.4205 9.26174 53.4205 11.1987C53.3487 13.2048 52.7022 14.9342 51.6246 16.041ZM36.6107 11.1987C36.6107 11.2678 36.6107 11.4062 36.6107 11.4754C34.8867 9.9535 32.4442 9.40009 30.8638 9.12339C28.0622 8.56998 25.9071 8.01657 25.9071 6.14882C25.9071 4.7653 27.2001 3.79683 29.5708 4.00436C31.7977 4.14271 32.7316 5.45706 32.9471 6.70223C32.9471 6.90976 33.0908 7.04811 33.3063 7.04811H37.401C37.401 7.04811 37.4009 7.04811 37.4728 7.04811C36.8981 8.29328 36.6107 9.6768 36.6107 11.1987ZM29.8581 18.2546C27.9185 18.2546 25.8353 17.5629 25.3324 15.0725C25.2606 14.7958 25.1887 14.7266 24.9732 14.7266L21.094 14.6575V8.15492C21.5969 10.0919 23.2491 11.4062 26.9128 12.1671C29.3552 12.7205 33.5218 13.0664 33.5218 15.4876C33.5218 17.0786 32.3005 18.2546 29.8581 18.2546ZM10.6777 17.7704C7.58875 17.7704 4.71528 15.4184 4.71528 11.1987C4.71528 7.87822 6.87038 4.69612 10.6777 4.69612C12.33 4.69612 16.5683 5.24953 16.5683 11.1987C16.5683 17.1478 12.1863 17.7704 10.6777 17.7704ZM58.0181 9.60762C58.8801 10.7144 60.5323 11.5445 63.1185 12.1671C65.5609 12.7205 69.7274 13.0664 69.7274 15.4876C69.7274 17.1478 68.4344 18.3238 65.9919 18.2546C64.0523 18.2546 61.9691 17.5629 61.4662 15.0725C61.3944 14.7958 61.3226 14.7266 61.107 14.7266L57.5152 14.6575C57.8744 13.6198 58.0899 12.4438 58.0899 11.1987C58.0899 10.6453 58.0899 10.161 58.0181 9.60762ZM65.7764 21.5751C70.0148 21.5751 75.1152 20.0532 74.6842 15.0725C74.2531 10.6453 69.5119 9.53845 67.0695 9.12339C64.2679 8.56998 62.1128 8.01657 62.1128 6.14882C62.1128 4.7653 63.4058 3.79683 65.7764 4.00436C68.0034 4.14271 68.9372 5.45706 69.1527 6.70223C69.2246 6.90976 69.2964 7.04811 69.5119 7.04811H73.4629C73.7503 7.04811 73.894 6.90976 73.8221 6.70223C73.1756 2.13661 69.1527 0.822266 65.4891 0.822266C61.8254 0.822266 57.4434 1.79073 57.0842 6.218C57.0842 6.35635 57.0842 6.56388 57.0842 6.70223C56.5095 5.52624 55.6475 4.4886 54.5699 3.52013C52.5585 1.79073 50.116 0.822266 47.3862 0.822266H47.3144C46.0214 0.822266 44.7283 1.02979 43.5071 1.51403C42.2858 1.99826 41.1365 2.69002 40.1307 3.52013C39.125 4.41942 38.263 5.38788 37.6883 6.4947C36.8981 2.06743 32.9471 0.822266 29.3552 0.822266C25.9789 0.822266 21.9561 1.65238 21.094 5.18036V1.65238C21.094 1.44485 20.9504 1.3065 20.7348 1.3065H16.9993C16.7838 1.3065 16.6402 1.44485 16.6402 1.65238V2.62084C16.6402 2.75919 16.4965 2.82837 16.4247 2.75919C15.0598 1.79073 13.0483 0.822266 10.6777 0.822266C9.38466 0.822266 8.0916 1.02979 6.94222 1.51403C5.72099 1.92908 4.64344 2.62084 3.56589 3.52013C2.41651 4.55777 1.48263 5.73376 0.907938 6.97893C0.333245 8.2241 0.0458984 9.6768 0.0458984 11.1987C0.0458984 12.6514 0.333245 13.9657 0.836101 15.2109C1.33896 16.456 2.12916 17.5629 3.20671 18.5313C4.21242 19.569 5.43365 20.3299 6.65487 20.8141C7.87609 21.2984 9.31282 21.5751 10.7496 21.5751C13.2638 21.5751 15.2034 20.5374 16.4247 19.569C16.5683 19.4998 16.6402 19.4998 16.6402 19.7073V20.6758C16.6402 20.8833 16.7838 21.0217 16.9993 21.0217H20.7348C20.9504 21.0217 21.094 20.8833 21.094 20.6758V17.3553C22.8899 21.3675 27.3438 21.5751 29.5708 21.5751C33.2344 21.5751 37.5446 20.4683 38.3348 16.9403C38.694 17.4937 39.1969 18.0471 39.6997 18.5313C41.7112 20.4683 44.3691 21.5059 47.3144 21.5751H47.4581C48.8948 21.5751 50.2597 21.2984 51.4809 20.8141C52.774 20.2607 53.9234 19.4998 54.9291 18.6005C55.6475 17.9087 56.294 17.0786 56.7968 16.2485C58.2336 21.2984 63.334 21.5751 65.7764 21.5751Z" fill="black"/>
</g>
<defs>
<clipPath id="clip0_670_8578">
<rect width="74.7101" height="20.7528" fill="white" transform="translate(0.046875 0.822266)"/>
</clipPath>
</defs>
</svg>
