<svg width="77" height="33" viewBox="0 0 77 33" fill="none" xmlns="http://www.w3.org/2000/svg">
<g clip-path="url(#clip0_670_8556)">
<path fill-rule="evenodd" clip-rule="evenodd" d="M61.181 0.699768L72.3911 31.1844H76.2803V31.4131H63.9835V31.1844H67.5868L63.9263 21.1753H56.3767L56.4339 21.2897C56.7198 22.1476 56.8914 23.12 56.8914 24.0351V27.8099C56.8914 29.7545 57.7493 31.6991 59.3508 31.6991C60.3231 31.6991 61.0666 31.3559 61.9817 30.5552L62.0961 30.6696C61.1238 31.6991 59.9227 32.1567 58.0925 32.1567C56.7198 32.1567 55.576 31.8135 54.6608 31.1844L54.4893 31.07C53.2882 30.1549 52.4875 28.6106 52.1443 26.5516L52.0871 26.2084L52.0299 25.6937V25.5793L49.9709 31.1844H52.8878V31.4131H46.768V31.1844H49.7421L52.0299 25.0074C52.0299 24.6642 51.9727 24.2638 51.9727 23.9207V21.2897C51.9727 17.9725 49.5134 16.085 45.2238 16.085H40.9914V31.2416H44.6518V31.4703H30.4104V31.2416H34.0137L30.3532 21.2325H20.1154L16.455 31.1272H16.6266C21.4309 30.3264 23.6043 26.666 23.6615 22.834H23.8903V31.5275H0.726562L17.9421 1.95804H11.0215C5.30211 1.95804 2.67117 6.36201 2.61398 10.766H2.44239V1.72927H23.3183L23.2039 1.95804L6.10283 31.2416H15.0823C15.3111 31.2416 15.5399 31.2416 15.7687 31.2416C15.9403 31.2416 16.0547 31.2415 16.2262 31.1844H16.2834L27.4363 0.699768H27.6651L36.473 24.7214V1.95804H32.8698V1.72927H45.3382C51.3436 1.72927 55.5188 4.81776 55.5188 9.22173C55.5188 12.4246 52.659 15.1127 48.4267 15.8563L47.6259 15.9707L48.4267 16.0279C51.0004 16.3138 53.0594 17.1145 54.4893 18.3728L60.9522 0.699768H61.181ZM56.2623 20.9466L63.7547 21.0038L58.7216 7.33431L54.6036 18.6016L54.8324 18.8304C55.4616 19.4023 55.9191 20.1458 56.2623 20.9466ZM40.9914 15.8563V1.95804H44.1943C48.4839 1.95804 50.7716 4.4746 50.7716 9.27892C50.7716 14.3692 49.4562 15.9135 45.2238 15.9135C45.2238 15.8563 40.9914 15.8563 40.9914 15.8563ZM25.2629 7.27712L20.2298 20.9466H30.296L25.2629 7.27712Z" fill="black"/>
</g>
<defs>
<clipPath id="clip0_670_8556">
<rect width="75.4965" height="31.4569" fill="white" transform="translate(0.730469 0.699707)"/>
</clipPath>
</defs>
</svg>
