<svg width="56" height="56" viewBox="0 0 56 56" fill="none" xmlns="http://www.w3.org/2000/svg">
<g opacity="0.44">
<path d="M18.484 24.1451H19.754C21.4312 24.1451 22.9724 23.4239 23.8768 22.2158M18.484 24.1451L28.1037 20.2637C26.9231 19.7347 25.4792 20.0751 24.7451 21.0559L23.8768 22.2158M18.484 24.1451C17.7454 24.1465 17.014 23.9998 16.3331 23.7136M18.484 24.1451L16.3331 23.7136M23.8768 22.2158L23.7167 22.0959L24.585 20.936C25.3795 19.8744 26.9264 19.517 28.1855 20.0812L28.1855 20.0812L41.7427 26.1566C41.7427 26.1567 41.7428 26.1567 41.7429 26.1568C44.4647 27.3685 46.1745 29.7978 46.1745 32.508V35.6833C46.1745 35.8851 46.0944 36.0786 45.9517 36.2213C45.809 36.3639 45.6155 36.4441 45.4138 36.4441H10.0607C9.85898 36.4441 9.66548 36.3639 9.52282 36.2213C9.38015 36.0786 9.3 35.8851 9.3 35.6833L9.3 20.5693C9.3 20.3676 9.38015 20.1741 9.52282 20.0314C9.66548 19.8888 9.85898 19.8086 10.0607 19.8086H11.1558C11.3438 19.8086 11.511 19.8055 11.6624 19.8028L11.6748 19.8025L11.6749 19.8025C12.2849 19.7914 12.7595 19.8067 13.1491 20.0253C13.5458 20.2478 13.8183 20.6581 14.1007 21.3269M23.8768 22.2158L23.7167 22.0959C22.8547 23.2475 21.3762 23.9451 19.754 23.9451L18.484 23.9451L18.4836 23.9451C17.7734 23.9465 17.07 23.8057 16.415 23.5311M16.415 23.5311L16.0012 23.3327M16.415 23.5311L16.4195 23.5332L16.3331 23.7136M16.415 23.5311C16.4135 23.5304 16.412 23.5298 16.4106 23.5292L16.3331 23.7136M16.0012 23.3327C15.1353 22.8686 14.4564 22.1696 14.1007 21.3269M16.0012 23.3327C16.0025 23.3334 16.0038 23.3341 16.0051 23.3348L15.9107 23.5112L15.9972 23.3308L16.0012 23.3327ZM14.1007 21.3269C14.1007 21.3269 14.1007 21.3269 14.1007 21.3269L13.9164 21.4047L14.1007 21.3269ZM10.8215 32.2117H13.2223C13.6602 31.7835 14.6371 31.0453 16.5586 30.462L16.5596 30.4617C17.3166 30.2362 18.088 30.0618 18.8684 29.9395C20.956 29.6036 23.4301 29.5222 26.2201 29.6955C31.0977 29.9982 34.6767 28.9758 36.8152 28.0687L36.8163 28.0683C37.6924 27.7028 38.5334 27.259 39.3291 26.7422L35.5466 25.0472L33.5314 27.3966C33.4 27.5497 33.2132 27.6444 33.012 27.6598C32.8108 27.6753 32.6118 27.6101 32.4586 27.4787C32.3055 27.3474 32.2108 27.1606 32.1954 26.9594C32.1799 26.7582 32.2451 26.5591 32.3765 26.406L34.0986 24.3983L31.951 23.4359L29.9079 25.8178C29.7765 25.971 29.5897 26.0657 29.3885 26.0811C29.1874 26.0965 28.9883 26.0313 28.8351 25.9C28.682 25.7686 28.5873 25.5818 28.5719 25.3806C28.5565 25.1794 28.6216 24.9803 28.753 24.8272L28.9048 24.9574L28.753 24.8272L30.503 22.787L27.5633 21.4696L27.6451 21.2871L27.5633 21.4696C26.9349 21.188 26.1602 21.3706 25.8029 21.8477C25.8029 21.8477 25.8029 21.8477 25.8029 21.8477L24.9347 23.0076C23.7781 24.5527 21.8391 25.4666 19.754 25.4666H18.4841H18.484V25.2666C17.6755 25.267 16.8737 25.1198 16.1181 24.8322L10.8215 32.2117ZM10.8215 32.2117L10.8215 28.4445C11.3302 28.442 11.8361 28.3698 12.3252 28.2299C13.4362 27.9131 14.9532 27.1012 16.2038 25.0766L10.8215 32.2117ZM41.1222 27.5458L41.1226 27.546C43.2091 28.4748 44.5224 30.2487 44.6429 32.2117H16.1514C16.4289 32.1007 16.7117 32.0028 16.9988 31.9184L16.9993 31.9182C17.6911 31.7125 18.3958 31.5534 19.1088 31.4419L19.1097 31.4418C21.0786 31.1249 23.4386 31.0473 26.1258 31.214C31.3236 31.5368 35.1598 30.432 37.4675 29.4446L37.3888 29.2607L37.4675 29.4446C39.2276 28.6915 40.3839 27.8987 40.9456 27.4667L41.1222 27.5458ZM12.699 21.9186L12.699 21.9186L12.7001 21.9211C13.1483 22.9436 13.8904 23.8077 14.8297 24.4052C13.4148 26.6097 11.6998 26.9271 10.8215 26.928V21.3344L12.4184 21.369C12.4222 21.3737 12.4265 21.3793 12.4312 21.3857C12.4572 21.4213 12.4867 21.4701 12.5186 21.5296C12.5821 21.6482 12.6455 21.7918 12.699 21.9186ZM44.653 34.9226H10.8215V33.7332H44.653V34.9226Z" fill="white" stroke="white" stroke-width="0.4"/>
</g>
</svg>
