<svg width="56" height="56" viewBox="0 0 56 56" fill="none" xmlns="http://www.w3.org/2000/svg">
<g opacity="0.44">
<path d="M28.0972 32.3963C31.8133 32.6617 34.2908 25.7604 35.065 22.2765C34.1359 22.2765 31.567 19.9474 29.0926 18.7926C23.1203 16.0055 20.7749 18.0526 20.9636 21.447C21.4944 31.0028 25.9405 32.7281 28.0972 32.3963Z" stroke="white" stroke-width="2" stroke-linejoin="round"/>
<path d="M21.9542 31.7327C19.8528 32.1198 15.2851 31.8654 13.8252 27.7512C15.1524 27.3641 17.7404 25.0304 17.475 18.7926C17.475 14.6452 21.2906 10 26.7653 10H26.9312" stroke="white" stroke-width="2" stroke-linecap="round" stroke-linejoin="round"/>
<path d="M33.7421 31.7327C35.8434 32.1198 40.4112 31.8654 41.8711 27.7512C40.5439 27.3641 37.9559 25.0304 38.2213 18.7926C38.2213 14.6452 34.4057 10 28.931 10" stroke="white" stroke-width="2" stroke-linecap="round" stroke-linejoin="round"/>
<path d="M24.7792 31.5668C24.6686 33.0599 23.2529 36.0793 18.475 36.212C16.9819 36.212 13.8962 37.3401 13.498 41.8525" stroke="white" stroke-width="2" stroke-linecap="round" stroke-linejoin="round"/>
<path d="M30.9171 31.5668C31.0277 33.0599 32.4434 36.0793 37.2213 36.212C38.7144 36.212 41.8001 37.3401 42.1982 41.8525" stroke="white" stroke-width="2" stroke-linecap="round" stroke-linejoin="round"/>
</g>
</svg>
